mtllib anvil_black_2x_clean.mtl
o AnvilBlack2xClean
v -1.68 1.365 -0.21
v -1.68 1.365 -0.105
v -1.68 1.47 -0.105
v -1.68 1.47 -0.21
v -1.575 1.365 -0.21
v -1.575 1.365 -0.105
v -1.575 1.47 -0.21
v -1.68 1.365 0.0
v -1.68 1.47 0.0
v -1.575 1.365 0.0
v -1.68 1.365 0.105
v -1.68 1.47 0.105
v -1.575 1.365 0.105
v -1.68 1.365 0.21
v -1.68 1.47 0.21
v -1.575 1.365 0.21
v -1.575 1.47 0.21
v -1.68 1.575 -0.105
v -1.68 1.575 -0.21
v -1.575 1.575 -0.21
v -1.68 1.575 0.0
v -1.68 1.575 0.105
v -1.68 1.575 0.21
v -1.575 1.575 0.21
v -1.68 1.68 -0.105
v -1.68 1.68 -0.21
v -1.575 1.68 -0.21
v -1.68 1.68 0.0
v -1.68 1.68 0.105
v -1.68 1.68 0.21
v -1.575 1.68 0.21
v -1.68 1.785 -0.105
v -1.68 1.785 -0.21
v -1.575 1.785 -0.105
v -1.575 1.785 -0.21
v -1.68 1.785 0.0
v -1.575 1.785 0.0
v -1.68 1.785 0.105
v -1.575 1.785 0.105
v -1.68 1.785 0.21
v -1.575 1.785 0.21
v -1.47 1.365 -0.21
v -1.47 1.365 -0.105
v -1.47 1.47 -0.21
v -1.47 1.365 0.0
v -1.47 1.365 0.105
v -1.47 1.365 0.21
v -1.47 1.47 0.21
v -1.47 1.575 -0.21
v -1.47 1.575 0.21
v -1.47 1.68 -0.21
v -1.47 1.68 0.21
v -1.47 1.785 -0.105
v -1.47 1.785 -0.21
v -1.47 1.785 0.0
v -1.47 1.785 0.105
v -1.47 1.785 0.21
v -1.47 1.365 -0.315
v -1.47 1.47 -0.315
v -1.365 1.365 -0.315
v -1.365 1.365 -0.21
v -1.365 1.47 -0.315
v -1.365 1.365 -0.105
v -1.365 1.365 0.0
v -1.365 1.365 0.105
v -1.365 1.365 0.21
v -1.47 1.365 0.315
v -1.47 1.47 0.315
v -1.365 1.365 0.315
v -1.365 1.47 0.315
v -1.47 1.575 -0.315
v -1.365 1.575 -0.315
v -1.47 1.575 0.315
v -1.365 1.575 0.315
v -1.47 1.68 -0.315
v -1.365 1.68 -0.315
v -1.47 1.68 0.315
v -1.365 1.68 0.315
v -1.47 1.785 -0.315
v -1.365 1.785 -0.21
v -1.365 1.785 -0.315
v -1.365 1.785 -0.105
v -1.365 1.785 0.0
v -1.365 1.785 0.105
v -1.365 1.785 0.21
v -1.47 1.785 0.315
v -1.365 1.785 0.315
v -1.26 1.365 -0.315
v -1.26 1.365 -0.21
v -1.26 1.47 -0.315
v -1.26 1.365 -0.105
v -1.26 1.365 0.0
v -1.26 1.365 0.105
v -1.26 1.365 0.21
v -1.26 1.365 0.315
v -1.26 1.47 0.315
v -1.26 1.575 -0.315
v -1.26 1.575 0.315
v -1.26 1.68 -0.315
v -1.26 1.68 0.315
v -1.26 1.785 -0.21
v -1.26 1.785 -0.315
v -1.26 1.785 -0.105
v -1.26 1.785 0.0
v -1.26 1.785 0.105
v -1.26 1.785 0.21
v -1.26 1.785 0.315
v -1.26 1.26 -0.42
v -1.26 1.26 -0.315
v -1.26 1.365 -0.42
v -1.155 1.26 -0.42
v -1.155 1.26 -0.315
v -1.155 1.365 -0.42
v -1.26 1.26 -0.21
v -1.155 1.26 -0.21
v -1.26 1.26 -0.105
v -1.155 1.26 -0.105
v -1.26 1.26 0.0
v -1.155 1.26 0.0
v -1.26 1.26 0.105
v -1.155 1.26 0.105
v -1.26 1.26 0.21
v -1.155 1.26 0.21
v -1.26 1.26 0.315
v -1.155 1.26 0.315
v -1.26 1.26 0.42
v -1.26 1.365 0.42
v -1.155 1.26 0.42
v -1.155 1.365 0.42
v -1.26 1.47 -0.42
v -1.155 1.47 -0.42
v -1.26 1.47 0.42
v -1.155 1.47 0.42
v -1.26 1.575 -0.42
v -1.155 1.575 -0.42
v -1.26 1.575 0.42
v -1.155 1.575 0.42
v -1.26 1.68 -0.42
v -1.155 1.68 -0.42
v -1.26 1.68 0.42
v -1.155 1.68 0.42
v -1.26 1.785 -0.42
v -1.155 1.785 -0.315
v -1.155 1.785 -0.42
v -1.155 1.785 -0.21
v -1.155 1.785 -0.105
v -1.155 1.785 0.0
v -1.155 1.785 0.105
v -1.155 1.785 0.21
v -1.155 1.785 0.315
v -1.26 1.785 0.42
v -1.155 1.785 0.42
v -1.05 1.26 -0.42
v -1.05 1.26 -0.315
v -1.05 1.365 -0.42
v -1.05 1.26 -0.21
v -1.05 1.26 -0.105
v -1.05 1.26 0.0
v -1.05 1.26 0.105
v -1.05 1.26 0.21
v -1.05 1.26 0.315
v -1.05 1.26 0.42
v -1.05 1.365 0.42
v -1.05 1.47 -0.42
v -1.05 1.47 0.42
v -1.05 1.575 -0.42
v -1.05 1.575 0.42
v -1.05 1.68 -0.42
v -1.05 1.68 0.42
v -1.05 1.785 -0.315
v -1.05 1.785 -0.42
v -1.05 1.785 -0.21
v -1.05 1.785 -0.105
v -1.05 1.785 0.0
v -1.05 1.785 0.105
v -1.05 1.785 0.21
v -1.05 1.785 0.315
v -1.05 1.785 0.42
v -1.05 0.0 -0.63
v -1.05 0.0 -0.525
v -1.05 0.105 -0.525
v -1.05 0.105 -0.63
v -0.945 0.0 -0.63
v -0.945 0.0 -0.525
v -0.945 0.105 -0.63
v -1.05 0.0 -0.42
v -1.05 0.105 -0.42
v -0.945 0.0 -0.42
v -1.05 0.0 -0.315
v -1.05 0.105 -0.315
v -0.945 0.0 -0.315
v -1.05 0.0 -0.21
v -1.05 0.105 -0.21
v -0.945 0.0 -0.21
v -1.05 0.0 -0.105
v -1.05 0.105 -0.105
v -0.945 0.0 -0.105
v -1.05 0.0 0.0
v -1.05 0.105 0.0
v -0.945 0.0 0.0
v -1.05 0.0 0.105
v -1.05 0.105 0.105
v -0.945 0.0 0.105
v -1.05 0.0 0.21
v -1.05 0.105 0.21
v -0.945 0.0 0.21
v -1.05 0.0 0.315
v -1.05 0.105 0.315
v -0.945 0.0 0.315
v -1.05 0.0 0.42
v -1.05 0.105 0.42
v -0.945 0.0 0.42
v -1.05 0.0 0.525
v -1.05 0.105 0.525
v -0.945 0.0 0.525
v -1.05 0.0 0.63
v -1.05 0.105 0.63
v -0.945 0.0 0.63
v -0.945 0.105 0.63
v -1.05 0.21 -0.525
v -1.05 0.21 -0.63
v -0.945 0.21 -0.63
v -1.05 0.21 -0.42
v -1.05 0.21 -0.315
v -1.05 0.21 -0.21
v -1.05 0.21 -0.105
v -1.05 0.21 0.0
v -1.05 0.21 0.105
v -1.05 0.21 0.21
v -1.05 0.21 0.315
v -1.05 0.21 0.42
v -1.05 0.21 0.525
v -1.05 0.21 0.63
v -0.945 0.21 0.63
v -1.05 0.315 -0.525
v -1.05 0.315 -0.63
v -0.945 0.315 -0.63
v -1.05 0.315 -0.42
v -1.05 0.315 -0.315
v -1.05 0.315 -0.21
v -1.05 0.315 -0.105
v -1.05 0.315 0.0
v -1.05 0.315 0.105
v -1.05 0.315 0.21
v -1.05 0.315 0.315
v -1.05 0.315 0.42
v -1.05 0.315 0.525
v -1.05 0.315 0.63
v -0.945 0.315 0.63
v -1.05 0.42 -0.525
v -1.05 0.42 -0.63
v -0.945 0.42 -0.525
v -0.945 0.42 -0.63
v -1.05 0.42 -0.42
v -0.945 0.42 -0.42
v -1.05 0.42 -0.315
v -0.945 0.42 -0.315
v -1.05 0.42 -0.21
v -0.945 0.42 -0.21
v -1.05 0.42 -0.105
v -0.945 0.42 -0.105
v -1.05 0.42 0.0
v -0.945 0.42 0.0
v -1.05 0.42 0.105
v -0.945 0.42 0.105
v -1.05 0.42 0.21
v -0.945 0.42 0.21
v -1.05 0.42 0.315
v -0.945 0.42 0.315
v -1.05 0.42 0.42
v -0.945 0.42 0.42
v -1.05 0.42 0.525
v -0.945 0.42 0.525
v -1.05 0.42 0.63
v -0.945 0.42 0.63
v -0.945 1.26 -0.42
v -0.945 1.26 -0.315
v -0.945 1.365 -0.42
v -0.945 1.26 -0.21
v -0.945 1.26 -0.105
v -0.945 1.26 0.0
v -0.945 1.26 0.105
v -0.945 1.26 0.21
v -0.945 1.26 0.315
v -0.945 1.26 0.42
v -0.945 1.365 0.42
v -0.945 1.47 -0.42
v -0.945 1.47 0.42
v -0.945 1.575 -0.42
v -0.945 1.575 0.42
v -0.945 1.68 -0.42
v -0.945 1.68 0.42
v -0.945 1.785 -0.315
v -0.945 1.785 -0.42
v -0.945 1.785 -0.21
v -0.945 1.785 -0.105
v -0.945 1.785 0.0
v -0.945 1.785 0.105
v -0.945 1.785 0.21
v -0.945 1.785 0.315
v -0.945 1.785 0.42
v -0.84 0.0 -0.63
v -0.84 0.0 -0.525
v -0.84 0.105 -0.63
v -0.84 0.0 -0.42
v -0.84 0.0 -0.315
v -0.84 0.0 -0.21
v -0.84 0.0 -0.105
v -0.84 0.0 0.0
v -0.84 0.0 0.105
v -0.84 0.0 0.21
v -0.84 0.0 0.315
v -0.84 0.0 0.42
v -0.84 0.0 0.525
v -0.84 0.0 0.63
v -0.84 0.105 0.63
v -0.84 0.21 -0.63
v -0.84 0.21 0.63
v -0.84 0.315 -0.63
v -0.84 0.315 0.63
v -0.84 0.42 -0.525
v -0.84 0.42 -0.63
v -0.84 0.42 -0.42
v -0.84 0.42 -0.315
v -0.84 0.42 -0.21
v -0.84 0.42 -0.105
v -0.84 0.42 0.0
v -0.84 0.42 0.105
v -0.84 0.42 0.21
v -0.84 0.42 0.315
v -0.84 0.42 0.42
v -0.84 0.42 0.525
v -0.84 0.42 0.63
v -0.84 1.26 -0.42
v -0.84 1.26 -0.315
v -0.84 1.365 -0.42
v -0.84 1.26 -0.21
v -0.84 1.26 -0.105
v -0.84 1.26 0.0
v -0.84 1.26 0.105
v -0.84 1.26 0.21
v -0.84 1.26 0.315
v -0.84 1.26 0.42
v -0.84 1.365 0.42
v -0.84 1.47 -0.42
v -0.84 1.47 0.42
v -0.84 1.575 -0.42
v -0.84 1.575 0.42
v -0.84 1.68 -0.42
v -0.84 1.68 0.42
v -0.84 1.785 -0.315
v -0.84 1.785 -0.42
v -0.84 1.785 -0.21
v -0.84 1.785 -0.105
v -0.84 1.785 0.0
v -0.84 1.785 0.105
v -0.84 1.785 0.21
v -0.84 1.785 0.315
v -0.84 1.785 0.42
v -0.84 0.0 -0.735
v -0.84 0.105 -0.735
v -0.735 0.0 -0.735
v -0.735 0.0 -0.63
v -0.735 0.105 -0.735
v -0.735 0.0 -0.525
v -0.735 0.0 -0.42
v -0.735 0.0 -0.315
v -0.735 0.0 -0.21
v -0.735 0.0 -0.105
v -0.735 0.0 0.0
v -0.735 0.0 0.105
v -0.735 0.0 0.21
v -0.735 0.0 0.315
v -0.735 0.0 0.42
v -0.735 0.0 0.525
v -0.735 0.0 0.63
v -0.84 0.0 0.735
v -0.84 0.105 0.735
v -0.735 0.0 0.735
v -0.735 0.105 0.735
v -0.84 0.21 -0.735
v -0.735 0.21 -0.63
v -0.735 0.21 -0.735
v -0.84 0.21 0.735
v -0.735 0.21 0.735
v -0.735 0.21 0.63
v -0.735 0.315 -0.63
v -0.735 0.315 0.63
v -0.735 0.42 -0.525
v -0.735 0.42 -0.63
v -0.735 0.42 -0.42
v -0.735 0.42 -0.315
v -0.735 0.42 -0.21
v -0.735 0.42 -0.105
v -0.735 0.42 0.0
v -0.735 0.42 0.105
v -0.735 0.42 0.21
v -0.735 0.42 0.315
v -0.735 0.42 0.42
v -0.735 0.42 0.525
v -0.735 0.42 0.63
v -0.84 1.26 -0.525
v -0.84 1.365 -0.525
v -0.735 1.26 -0.525
v -0.735 1.26 -0.42
v -0.735 1.365 -0.525
v -0.735 1.26 -0.315
v -0.735 1.26 -0.21
v -0.735 1.26 -0.105
v -0.735 1.26 0.0
v -0.735 1.26 0.105
v -0.735 1.26 0.21
v -0.735 1.26 0.315
v -0.735 1.26 0.42
v -0.84 1.26 0.525
v -0.84 1.365 0.525
v -0.735 1.26 0.525
v -0.735 1.365 0.525
v -0.84 1.47 -0.525
v -0.735 1.47 -0.525
v -0.84 1.47 0.525
v -0.735 1.47 0.525
v -0.84 1.575 -0.525
v -0.735 1.575 -0.525
v -0.84 1.575 0.525
v -0.735 1.575 0.525
v -0.84 1.68 -0.525
v -0.735 1.68 -0.525
v -0.84 1.68 0.525
v -0.735 1.68 0.525
v -0.84 1.785 -0.525
v -0.735 1.785 -0.42
v -0.735 1.785 -0.525
v -0.735 1.785 -0.315
v -0.735 1.785 -0.21
v -0.735 1.785 -0.105
v -0.735 1.785 0.0
v -0.735 1.785 0.105
v -0.735 1.785 0.21
v -0.735 1.785 0.315
v -0.735 1.785 0.42
v -0.84 1.785 0.525
v -0.735 1.785 0.525
v -0.63 0.0 -0.735
v -0.63 0.0 -0.63
v -0.63 0.105 -0.735
v -0.63 0.0 -0.525
v -0.63 0.0 -0.42
v -0.63 0.0 -0.315
v -0.63 0.0 -0.21
v -0.63 0.0 -0.105
v -0.63 0.0 0.0
v -0.63 0.0 0.105
v -0.63 0.0 0.21
v -0.63 0.0 0.315
v -0.63 0.0 0.42
v -0.63 0.0 0.525
v -0.63 0.0 0.63
v -0.63 0.0 0.735
v -0.63 0.105 0.735
v -0.63 0.21 -0.63
v -0.63 0.21 -0.735
v -0.63 0.21 0.735
v -0.63 0.21 0.63
v -0.63 0.315 -0.63
v -0.63 0.315 0.63
v -0.63 0.42 -0.525
v -0.63 0.42 -0.63
v -0.63 0.42 -0.42
v -0.63 0.42 -0.315
v -0.63 0.42 -0.21
v -0.63 0.42 -0.105
v -0.63 0.42 0.0
v -0.63 0.42 0.105
v -0.63 0.42 0.21
v -0.63 0.42 0.315
v -0.63 0.42 0.42
v -0.63 0.42 0.525
v -0.63 0.42 0.63
v -0.735 1.26 -0.63
v -0.735 1.365 -0.63
v -0.63 1.26 -0.63
v -0.63 1.26 -0.525
v -0.63 1.365 -0.63
v -0.63 1.26 -0.42
v -0.63 1.26 -0.315
v -0.63 1.26 -0.21
v -0.63 1.26 -0.105
v -0.63 1.26 0.0
v -0.63 1.26 0.105
v -0.63 1.26 0.21
v -0.63 1.26 0.315
v -0.63 1.26 0.42
v -0.63 1.26 0.525
v -0.735 1.26 0.63
v -0.735 1.365 0.63
v -0.63 1.26 0.63
v -0.63 1.365 0.63
v -0.735 1.47 -0.63
v -0.63 1.47 -0.63
v -0.735 1.47 0.63
v -0.63 1.47 0.63
v -0.735 1.575 -0.63
v -0.63 1.575 -0.63
v -0.735 1.575 0.63
v -0.63 1.575 0.63
v -0.735 1.68 -0.63
v -0.63 1.68 -0.63
v -0.735 1.68 0.63
v -0.63 1.68 0.63
v -0.735 1.785 -0.63
v -0.63 1.785 -0.525
v -0.63 1.785 -0.63
v -0.63 1.785 -0.42
v -0.63 1.785 -0.315
v -0.63 1.785 -0.21
v -0.63 1.785 -0.105
v -0.63 1.785 0.0
v -0.63 1.785 0.105
v -0.63 1.785 0.21
v -0.63 1.785 0.315
v -0.63 1.785 0.42
v -0.63 1.785 0.525
v -0.735 1.785 0.63
v -0.63 1.785 0.63
v -0.525 0.0 -0.735
v -0.525 0.0 -0.63
v -0.525 0.105 -0.735
v -0.525 0.0 -0.525
v -0.525 0.0 -0.42
v -0.525 0.0 -0.315
v -0.525 0.0 -0.21
v -0.525 0.0 -0.105
v -0.525 0.0 0.0
v -0.525 0.0 0.105
v -0.525 0.0 0.21
v -0.525 0.0 0.315
v -0.525 0.0 0.42
v -0.525 0.0 0.525
v -0.525 0.0 0.63
v -0.525 0.0 0.735
v -0.525 0.105 0.735
v -0.525 0.21 -0.63
v -0.525 0.21 -0.735
v -0.525 0.21 0.735
v -0.525 0.21 0.63
v -0.525 0.315 -0.63
v -0.525 0.315 0.63
v -0.525 0.42 -0.525
v -0.525 0.42 -0.63
v -0.525 0.42 -0.42
v -0.525 0.42 -0.315
v -0.525 0.42 -0.21
v -0.525 0.42 -0.105
v -0.525 0.42 0.0
v -0.525 0.42 0.105
v -0.525 0.42 0.21
v -0.525 0.42 0.315
v -0.525 0.42 0.42
v -0.525 0.42 0.525
v -0.525 0.42 0.63
v -0.525 1.26 -0.63
v -0.525 1.26 -0.525
v -0.525 1.365 -0.63
v -0.525 1.26 -0.42
v -0.525 1.26 -0.315
v -0.525 1.26 -0.21
v -0.525 1.26 -0.105
v -0.525 1.26 0.0
v -0.525 1.26 0.105
v -0.525 1.26 0.21
v -0.525 1.26 0.315
v -0.525 1.26 0.42
v -0.525 1.26 0.525
v -0.525 1.26 0.63
v -0.525 1.365 0.63
v -0.525 1.47 -0.63
v -0.525 1.47 0.63
v -0.525 1.575 -0.63
v -0.525 1.575 0.63
v -0.525 1.68 -0.63
v -0.525 1.68 0.63
v -0.525 1.785 -0.63
v -0.525 1.785 0.63
v -0.63 1.89 -0.525
v -0.63 1.89 -0.63
v -0.525 1.89 -0.525
v -0.525 1.89 -0.63
v -0.63 1.89 -0.42
v -0.525 1.89 -0.42
v -0.63 1.89 -0.315
v -0.525 1.89 -0.315
v -0.63 1.89 -0.21
v -0.525 1.89 -0.21
v -0.63 1.89 -0.105
v -0.525 1.89 -0.105
v -0.63 1.89 0.0
v -0.525 1.89 0.0
v -0.63 1.89 0.105
v -0.525 1.89 0.105
v -0.63 1.89 0.21
v -0.525 1.89 0.21
v -0.63 1.89 0.315
v -0.525 1.89 0.315
v -0.63 1.89 0.42
v -0.525 1.89 0.42
v -0.63 1.89 0.525
v -0.525 1.89 0.525
v -0.63 1.89 0.63
v -0.525 1.89 0.63
v -0.42 0.0 -0.735
v -0.42 0.105 -0.735
v -0.42 0.105 -0.63
v -0.42 0.0 -0.63
v -0.42 0.0 -0.525
v -0.42 0.0 -0.42
v -0.42 0.0 -0.315
v -0.42 0.0 -0.21
v -0.42 0.0 -0.105
v -0.42 0.0 0.0
v -0.42 0.0 0.105
v -0.42 0.0 0.21
v -0.42 0.0 0.315
v -0.42 0.0 0.42
v -0.42 0.0 0.525
v -0.42 0.0 0.63
v -0.42 0.105 0.63
v -0.42 0.105 0.735
v -0.42 0.0 0.735
v -0.42 0.21 -0.735
v -0.42 0.21 -0.63
v -0.42 0.21 0.63
v -0.42 0.21 0.735
v -0.42 0.315 -0.63
v -0.42 0.315 0.63
v -0.42 0.42 -0.525
v -0.42 0.42 -0.63
v -0.42 0.42 -0.42
v -0.42 0.42 -0.315
v -0.42 0.42 -0.21
v -0.42 0.42 -0.105
v -0.42 0.42 0.0
v -0.42 0.42 0.105
v -0.42 0.42 0.21
v -0.42 0.42 0.315
v -0.42 0.42 0.42
v -0.42 0.42 0.525
v -0.42 0.42 0.63
v -0.42 1.26 -0.63
v -0.42 1.26 -0.525
v -0.42 1.365 -0.63
v -0.42 1.26 -0.42
v -0.42 1.26 -0.315
v -0.42 1.26 -0.21
v -0.42 1.26 -0.105
v -0.42 1.26 0.0
v -0.42 1.26 0.105
v -0.42 1.26 0.21
v -0.42 1.26 0.315
v -0.42 1.26 0.42
v -0.42 1.26 0.525
v -0.42 1.26 0.63
v -0.42 1.365 0.63
v -0.42 1.47 -0.63
v -0.42 1.47 0.63
v -0.42 1.575 -0.63
v -0.42 1.575 0.63
v -0.42 1.68 -0.63
v -0.42 1.68 0.63
v -0.42 1.785 -0.63
v -0.42 1.785 0.63
v -0.42 1.89 -0.525
v -0.42 1.89 -0.63
v -0.42 1.89 -0.42
v -0.42 1.89 -0.315
v -0.42 1.89 -0.21
v -0.42 1.89 -0.105
v -0.42 1.89 0.0
v -0.42 1.89 0.105
v -0.42 1.89 0.21
v -0.42 1.89 0.315
v -0.42 1.89 0.42
v -0.42 1.89 0.525
v -0.42 1.89 0.63
v -0.315 0.0 -0.63
v -0.315 0.0 -0.525
v -0.315 0.105 -0.63
v -0.315 0.0 -0.42
v -0.315 0.0 -0.315
v -0.315 0.0 -0.21
v -0.315 0.0 -0.105
v -0.315 0.0 0.0
v -0.315 0.0 0.105
v -0.315 0.0 0.21
v -0.315 0.0 0.315
v -0.315 0.0 0.42
v -0.315 0.0 0.525
v -0.315 0.0 0.63
v -0.315 0.105 0.63
v -0.315 0.21 -0.63
v -0.315 0.21 0.63
v -0.315 0.315 -0.63
v -0.315 0.315 0.63
v -0.315 0.42 -0.525
v -0.315 0.42 -0.63
v -0.315 0.42 -0.42
v -0.315 0.42 -0.315
v -0.315 0.42 -0.21
v -0.315 0.42 -0.105
v -0.315 0.42 0.0
v -0.315 0.42 0.105
v -0.315 0.42 0.21
v -0.315 0.42 0.315
v -0.315 0.42 0.42
v -0.315 0.42 0.525
v -0.315 0.42 0.63
v -0.42 0.84 -0.21
v -0.42 0.84 -0.105
v -0.42 0.945 -0.105
v -0.42 0.945 -0.21
v -0.315 0.84 -0.21
v -0.315 0.84 -0.105
v -0.315 0.945 -0.21
v -0.42 0.84 0.0
v -0.42 0.945 0.0
v -0.315 0.84 0.0
v -0.42 0.84 0.105
v -0.42 0.945 0.105
v -0.315 0.84 0.105
v -0.42 0.84 0.21
v -0.42 0.945 0.21
v -0.315 0.84 0.21
v -0.315 0.945 0.21
v -0.42 1.05 -0.105
v -0.42 1.05 -0.21
v -0.315 1.05 -0.21
v -0.42 1.05 0.0
v -0.42 1.05 0.105
v -0.42 1.05 0.21
v -0.315 1.05 0.21
v -0.42 1.155 -0.105
v -0.42 1.155 -0.21
v -0.315 1.155 -0.21
v -0.42 1.155 0.0
v -0.42 1.155 0.105
v -0.42 1.155 0.21
v -0.315 1.155 0.21
v -0.315 1.26 -0.21
v -0.315 1.26 0.21
v -0.315 1.26 -0.63
v -0.315 1.26 -0.525
v -0.315 1.365 -0.63
v -0.315 1.26 -0.42
v -0.315 1.26 -0.315
v -0.315 1.26 0.315
v -0.315 1.26 0.42
v -0.315 1.26 0.525
v -0.315 1.26 0.63
v -0.315 1.365 0.63
v -0.315 1.47 -0.63
v -0.315 1.47 0.63
v -0.315 1.575 -0.63
v -0.315 1.575 0.63
v -0.315 1.68 -0.63
v -0.315 1.68 0.63
v -0.315 1.785 -0.63
v -0.315 1.785 0.63
v -0.315 1.89 -0.525
v -0.315 1.89 -0.63
v -0.315 1.89 -0.42
v -0.315 1.89 -0.315
v -0.315 1.89 -0.21
v -0.315 1.89 -0.105
v -0.315 1.89 0.0
v -0.315 1.89 0.105
v -0.315 1.89 0.21
v -0.315 1.89 0.315
v -0.315 1.89 0.42
v -0.315 1.89 0.525
v -0.315 1.89 0.63
v -0.21 0.0 -0.63
v -0.21 0.0 -0.525
v -0.21 0.105 -0.63
v -0.21 0.0 -0.42
v -0.21 0.0 -0.315
v -0.21 0.0 -0.21
v -0.21 0.0 -0.105
v -0.21 0.0 0.0
v -0.21 0.0 0.105
v -0.21 0.0 0.21
v -0.21 0.0 0.315
v -0.21 0.0 0.42
v -0.21 0.0 0.525
v -0.21 0.0 0.63
v -0.21 0.105 0.63
v -0.21 0.21 -0.63
v -0.21 0.21 0.63
v -0.21 0.315 -0.63
v -0.21 0.315 0.63
v -0.21 0.42 -0.525
v -0.21 0.42 -0.63
v -0.21 0.42 -0.42
v -0.21 0.42 -0.21
v -0.21 0.42 -0.315
v -0.21 0.42 -0.105
v -0.21 0.42 0.0
v -0.21 0.42 0.105
v -0.21 0.42 0.21
v -0.21 0.42 0.315
v -0.21 0.42 0.525
v -0.21 0.42 0.42
v -0.21 0.42 0.63
v -0.315 0.525 -0.315
v -0.315 0.525 -0.42
v -0.21 0.525 -0.315
v -0.21 0.525 -0.42
v -0.315 0.525 0.42
v -0.315 0.525 0.315
v -0.21 0.525 0.42
v -0.21 0.525 0.315
v -0.315 0.63 -0.315
v -0.315 0.63 -0.42
v -0.21 0.63 -0.315
v -0.21 0.63 -0.42
v -0.315 0.63 0.42
v -0.315 0.63 0.315
v -0.21 0.63 0.42
v -0.21 0.63 0.315
v -0.315 0.735 -0.315
v -0.315 0.735 -0.42
v -0.21 0.735 -0.315
v -0.21 0.735 -0.42
v -0.315 0.735 0.42
v -0.315 0.735 0.315
v -0.21 0.735 0.42
v -0.21 0.735 0.315
v -0.315 0.84 -0.315
v -0.315 0.84 -0.42
v -0.21 0.84 -0.315
v -0.21 0.84 -0.42
v -0.315 0.84 0.42
v -0.315 0.84 0.315
v -0.21 0.84 0.42
v -0.21 0.84 0.315
v -0.21 0.84 -0.21
v -0.21 0.84 -0.105
v -0.21 0.945 -0.21
v -0.21 0.84 0.0
v -0.21 0.84 0.105
v -0.21 0.84 0.21
v -0.21 0.945 0.21
v -0.21 1.05 -0.21
v -0.21 1.05 0.21
v -0.21 1.155 -0.21
v -0.21 1.155 0.21
v -0.21 1.26 -0.21
v -0.21 1.26 0.21
v -0.21 1.26 -0.63
v -0.21 1.26 -0.525
v -0.21 1.365 -0.63
v -0.21 1.26 -0.42
v -0.21 1.26 -0.315
v -0.21 1.26 0.315
v -0.21 1.26 0.42
v -0.21 1.26 0.525
v -0.21 1.26 0.63
v -0.21 1.365 0.63
v -0.21 1.47 -0.63
v -0.21 1.47 0.63
v -0.21 1.575 -0.63
v -0.21 1.575 0.63
v -0.21 1.68 -0.63
v -0.21 1.68 0.63
v -0.21 1.785 -0.63
v -0.21 1.785 0.63
v -0.21 1.89 -0.525
v -0.21 1.89 -0.63
v -0.21 1.89 -0.42
v -0.21 1.89 -0.315
v -0.21 1.89 -0.21
v -0.21 1.89 -0.105
v -0.21 1.89 0.0
v -0.21 1.89 0.105
v -0.21 1.89 0.21
v -0.21 1.89 0.315
v -0.21 1.89 0.42
v -0.21 1.89 0.525
v -0.21 1.89 0.63
v -0.105 0.0 -0.63
v -0.105 0.0 -0.525
v -0.105 0.105 -0.63
v -0.105 0.0 -0.42
v -0.105 0.0 -0.315
v -0.105 0.0 -0.21
v -0.105 0.0 -0.105
v -0.105 0.0 0.0
v -0.105 0.0 0.105
v -0.105 0.0 0.21
v -0.105 0.0 0.315
v -0.105 0.0 0.42
v -0.105 0.0 0.525
v -0.105 0.0 0.63
v -0.105 0.105 0.63
v -0.105 0.21 -0.63
v -0.105 0.21 0.63
v -0.105 0.315 -0.63
v -0.105 0.315 0.63
v -0.105 0.42 -0.525
v -0.105 0.42 -0.63
v -0.105 0.42 -0.42
v -0.105 0.42 0.525
v -0.105 0.42 0.42
v -0.105 0.42 0.63
v -0.105 0.525 -0.42
v -0.21 0.525 -0.21
v -0.21 0.525 -0.105
v -0.21 0.525 0.0
v -0.21 0.525 0.105
v -0.21 0.525 0.21
v -0.105 0.525 0.42
v -0.105 0.63 -0.42
v -0.21 0.63 -0.21
v -0.21 0.63 -0.105
v -0.21 0.63 0.0
v -0.21 0.63 0.105
v -0.21 0.63 0.21
v -0.105 0.63 0.42
v -0.105 0.735 -0.42
v -0.21 0.735 -0.21
v -0.21 0.735 -0.105
v -0.21 0.735 0.0
v -0.21 0.735 0.105
v -0.21 0.735 0.21
v -0.105 0.735 0.42
v -0.105 0.84 -0.315
v -0.105 0.84 -0.42
v -0.105 0.84 0.42
v -0.105 0.84 0.315
v -0.21 0.945 -0.315
v -0.105 0.945 -0.315
v -0.21 0.945 0.315
v -0.105 0.945 0.315
v -0.21 1.05 -0.315
v -0.105 1.05 -0.315
v -0.21 1.05 0.315
v -0.105 1.05 0.315
v -0.21 1.155 -0.315
v -0.105 1.155 -0.315
v -0.21 1.155 0.315
v -0.105 1.155 0.315
v -0.105 1.26 -0.315
v -0.105 1.26 0.315
v -0.105 1.26 -0.63
v -0.105 1.26 -0.525
v -0.105 1.365 -0.63
v -0.105 1.26 -0.42
v -0.105 1.26 0.42
v -0.105 1.26 0.525
v -0.105 1.26 0.63
v -0.105 1.365 0.63
v -0.105 1.47 -0.63
v -0.105 1.47 0.63
v -0.105 1.575 -0.63
v -0.105 1.575 0.63
v -0.105 1.68 -0.63
v -0.105 1.68 0.63
v -0.105 1.785 -0.63
v -0.105 1.785 0.63
v -0.105 1.89 -0.525
v -0.105 1.89 -0.63
v -0.105 1.89 -0.42
v -0.105 1.89 -0.315
v -0.105 1.89 -0.21
v -0.105 1.89 -0.105
v -0.105 1.89 0.0
v -0.105 1.89 0.105
v -0.105 1.89 0.21
v -0.105 1.89 0.315
v -0.105 1.89 0.42
v -0.105 1.89 0.525
v -0.105 1.89 0.63
v 0.0 0.0 -0.63
v 0.0 0.0 -0.525
v 0.0 0.105 -0.63
v 0.0 0.0 -0.42
v 0.0 0.0 -0.315
v 0.0 0.0 -0.21
v 0.0 0.0 -0.105
v 0.0 0.0 0.0
v 0.0 0.0 0.105
v 0.0 0.0 0.21
v 0.0 0.0 0.315
v 0.0 0.0 0.42
v 0.0 0.0 0.525
v 0.0 0.0 0.63
v 0.0 0.105 0.63
v 0.0 0.21 -0.63
v 0.0 0.21 0.63
v 0.0 0.315 -0.63
v 0.0 0.315 0.63
v 0.0 0.42 -0.525
v 0.0 0.42 -0.63
v 0.0 0.42 -0.42
v 0.0 0.42 0.525
v 0.0 0.42 0.42
v 0.0 0.42 0.63
v 0.0 0.525 -0.42
v 0.0 0.525 0.42
v 0.0 0.63 -0.42
v 0.0 0.63 0.42
v 0.0 0.735 -0.42
v 0.0 0.735 0.42
v 0.0 0.84 -0.315
v 0.0 0.84 -0.42
v 0.0 0.84 0.42
v 0.0 0.84 0.315
v 0.0 0.945 -0.315
v 0.0 0.945 0.315
v 0.0 1.05 -0.315
v 0.0 1.05 0.315
v 0.0 1.155 -0.315
v 0.0 1.155 0.315
v 0.0 1.26 -0.315
v 0.0 1.26 0.315
v 0.0 1.26 -0.63
v 0.0 1.26 -0.525
v 0.0 1.365 -0.63
v 0.0 1.26 -0.42
v 0.0 1.26 0.42
v 0.0 1.26 0.525
v 0.0 1.26 0.63
v 0.0 1.365 0.63
v 0.0 1.47 -0.63
v 0.0 1.47 0.63
v 0.0 1.575 -0.63
v 0.0 1.575 0.63
v 0.0 1.68 -0.63
v 0.0 1.68 0.63
v 0.0 1.785 -0.63
v 0.0 1.785 0.63
v 0.0 1.89 -0.525
v 0.0 1.89 -0.63
v 0.0 1.89 -0.42
v 0.0 1.89 -0.315
v 0.0 1.89 -0.21
v 0.0 1.89 -0.105
v 0.0 1.89 0.0
v 0.0 1.89 0.105
v 0.0 1.89 0.21
v 0.0 1.89 0.315
v 0.0 1.89 0.42
v 0.0 1.89 0.525
v 0.0 1.89 0.63
v 0.105 0.0 -0.63
v 0.105 0.0 -0.525
v 0.105 0.105 -0.63
v 0.105 0.0 -0.42
v 0.105 0.0 -0.315
v 0.105 0.0 -0.21
v 0.105 0.0 -0.105
v 0.105 0.0 0.0
v 0.105 0.0 0.105
v 0.105 0.0 0.21
v 0.105 0.0 0.315
v 0.105 0.0 0.42
v 0.105 0.0 0.525
v 0.105 0.0 0.63
v 0.105 0.105 0.63
v 0.105 0.21 -0.63
v 0.105 0.21 0.63
v 0.105 0.315 -0.63
v 0.105 0.315 0.63
v 0.105 0.42 -0.525
v 0.105 0.42 -0.63
v 0.105 0.42 -0.42
v 0.105 0.42 0.525
v 0.105 0.42 0.42
v 0.105 0.42 0.63
v 0.105 0.525 -0.42
v 0.105 0.525 0.42
v 0.105 0.63 -0.42
v 0.105 0.63 0.42
v 0.105 0.735 -0.42
v 0.105 0.735 0.42
v 0.105 0.84 -0.315
v 0.105 0.84 -0.42
v 0.105 0.84 0.42
v 0.105 0.84 0.315
v 0.105 0.945 -0.315
v 0.105 0.945 0.315
v 0.105 1.05 -0.315
v 0.105 1.05 0.315
v 0.105 1.155 -0.315
v 0.105 1.155 0.315
v 0.105 1.26 -0.315
v 0.105 1.26 0.315
v 0.105 1.26 -0.63
v 0.105 1.26 -0.525
v 0.105 1.365 -0.63
v 0.105 1.26 -0.42
v 0.105 1.26 0.42
v 0.105 1.26 0.525
v 0.105 1.26 0.63
v 0.105 1.365 0.63
v 0.105 1.47 -0.63
v 0.105 1.47 0.63
v 0.105 1.575 -0.63
v 0.105 1.575 0.63
v 0.105 1.68 -0.63
v 0.105 1.68 0.63
v 0.105 1.785 -0.63
v 0.105 1.785 0.63
v 0.105 1.89 -0.525
v 0.105 1.89 -0.63
v 0.105 1.89 -0.42
v 0.105 1.89 -0.315
v 0.105 1.89 -0.21
v 0.105 1.89 -0.105
v 0.105 1.89 0.0
v 0.105 1.89 0.105
v 0.105 1.89 0.21
v 0.105 1.89 0.315
v 0.105 1.89 0.42
v 0.105 1.89 0.525
v 0.105 1.89 0.63
v 0.21 0.0 -0.63
v 0.21 0.0 -0.525
v 0.21 0.105 -0.63
v 0.21 0.0 -0.42
v 0.21 0.0 -0.315
v 0.21 0.0 -0.21
v 0.21 0.0 -0.105
v 0.21 0.0 0.0
v 0.21 0.0 0.105
v 0.21 0.0 0.21
v 0.21 0.0 0.315
v 0.21 0.0 0.42
v 0.21 0.0 0.525
v 0.21 0.0 0.63
v 0.21 0.105 0.63
v 0.21 0.21 -0.63
v 0.21 0.21 0.63
v 0.21 0.315 -0.63
v 0.21 0.315 0.63
v 0.21 0.42 -0.525
v 0.21 0.42 -0.63
v 0.21 0.42 -0.42
v 0.21 0.42 0.525
v 0.21 0.42 0.42
v 0.21 0.42 0.63
v 0.21 0.525 -0.42
v 0.21 0.525 0.42
v 0.21 0.63 -0.42
v 0.21 0.63 0.42
v 0.21 0.735 -0.42
v 0.21 0.735 0.42
v 0.21 0.84 -0.315
v 0.21 0.84 -0.42
v 0.21 0.84 0.42
v 0.21 0.84 0.315
v 0.21 0.945 -0.315
v 0.21 0.945 0.315
v 0.21 1.05 -0.315
v 0.21 1.05 0.315
v 0.21 1.155 -0.315
v 0.21 1.155 0.315
v 0.21 1.26 -0.315
v 0.21 1.26 0.315
v 0.21 1.26 -0.63
v 0.21 1.26 -0.525
v 0.21 1.365 -0.63
v 0.21 1.26 -0.42
v 0.21 1.26 0.42
v 0.21 1.26 0.525
v 0.21 1.26 0.63
v 0.21 1.365 0.63
v 0.21 1.47 -0.63
v 0.21 1.47 0.63
v 0.21 1.575 -0.63
v 0.21 1.575 0.63
v 0.21 1.68 -0.63
v 0.21 1.68 0.63
v 0.21 1.785 -0.63
v 0.21 1.785 0.63
v 0.21 1.89 -0.525
v 0.21 1.89 -0.63
v 0.21 1.89 -0.42
v 0.21 1.89 -0.315
v 0.21 1.89 -0.21
v 0.21 1.89 -0.105
v 0.21 1.89 0.0
v 0.21 1.89 0.105
v 0.21 1.89 0.21
v 0.21 1.89 0.315
v 0.21 1.89 0.42
v 0.21 1.89 0.525
v 0.21 1.89 0.63
v 0.315 0.0 -0.63
v 0.315 0.0 -0.525
v 0.315 0.105 -0.63
v 0.315 0.0 -0.42
v 0.315 0.0 -0.315
v 0.315 0.0 -0.21
v 0.315 0.0 -0.105
v 0.315 0.0 0.0
v 0.315 0.0 0.105
v 0.315 0.0 0.21
v 0.315 0.0 0.315
v 0.315 0.0 0.42
v 0.315 0.0 0.525
v 0.315 0.0 0.63
v 0.315 0.105 0.63
v 0.315 0.21 -0.63
v 0.315 0.21 0.63
v 0.315 0.315 -0.63
v 0.315 0.315 0.63
v 0.315 0.42 -0.525
v 0.315 0.42 -0.63
v 0.315 0.42 -0.42
v 0.315 0.42 0.525
v 0.315 0.42 0.42
v 0.315 0.42 0.63
v 0.315 0.525 -0.42
v 0.315 0.42 -0.315
v 0.315 0.525 -0.315
v 0.315 0.525 -0.21
v 0.315 0.42 -0.21
v 0.315 0.525 -0.105
v 0.315 0.42 -0.105
v 0.315 0.525 0.0
v 0.315 0.42 0.0
v 0.315 0.525 0.105
v 0.315 0.42 0.105
v 0.315 0.525 0.21
v 0.315 0.42 0.21
v 0.315 0.525 0.315
v 0.315 0.42 0.315
v 0.315 0.525 0.42
v 0.315 0.63 -0.42
v 0.315 0.63 -0.315
v 0.315 0.63 -0.21
v 0.315 0.63 -0.105
v 0.315 0.63 0.0
v 0.315 0.63 0.105
v 0.315 0.63 0.21
v 0.315 0.63 0.315
v 0.315 0.63 0.42
v 0.315 0.735 -0.42
v 0.315 0.735 -0.315
v 0.315 0.735 -0.21
v 0.315 0.735 -0.105
v 0.315 0.735 0.0
v 0.315 0.735 0.105
v 0.315 0.735 0.21
v 0.315 0.735 0.315
v 0.315 0.735 0.42
v 0.315 0.84 -0.315
v 0.315 0.84 -0.42
v 0.315 0.84 -0.21
v 0.315 0.84 -0.105
v 0.315 0.84 0.0
v 0.315 0.84 0.105
v 0.315 0.84 0.21
v 0.315 0.84 0.315
v 0.315 0.84 0.42
v 0.315 0.945 -0.315
v 0.315 0.945 -0.21
v 0.315 0.945 0.21
v 0.315 0.945 0.315
v 0.315 1.05 -0.315
v 0.315 1.05 -0.21
v 0.315 1.05 0.21
v 0.315 1.05 0.315
v 0.315 1.155 -0.315
v 0.315 1.155 -0.21
v 0.315 1.155 0.21
v 0.315 1.155 0.315
v 0.315 1.26 -0.315
v 0.315 1.26 -0.21
v 0.315 1.26 0.21
v 0.315 1.26 0.315
v 0.315 1.26 -0.63
v 0.315 1.26 -0.525
v 0.315 1.365 -0.63
v 0.315 1.26 -0.42
v 0.315 1.26 0.42
v 0.315 1.26 0.525
v 0.315 1.26 0.63
v 0.315 1.365 0.63
v 0.315 1.47 -0.63
v 0.315 1.47 0.63
v 0.315 1.575 -0.63
v 0.315 1.575 0.63
v 0.315 1.68 -0.63
v 0.315 1.68 0.63
v 0.315 1.785 -0.63
v 0.315 1.785 0.63
v 0.315 1.89 -0.525
v 0.315 1.89 -0.63
v 0.315 1.89 -0.42
v 0.315 1.89 -0.315
v 0.315 1.89 -0.21
v 0.315 1.89 -0.105
v 0.315 1.89 0.0
v 0.315 1.89 0.105
v 0.315 1.89 0.21
v 0.315 1.89 0.315
v 0.315 1.89 0.42
v 0.315 1.89 0.525
v 0.315 1.89 0.63
v 0.42 0.0 -0.63
v 0.42 0.0 -0.525
v 0.42 0.105 -0.63
v 0.42 0.0 -0.42
v 0.42 0.0 -0.315
v 0.42 0.0 -0.21
v 0.42 0.0 -0.105
v 0.42 0.0 0.0
v 0.42 0.0 0.105
v 0.42 0.0 0.21
v 0.42 0.0 0.315
v 0.42 0.0 0.42
v 0.42 0.0 0.525
v 0.42 0.0 0.63
v 0.42 0.105 0.63
v 0.42 0.21 -0.63
v 0.42 0.21 0.63
v 0.42 0.315 -0.63
v 0.42 0.315 0.63
v 0.42 0.42 -0.525
v 0.42 0.42 -0.63
v 0.42 0.42 -0.42
v 0.42 0.42 -0.21
v 0.42 0.42 -0.315
v 0.42 0.42 -0.105
v 0.42 0.42 0.0
v 0.42 0.42 0.105
v 0.42 0.42 0.21
v 0.42 0.42 0.315
v 0.42 0.42 0.525
v 0.42 0.42 0.42
v 0.42 0.42 0.63
v 0.42 0.525 -0.42
v 0.42 0.525 -0.315
v 0.42 0.525 0.315
v 0.42 0.525 0.42
v 0.42 0.63 -0.42
v 0.42 0.63 -0.315
v 0.42 0.63 0.315
v 0.42 0.63 0.42
v 0.42 0.735 -0.42
v 0.42 0.735 -0.315
v 0.42 0.735 0.315
v 0.42 0.735 0.42
v 0.42 0.84 -0.42
v 0.42 0.84 -0.315
v 0.42 0.84 0.315
v 0.42 0.84 0.42
v 0.42 0.84 -0.21
v 0.42 0.84 -0.105
v 0.42 0.945 -0.21
v 0.42 0.84 0.0
v 0.42 0.84 0.105
v 0.42 0.84 0.21
v 0.42 0.945 0.21
v 0.42 1.05 -0.21
v 0.42 1.05 0.21
v 0.42 1.155 -0.21
v 0.42 1.155 0.21
v 0.42 1.26 -0.21
v 0.42 1.26 0.21
v 0.42 1.26 -0.63
v 0.42 1.26 -0.525
v 0.42 1.365 -0.63
v 0.42 1.26 -0.42
v 0.42 1.26 -0.315
v 0.42 1.26 0.315
v 0.42 1.26 0.42
v 0.42 1.26 0.525
v 0.42 1.26 0.63
v 0.42 1.365 0.63
v 0.42 1.47 -0.63
v 0.42 1.47 0.63
v 0.42 1.575 -0.63
v 0.42 1.575 0.63
v 0.42 1.68 -0.63
v 0.42 1.68 0.63
v 0.42 1.785 -0.63
v 0.42 1.785 0.63
v 0.42 1.89 -0.525
v 0.42 1.89 -0.63
v 0.42 1.89 -0.42
v 0.42 1.89 -0.315
v 0.42 1.89 -0.21
v 0.42 1.89 -0.105
v 0.42 1.89 0.0
v 0.42 1.89 0.105
v 0.42 1.89 0.21
v 0.42 1.89 0.315
v 0.42 1.89 0.42
v 0.42 1.89 0.525
v 0.42 1.89 0.63
v 0.525 0.0 -0.63
v 0.525 0.0 -0.525
v 0.525 0.105 -0.63
v 0.525 0.0 -0.42
v 0.525 0.0 -0.315
v 0.525 0.0 -0.21
v 0.525 0.0 -0.105
v 0.525 0.0 0.0
v 0.525 0.0 0.105
v 0.525 0.0 0.21
v 0.525 0.0 0.315
v 0.525 0.0 0.42
v 0.525 0.0 0.525
v 0.525 0.0 0.63
v 0.525 0.105 0.63
v 0.525 0.21 -0.63
v 0.525 0.21 0.63
v 0.525 0.315 -0.63
v 0.525 0.315 0.63
v 0.525 0.42 -0.525
v 0.525 0.42 -0.63
v 0.525 0.42 -0.42
v 0.525 0.42 -0.315
v 0.525 0.42 -0.21
v 0.525 0.42 -0.105
v 0.525 0.42 0.0
v 0.525 0.42 0.105
v 0.525 0.42 0.21
v 0.525 0.42 0.315
v 0.525 0.42 0.42
v 0.525 0.42 0.525
v 0.525 0.42 0.63
v 0.525 0.84 -0.21
v 0.525 0.945 -0.21
v 0.525 0.945 -0.105
v 0.525 0.84 -0.105
v 0.525 0.945 0.0
v 0.525 0.84 0.0
v 0.525 0.945 0.105
v 0.525 0.84 0.105
v 0.525 0.945 0.21
v 0.525 0.84 0.21
v 0.525 1.05 -0.21
v 0.525 1.05 -0.105
v 0.525 1.05 0.0
v 0.525 1.05 0.105
v 0.525 1.05 0.21
v 0.525 1.155 -0.21
v 0.525 1.155 -0.105
v 0.525 1.155 0.0
v 0.525 1.155 0.105
v 0.525 1.155 0.21
v 0.525 1.26 -0.21
v 0.525 1.26 -0.105
v 0.525 1.26 0.0
v 0.525 1.26 0.105
v 0.525 1.26 0.21
v 0.525 1.26 -0.63
v 0.525 1.26 -0.525
v 0.525 1.365 -0.63
v 0.525 1.26 -0.42
v 0.525 1.26 -0.315
v 0.525 1.26 0.315
v 0.525 1.26 0.42
v 0.525 1.26 0.525
v 0.525 1.26 0.63
v 0.525 1.365 0.63
v 0.525 1.47 -0.63
v 0.525 1.47 0.63
v 0.525 1.575 -0.63
v 0.525 1.575 0.63
v 0.525 1.68 -0.63
v 0.525 1.68 0.63
v 0.525 1.785 -0.63
v 0.525 1.785 0.63
v 0.525 1.89 -0.525
v 0.525 1.89 -0.63
v 0.525 1.89 -0.42
v 0.525 1.89 -0.315
v 0.525 1.89 -0.21
v 0.525 1.89 -0.105
v 0.525 1.89 0.0
v 0.525 1.89 0.105
v 0.525 1.89 0.21
v 0.525 1.89 0.315
v 0.525 1.89 0.42
v 0.525 1.89 0.525
v 0.525 1.89 0.63
v 0.63 0.0 -0.63
v 0.63 0.0 -0.525
v 0.63 0.105 -0.63
v 0.63 0.0 -0.42
v 0.63 0.0 -0.315
v 0.63 0.0 -0.21
v 0.63 0.0 -0.105
v 0.63 0.0 0.0
v 0.63 0.0 0.105
v 0.63 0.0 0.21
v 0.63 0.0 0.315
v 0.63 0.0 0.42
v 0.63 0.0 0.525
v 0.63 0.0 0.63
v 0.63 0.105 0.63
v 0.63 0.21 -0.63
v 0.63 0.21 0.63
v 0.63 0.315 -0.63
v 0.63 0.315 0.63
v 0.63 0.42 -0.525
v 0.63 0.42 -0.63
v 0.63 0.42 -0.42
v 0.63 0.42 -0.315
v 0.63 0.42 -0.21
v 0.63 0.42 -0.105
v 0.63 0.42 0.0
v 0.63 0.42 0.105
v 0.63 0.42 0.21
v 0.63 0.42 0.315
v 0.63 0.42 0.42
v 0.63 0.42 0.525
v 0.63 0.42 0.63
v 0.63 1.26 -0.63
v 0.63 1.26 -0.525
v 0.63 1.365 -0.63
v 0.63 1.26 -0.42
v 0.63 1.26 -0.315
v 0.63 1.26 -0.21
v 0.63 1.26 -0.105
v 0.63 1.26 0.0
v 0.63 1.26 0.105
v 0.63 1.26 0.21
v 0.63 1.26 0.315
v 0.63 1.26 0.42
v 0.63 1.26 0.525
v 0.63 1.26 0.63
v 0.63 1.365 0.63
v 0.63 1.47 -0.63
v 0.63 1.47 0.63
v 0.63 1.575 -0.63
v 0.63 1.575 0.63
v 0.63 1.68 -0.63
v 0.63 1.68 0.63
v 0.63 1.785 -0.63
v 0.63 1.785 0.63
v 0.63 1.89 -0.525
v 0.63 1.89 -0.63
v 0.63 1.89 -0.42
v 0.63 1.89 -0.315
v 0.63 1.89 -0.21
v 0.63 1.89 -0.105
v 0.63 1.89 0.0
v 0.63 1.89 0.105
v 0.63 1.89 0.21
v 0.63 1.89 0.315
v 0.63 1.89 0.42
v 0.63 1.89 0.525
v 0.63 1.89 0.63
v 0.63 0.0 -0.735
v 0.63 0.105 -0.735
v 0.735 0.0 -0.735
v 0.735 0.0 -0.63
v 0.735 0.105 -0.735
v 0.735 0.0 -0.525
v 0.735 0.0 -0.42
v 0.735 0.0 -0.315
v 0.735 0.0 -0.21
v 0.735 0.0 -0.105
v 0.735 0.0 0.0
v 0.735 0.0 0.105
v 0.735 0.0 0.21
v 0.735 0.0 0.315
v 0.735 0.0 0.42
v 0.735 0.0 0.525
v 0.735 0.0 0.63
v 0.63 0.0 0.735
v 0.63 0.105 0.735
v 0.735 0.0 0.735
v 0.735 0.105 0.735
v 0.63 0.21 -0.735
v 0.735 0.21 -0.63
v 0.735 0.21 -0.735
v 0.63 0.21 0.735
v 0.735 0.21 0.735
v 0.735 0.21 0.63
v 0.735 0.315 -0.63
v 0.735 0.315 0.63
v 0.735 0.42 -0.525
v 0.735 0.42 -0.63
v 0.735 0.42 -0.42
v 0.735 0.42 -0.315
v 0.735 0.42 -0.21
v 0.735 0.42 -0.105
v 0.735 0.42 0.0
v 0.735 0.42 0.105
v 0.735 0.42 0.21
v 0.735 0.42 0.315
v 0.735 0.42 0.42
v 0.735 0.42 0.525
v 0.735 0.42 0.63
v 0.735 1.26 -0.63
v 0.735 1.26 -0.525
v 0.735 1.365 -0.63
v 0.735 1.26 -0.42
v 0.735 1.26 -0.315
v 0.735 1.26 -0.21
v 0.735 1.26 -0.105
v 0.735 1.26 0.0
v 0.735 1.26 0.105
v 0.735 1.26 0.21
v 0.735 1.26 0.315
v 0.735 1.26 0.42
v 0.735 1.26 0.525
v 0.735 1.26 0.63
v 0.735 1.365 0.63
v 0.735 1.47 -0.63
v 0.735 1.47 0.63
v 0.735 1.575 -0.63
v 0.735 1.575 0.63
v 0.735 1.68 -0.63
v 0.735 1.68 0.63
v 0.735 1.785 -0.63
v 0.735 1.785 0.63
v 0.735 1.89 -0.525
v 0.735 1.89 -0.63
v 0.735 1.89 -0.42
v 0.735 1.89 -0.315
v 0.735 1.89 -0.21
v 0.735 1.89 -0.105
v 0.735 1.89 0.0
v 0.735 1.89 0.105
v 0.735 1.89 0.21
v 0.735 1.89 0.315
v 0.735 1.89 0.42
v 0.735 1.89 0.525
v 0.735 1.89 0.63
v 0.84 0.0 -0.735
v 0.84 0.0 -0.63
v 0.84 0.105 -0.735
v 0.84 0.0 -0.525
v 0.84 0.0 -0.42
v 0.84 0.0 -0.315
v 0.84 0.0 -0.21
v 0.84 0.0 -0.105
v 0.84 0.0 0.0
v 0.84 0.0 0.105
v 0.84 0.0 0.21
v 0.84 0.0 0.315
v 0.84 0.0 0.42
v 0.84 0.0 0.525
v 0.84 0.0 0.63
v 0.84 0.0 0.735
v 0.84 0.105 0.735
v 0.84 0.21 -0.63
v 0.84 0.21 -0.735
v 0.84 0.21 0.735
v 0.84 0.21 0.63
v 0.84 0.315 -0.63
v 0.84 0.315 0.63
v 0.84 0.42 -0.525
v 0.84 0.42 -0.63
v 0.84 0.42 -0.42
v 0.84 0.42 -0.315
v 0.84 0.42 -0.21
v 0.84 0.42 -0.105
v 0.84 0.42 0.0
v 0.84 0.42 0.105
v 0.84 0.42 0.21
v 0.84 0.42 0.315
v 0.84 0.42 0.42
v 0.84 0.42 0.525
v 0.84 0.42 0.63
v 0.84 1.26 -0.63
v 0.84 1.26 -0.525
v 0.84 1.365 -0.63
v 0.84 1.26 -0.42
v 0.84 1.26 -0.315
v 0.84 1.26 -0.21
v 0.84 1.26 -0.105
v 0.84 1.26 0.0
v 0.84 1.26 0.105
v 0.84 1.26 0.21
v 0.84 1.26 0.315
v 0.84 1.26 0.42
v 0.84 1.26 0.525
v 0.84 1.26 0.63
v 0.84 1.365 0.63
v 0.84 1.47 -0.63
v 0.84 1.47 0.63
v 0.84 1.575 -0.63
v 0.84 1.575 0.63
v 0.84 1.68 -0.63
v 0.84 1.68 0.63
v 0.84 1.785 -0.63
v 0.84 1.785 0.63
v 0.84 1.89 -0.63
v 0.84 1.89 -0.525
v 0.84 1.785 -0.525
v 0.84 1.89 -0.42
v 0.84 1.785 -0.42
v 0.84 1.89 -0.315
v 0.84 1.785 -0.315
v 0.84 1.89 -0.21
v 0.84 1.785 -0.21
v 0.84 1.89 -0.105
v 0.84 1.785 -0.105
v 0.84 1.89 0.0
v 0.84 1.785 0.0
v 0.84 1.89 0.105
v 0.84 1.785 0.105
v 0.84 1.89 0.21
v 0.84 1.785 0.21
v 0.84 1.89 0.315
v 0.84 1.785 0.315
v 0.84 1.89 0.42
v 0.84 1.785 0.42
v 0.84 1.89 0.525
v 0.84 1.785 0.525
v 0.84 1.89 0.63
v 0.945 0.0 -0.735
v 0.945 0.0 -0.63
v 0.945 0.105 -0.735
v 0.945 0.0 -0.525
v 0.945 0.0 -0.42
v 0.945 0.0 -0.315
v 0.945 0.0 -0.21
v 0.945 0.0 -0.105
v 0.945 0.0 0.0
v 0.945 0.0 0.105
v 0.945 0.0 0.21
v 0.945 0.0 0.315
v 0.945 0.0 0.42
v 0.945 0.0 0.525
v 0.945 0.0 0.63
v 0.945 0.0 0.735
v 0.945 0.105 0.735
v 0.945 0.21 -0.63
v 0.945 0.21 -0.735
v 0.945 0.21 0.735
v 0.945 0.21 0.63
v 0.945 0.315 -0.63
v 0.945 0.315 0.63
v 0.945 0.42 -0.525
v 0.945 0.42 -0.63
v 0.945 0.42 -0.42
v 0.945 0.42 -0.315
v 0.945 0.42 -0.21
v 0.945 0.42 -0.105
v 0.945 0.42 0.0
v 0.945 0.42 0.105
v 0.945 0.42 0.21
v 0.945 0.42 0.315
v 0.945 0.42 0.42
v 0.945 0.42 0.525
v 0.945 0.42 0.63
v 0.945 1.26 -0.63
v 0.945 1.365 -0.63
v 0.945 1.365 -0.525
v 0.945 1.26 -0.525
v 0.945 1.26 -0.42
v 0.945 1.26 -0.315
v 0.945 1.26 -0.21
v 0.945 1.26 -0.105
v 0.945 1.26 0.0
v 0.945 1.26 0.105
v 0.945 1.26 0.21
v 0.945 1.26 0.315
v 0.945 1.26 0.42
v 0.945 1.26 0.525
v 0.945 1.365 0.525
v 0.945 1.365 0.63
v 0.945 1.26 0.63
v 0.945 1.47 -0.63
v 0.945 1.47 -0.525
v 0.945 1.47 0.525
v 0.945 1.47 0.63
v 0.945 1.575 -0.63
v 0.945 1.575 -0.525
v 0.945 1.575 0.525
v 0.945 1.575 0.63
v 0.945 1.68 -0.63
v 0.945 1.68 -0.525
v 0.945 1.68 0.525
v 0.945 1.68 0.63
v 0.945 1.785 -0.63
v 0.945 1.785 -0.525
v 0.945 1.785 -0.42
v 0.945 1.785 -0.315
v 0.945 1.785 -0.21
v 0.945 1.785 -0.105
v 0.945 1.785 0.0
v 0.945 1.785 0.105
v 0.945 1.785 0.21
v 0.945 1.785 0.315
v 0.945 1.785 0.42
v 0.945 1.785 0.525
v 0.945 1.785 0.63
v 1.05 0.0 -0.735
v 1.05 0.105 -0.735
v 1.05 0.105 -0.63
v 1.05 0.0 -0.63
v 1.05 0.0 -0.525
v 1.05 0.0 -0.42
v 1.05 0.0 -0.315
v 1.05 0.0 -0.21
v 1.05 0.0 -0.105
v 1.05 0.0 0.0
v 1.05 0.0 0.105
v 1.05 0.0 0.21
v 1.05 0.0 0.315
v 1.05 0.0 0.42
v 1.05 0.0 0.525
v 1.05 0.0 0.63
v 1.05 0.105 0.63
v 1.05 0.105 0.735
v 1.05 0.0 0.735
v 1.05 0.21 -0.735
v 1.05 0.21 -0.63
v 1.05 0.21 0.63
v 1.05 0.21 0.735
v 1.05 0.315 -0.63
v 1.05 0.315 0.63
v 1.05 0.42 -0.525
v 1.05 0.42 -0.63
v 1.05 0.42 -0.42
v 1.05 0.42 -0.315
v 1.05 0.42 -0.21
v 1.05 0.42 -0.105
v 1.05 0.42 0.0
v 1.05 0.42 0.105
v 1.05 0.42 0.21
v 1.05 0.42 0.315
v 1.05 0.42 0.42
v 1.05 0.42 0.525
v 1.05 0.42 0.63
v 1.05 1.26 -0.525
v 1.05 1.365 -0.525
v 1.05 1.365 -0.42
v 1.05 1.26 -0.42
v 1.05 1.26 -0.315
v 1.05 1.26 -0.21
v 1.05 1.26 -0.105
v 1.05 1.26 0.0
v 1.05 1.26 0.105
v 1.05 1.26 0.21
v 1.05 1.26 0.315
v 1.05 1.26 0.42
v 1.05 1.365 0.42
v 1.05 1.365 0.525
v 1.05 1.26 0.525
v 1.05 1.47 -0.525
v 1.05 1.47 -0.42
v 1.05 1.47 0.42
v 1.05 1.47 0.525
v 1.05 1.575 -0.525
v 1.05 1.575 -0.42
v 1.05 1.575 0.42
v 1.05 1.575 0.525
v 1.05 1.68 -0.525
v 1.05 1.68 -0.42
v 1.05 1.68 0.42
v 1.05 1.68 0.525
v 1.05 1.785 -0.525
v 1.05 1.785 -0.42
v 1.05 1.785 -0.315
v 1.05 1.785 -0.21
v 1.05 1.785 -0.105
v 1.05 1.785 0.0
v 1.05 1.785 0.105
v 1.05 1.785 0.21
v 1.05 1.785 0.315
v 1.05 1.785 0.42
v 1.05 1.785 0.525
v 1.155 0.0 -0.63
v 1.155 0.0 -0.525
v 1.155 0.105 -0.63
v 1.155 0.0 -0.42
v 1.155 0.0 -0.315
v 1.155 0.0 -0.21
v 1.155 0.0 -0.105
v 1.155 0.0 0.0
v 1.155 0.0 0.105
v 1.155 0.0 0.21
v 1.155 0.0 0.315
v 1.155 0.0 0.42
v 1.155 0.0 0.525
v 1.155 0.0 0.63
v 1.155 0.105 0.63
v 1.155 0.21 -0.63
v 1.155 0.21 0.63
v 1.155 0.315 -0.63
v 1.155 0.315 0.63
v 1.155 0.42 -0.525
v 1.155 0.42 -0.63
v 1.155 0.42 -0.42
v 1.155 0.42 -0.315
v 1.155 0.42 -0.21
v 1.155 0.42 -0.105
v 1.155 0.42 0.0
v 1.155 0.42 0.105
v 1.155 0.42 0.21
v 1.155 0.42 0.315
v 1.155 0.42 0.42
v 1.155 0.42 0.525
v 1.155 0.42 0.63
v 1.155 1.26 -0.42
v 1.155 1.26 -0.315
v 1.155 1.365 -0.42
v 1.155 1.26 -0.21
v 1.155 1.26 -0.105
v 1.155 1.26 0.0
v 1.155 1.26 0.105
v 1.155 1.26 0.21
v 1.155 1.26 0.315
v 1.155 1.26 0.42
v 1.155 1.365 0.42
v 1.155 1.47 -0.42
v 1.155 1.47 0.42
v 1.155 1.575 -0.42
v 1.155 1.575 0.42
v 1.155 1.68 -0.42
v 1.155 1.68 0.42
v 1.155 1.785 -0.315
v 1.155 1.785 -0.42
v 1.155 1.785 -0.21
v 1.155 1.785 -0.105
v 1.155 1.785 0.0
v 1.155 1.785 0.105
v 1.155 1.785 0.21
v 1.155 1.785 0.315
v 1.155 1.785 0.42
v 1.26 0.0 -0.63
v 1.26 0.105 -0.63
v 1.26 0.105 -0.525
v 1.26 0.0 -0.525
v 1.26 0.105 -0.42
v 1.26 0.0 -0.42
v 1.26 0.105 -0.315
v 1.26 0.0 -0.315
v 1.26 0.105 -0.21
v 1.26 0.0 -0.21
v 1.26 0.105 -0.105
v 1.26 0.0 -0.105
v 1.26 0.105 0.0
v 1.26 0.0 0.0
v 1.26 0.105 0.105
v 1.26 0.0 0.105
v 1.26 0.105 0.21
v 1.26 0.0 0.21
v 1.26 0.105 0.315
v 1.26 0.0 0.315
v 1.26 0.105 0.42
v 1.26 0.0 0.42
v 1.26 0.105 0.525
v 1.26 0.0 0.525
v 1.26 0.105 0.63
v 1.26 0.0 0.63
v 1.26 0.21 -0.63
v 1.26 0.21 -0.525
v 1.26 0.21 -0.42
v 1.26 0.21 -0.315
v 1.26 0.21 -0.21
v 1.26 0.21 -0.105
v 1.26 0.21 0.0
v 1.26 0.21 0.105
v 1.26 0.21 0.21
v 1.26 0.21 0.315
v 1.26 0.21 0.42
v 1.26 0.21 0.525
v 1.26 0.21 0.63
v 1.26 0.315 -0.63
v 1.26 0.315 -0.525
v 1.26 0.315 -0.42
v 1.26 0.315 -0.315
v 1.26 0.315 -0.21
v 1.26 0.315 -0.105
v 1.26 0.315 0.0
v 1.26 0.315 0.105
v 1.26 0.315 0.21
v 1.26 0.315 0.315
v 1.26 0.315 0.42
v 1.26 0.315 0.525
v 1.26 0.315 0.63
v 1.26 0.42 -0.63
v 1.26 0.42 -0.525
v 1.26 0.42 -0.42
v 1.26 0.42 -0.315
v 1.26 0.42 -0.21
v 1.26 0.42 -0.105
v 1.26 0.42 0.0
v 1.26 0.42 0.105
v 1.26 0.42 0.21
v 1.26 0.42 0.315
v 1.26 0.42 0.42
v 1.26 0.42 0.525
v 1.26 0.42 0.63
v 1.26 1.26 -0.42
v 1.26 1.26 -0.315
v 1.26 1.365 -0.42
v 1.26 1.26 -0.21
v 1.26 1.26 -0.105
v 1.26 1.26 0.0
v 1.26 1.26 0.105
v 1.26 1.26 0.21
v 1.26 1.26 0.315
v 1.26 1.26 0.42
v 1.26 1.365 0.42
v 1.26 1.47 -0.42
v 1.26 1.47 0.42
v 1.26 1.575 -0.42
v 1.26 1.575 0.42
v 1.26 1.68 -0.42
v 1.26 1.68 0.42
v 1.26 1.785 -0.315
v 1.26 1.785 -0.42
v 1.26 1.785 -0.21
v 1.26 1.785 -0.105
v 1.26 1.785 0.0
v 1.26 1.785 0.105
v 1.26 1.785 0.21
v 1.26 1.785 0.315
v 1.26 1.785 0.42
v 1.365 1.26 -0.42
v 1.365 1.26 -0.315
v 1.365 1.365 -0.42
v 1.365 1.26 -0.21
v 1.365 1.26 -0.105
v 1.365 1.26 0.0
v 1.365 1.26 0.105
v 1.365 1.26 0.21
v 1.365 1.26 0.315
v 1.365 1.26 0.42
v 1.365 1.365 0.42
v 1.365 1.47 -0.42
v 1.365 1.47 0.42
v 1.365 1.575 -0.42
v 1.365 1.575 0.42
v 1.365 1.68 -0.42
v 1.365 1.68 0.42
v 1.365 1.785 -0.315
v 1.365 1.785 -0.42
v 1.365 1.785 -0.21
v 1.365 1.785 -0.105
v 1.365 1.785 0.0
v 1.365 1.785 0.105
v 1.365 1.785 0.21
v 1.365 1.785 0.315
v 1.365 1.785 0.42
v 1.47 1.26 -0.42
v 1.47 1.365 -0.42
v 1.47 1.365 -0.315
v 1.47 1.26 -0.315
v 1.47 1.26 -0.21
v 1.47 1.26 -0.105
v 1.47 1.26 0.0
v 1.47 1.26 0.105
v 1.47 1.26 0.21
v 1.47 1.26 0.315
v 1.47 1.365 0.315
v 1.47 1.365 0.42
v 1.47 1.26 0.42
v 1.47 1.47 -0.42
v 1.47 1.47 -0.315
v 1.47 1.47 0.315
v 1.47 1.47 0.42
v 1.47 1.575 -0.42
v 1.47 1.575 -0.315
v 1.47 1.575 0.315
v 1.47 1.575 0.42
v 1.47 1.68 -0.42
v 1.47 1.68 -0.315
v 1.47 1.68 0.315
v 1.47 1.68 0.42
v 1.47 1.785 -0.42
v 1.47 1.785 -0.315
v 1.47 1.785 -0.21
v 1.47 1.68 -0.21
v 1.47 1.785 -0.105
v 1.47 1.68 -0.105
v 1.47 1.785 0.0
v 1.47 1.68 0.0
v 1.47 1.785 0.105
v 1.47 1.68 0.105
v 1.47 1.785 0.21
v 1.47 1.68 0.21
v 1.47 1.785 0.315
v 1.47 1.785 0.42
v 1.575 1.26 -0.315
v 1.575 1.26 -0.21
v 1.575 1.365 -0.315
v 1.575 1.26 -0.105
v 1.575 1.26 0.0
v 1.575 1.26 0.105
v 1.575 1.26 0.21
v 1.575 1.26 0.315
v 1.575 1.365 0.315
v 1.575 1.47 -0.315
v 1.575 1.47 0.315
v 1.575 1.575 -0.315
v 1.575 1.575 0.315
v 1.575 1.68 -0.21
v 1.575 1.68 -0.315
v 1.575 1.68 -0.105
v 1.575 1.68 0.0
v 1.575 1.68 0.105
v 1.575 1.68 0.21
v 1.575 1.68 0.315
v 1.68 1.26 -0.315
v 1.68 1.365 -0.315
v 1.68 1.365 -0.21
v 1.68 1.26 -0.21
v 1.68 1.365 -0.105
v 1.68 1.26 -0.105
v 1.68 1.365 0.0
v 1.68 1.26 0.0
v 1.68 1.365 0.105
v 1.68 1.26 0.105
v 1.68 1.365 0.21
v 1.68 1.26 0.21
v 1.68 1.365 0.315
v 1.68 1.26 0.315
v 1.68 1.47 -0.315
v 1.68 1.47 -0.21
v 1.68 1.47 -0.105
v 1.68 1.47 0.0
v 1.68 1.47 0.105
v 1.68 1.47 0.21
v 1.68 1.47 0.315
v 1.68 1.575 -0.315
v 1.68 1.575 -0.21
v 1.68 1.575 -0.105
v 1.68 1.575 0.0
v 1.68 1.575 0.105
v 1.68 1.575 0.21
v 1.68 1.575 0.315
v 1.68 1.68 -0.315
v 1.68 1.68 -0.21
v 1.68 1.68 -0.105
v 1.68 1.68 0.0
v 1.68 1.68 0.105
v 1.68 1.68 0.21
v 1.68 1.68 0.315
usemtl BlackMetal
f 1 2 3 4
f 1 5 6 2
f 1 4 7 5
f 2 8 9 3
f 2 6 10 8
f 8 11 12 9
f 8 10 13 11
f 11 14 15 12
f 11 13 16 14
f 14 16 17 15
f 4 3 18 19
f 4 19 20 7
f 3 9 21 18
f 9 12 22 21
f 12 15 23 22
f 15 17 24 23
f 19 18 25 26
f 19 26 27 20
f 18 21 28 25
f 21 22 29 28
f 22 23 30 29
f 23 24 31 30
f 26 25 32 33
f 33 32 34 35
f 26 33 35 27
f 25 28 36 32
f 32 36 37 34
f 28 29 38 36
f 36 38 39 37
f 29 30 40 38
f 38 40 41 39
f 30 31 41 40
f 5 42 43 6
f 5 7 44 42
f 6 43 45 10
f 10 45 46 13
f 13 46 47 16
f 16 47 48 17
f 7 20 49 44
f 17 48 50 24
f 20 27 51 49
f 24 50 52 31
f 35 34 53 54
f 27 35 54 51
f 34 37 55 53
f 37 39 56 55
f 39 41 57 56
f 31 52 57 41
f 58 42 44 59
f 58 60 61 42
f 58 59 62 60
f 42 61 63 43
f 43 63 64 45
f 45 64 65 46
f 46 65 66 47
f 47 67 68 48
f 47 66 69 67
f 67 69 70 68
f 59 44 49 71
f 59 71 72 62
f 48 68 73 50
f 68 70 74 73
f 71 49 51 75
f 71 75 76 72
f 50 73 77 52
f 73 74 78 77
f 75 51 54 79
f 79 54 80 81
f 75 79 81 76
f 54 53 82 80
f 53 55 83 82
f 55 56 84 83
f 56 57 85 84
f 52 77 86 57
f 57 86 87 85
f 77 78 87 86
f 60 88 89 61
f 60 62 90 88
f 61 89 91 63
f 63 91 92 64
f 64 92 93 65
f 65 93 94 66
f 66 94 95 69
f 69 95 96 70
f 62 72 97 90
f 70 96 98 74
f 72 76 99 97
f 74 98 100 78
f 81 80 101 102
f 76 81 102 99
f 80 82 103 101
f 82 83 104 103
f 83 84 105 104
f 84 85 106 105
f 85 87 107 106
f 78 100 107 87
f 108 109 88 110
f 108 111 112 109
f 108 110 113 111
f 109 114 89 88
f 109 112 115 114
f 114 116 91 89
f 114 115 117 116
f 116 118 92 91
f 116 117 119 118
f 118 120 93 92
f 118 119 121 120
f 120 122 94 93
f 120 121 123 122
f 122 124 95 94
f 122 123 125 124
f 124 126 127 95
f 124 125 128 126
f 126 128 129 127
f 110 88 90 130
f 110 130 131 113
f 95 127 132 96
f 127 129 133 132
f 130 90 97 134
f 130 134 135 131
f 96 132 136 98
f 132 133 137 136
f 134 97 99 138
f 134 138 139 135
f 98 136 140 100
f 136 137 141 140
f 138 99 102 142
f 142 102 143 144
f 138 142 144 139
f 102 101 145 143
f 101 103 146 145
f 103 104 147 146
f 104 105 148 147
f 105 106 149 148
f 106 107 150 149
f 100 140 151 107
f 107 151 152 150
f 140 141 152 151
f 111 153 154 112
f 111 113 155 153
f 112 154 156 115
f 115 156 157 117
f 117 157 158 119
f 119 158 159 121
f 121 159 160 123
f 123 160 161 125
f 125 161 162 128
f 128 162 163 129
f 113 131 164 155
f 129 163 165 133
f 131 135 166 164
f 133 165 167 137
f 135 139 168 166
f 137 167 169 141
f 144 143 170 171
f 139 144 171 168
f 143 145 172 170
f 145 146 173 172
f 146 147 174 173
f 147 148 175 174
f 148 149 176 175
f 149 150 177 176
f 150 152 178 177
f 141 169 178 152
f 179 180 181 182
f 179 183 184 180
f 179 182 185 183
f 180 186 187 181
f 180 184 188 186
f 186 189 190 187
f 186 188 191 189
f 189 192 193 190
f 189 191 194 192
f 192 195 196 193
f 192 194 197 195
f 195 198 199 196
f 195 197 200 198
f 198 201 202 199
f 198 200 203 201
f 201 204 205 202
f 201 203 206 204
f 204 207 208 205
f 204 206 209 207
f 207 210 211 208
f 207 209 212 210
f 210 213 214 211
f 210 212 215 213
f 213 216 217 214
f 213 215 218 216
f 216 218 219 217
f 182 181 220 221
f 182 221 222 185
f 181 187 223 220
f 187 190 224 223
f 190 193 225 224
f 193 196 226 225
f 196 199 227 226
f 199 202 228 227
f 202 205 229 228
f 205 208 230 229
f 208 211 231 230
f 211 214 232 231
f 214 217 233 232
f 217 219 234 233
f 221 220 235 236
f 221 236 237 222
f 220 223 238 235
f 223 224 239 238
f 224 225 240 239
f 225 226 241 240
f 226 227 242 241
f 227 228 243 242
f 228 229 244 243
f 229 230 245 244
f 230 231 246 245
f 231 232 247 246
f 232 233 248 247
f 233 234 249 248
f 236 235 250 251
f 251 250 252 253
f 236 251 253 237
f 235 238 254 250
f 250 254 255 252
f 238 239 256 254
f 254 256 257 255
f 239 240 258 256
f 256 258 259 257
f 240 241 260 258
f 258 260 261 259
f 241 242 262 260
f 260 262 263 261
f 242 243 264 262
f 262 264 265 263
f 243 244 266 264
f 264 266 267 265
f 244 245 268 266
f 266 268 269 267
f 245 246 270 268
f 268 270 271 269
f 246 247 272 270
f 270 272 273 271
f 247 248 274 272
f 272 274 275 273
f 248 249 275 274
f 153 276 277 154
f 153 155 278 276
f 154 277 279 156
f 156 279 280 157
f 157 280 281 158
f 158 281 282 159
f 159 282 283 160
f 160 283 284 161
f 161 284 285 162
f 162 285 286 163
f 155 164 287 278
f 163 286 288 165
f 164 166 289 287
f 165 288 290 167
f 166 168 291 289
f 167 290 292 169
f 171 170 293 294
f 168 171 294 291
f 170 172 295 293
f 172 173 296 295
f 173 174 297 296
f 174 175 298 297
f 175 176 299 298
f 176 177 300 299
f 177 178 301 300
f 169 292 301 178
f 183 302 303 184
f 183 185 304 302
f 184 303 305 188
f 188 305 306 191
f 191 306 307 194
f 194 307 308 197
f 197 308 309 200
f 200 309 310 203
f 203 310 311 206
f 206 311 312 209
f 209 312 313 212
f 212 313 314 215
f 215 314 315 218
f 218 315 316 219
f 185 222 317 304
f 219 316 318 234
f 222 237 319 317
f 234 318 320 249
f 253 252 321 322
f 237 253 322 319
f 252 255 323 321
f 255 257 324 323
f 257 259 325 324
f 259 261 326 325
f 261 263 327 326
f 263 265 328 327
f 265 267 329 328
f 267 269 330 329
f 269 271 331 330
f 271 273 332 331
f 273 275 333 332
f 249 320 333 275
f 276 334 335 277
f 276 278 336 334
f 277 335 337 279
f 279 337 338 280
f 280 338 339 281
f 281 339 340 282
f 282 340 341 283
f 283 341 342 284
f 284 342 343 285
f 285 343 344 286
f 278 287 345 336
f 286 344 346 288
f 287 289 347 345
f 288 346 348 290
f 289 291 349 347
f 290 348 350 292
f 294 293 351 352
f 291 294 352 349
f 293 295 353 351
f 295 296 354 353
f 296 297 355 354
f 297 298 356 355
f 298 299 357 356
f 299 300 358 357
f 300 301 359 358
f 292 350 359 301
f 360 302 304 361
f 360 362 363 302
f 360 361 364 362
f 302 363 365 303
f 303 365 366 305
f 305 366 367 306
f 306 367 368 307
f 307 368 369 308
f 308 369 370 309
f 309 370 371 310
f 310 371 372 311
f 311 372 373 312
f 312 373 374 313
f 313 374 375 314
f 314 375 376 315
f 315 377 378 316
f 315 376 379 377
f 377 379 380 378
f 361 304 317 381
f 381 317 382 383
f 361 381 383 364
f 316 378 384 318
f 318 384 385 386
f 378 380 385 384
f 317 319 387 382
f 318 386 388 320
f 322 321 389 390
f 319 322 390 387
f 321 323 391 389
f 323 324 392 391
f 324 325 393 392
f 325 326 394 393
f 326 327 395 394
f 327 328 396 395
f 328 329 397 396
f 329 330 398 397
f 330 331 399 398
f 331 332 400 399
f 332 333 401 400
f 320 388 401 333
f 402 334 336 403
f 402 404 405 334
f 402 403 406 404
f 334 405 407 335
f 335 407 408 337
f 337 408 409 338
f 338 409 410 339
f 339 410 411 340
f 340 411 412 341
f 341 412 413 342
f 342 413 414 343
f 343 415 416 344
f 343 414 417 415
f 415 417 418 416
f 403 336 345 419
f 403 419 420 406
f 344 416 421 346
f 416 418 422 421
f 419 345 347 423
f 419 423 424 420
f 346 421 425 348
f 421 422 426 425
f 423 347 349 427
f 423 427 428 424
f 348 425 429 350
f 425 426 430 429
f 427 349 352 431
f 431 352 432 433
f 427 431 433 428
f 352 351 434 432
f 351 353 435 434
f 353 354 436 435
f 354 355 437 436
f 355 356 438 437
f 356 357 439 438
f 357 358 440 439
f 358 359 441 440
f 350 429 442 359
f 359 442 443 441
f 429 430 443 442
f 362 444 445 363
f 362 364 446 444
f 363 445 447 365
f 365 447 448 366
f 366 448 449 367
f 367 449 450 368
f 368 450 451 369
f 369 451 452 370
f 370 452 453 371
f 371 453 454 372
f 372 454 455 373
f 373 455 456 374
f 374 456 457 375
f 375 457 458 376
f 376 458 459 379
f 379 459 460 380
f 383 382 461 462
f 364 383 462 446
f 386 385 463 464
f 380 460 463 385
f 382 387 465 461
f 386 464 466 388
f 390 389 467 468
f 387 390 468 465
f 389 391 469 467
f 391 392 470 469
f 392 393 471 470
f 393 394 472 471
f 394 395 473 472
f 395 396 474 473
f 396 397 475 474
f 397 398 476 475
f 398 399 477 476
f 399 400 478 477
f 400 401 479 478
f 388 466 479 401
f 480 404 406 481
f 480 482 483 404
f 480 481 484 482
f 404 483 485 405
f 405 485 486 407
f 407 486 487 408
f 408 487 488 409
f 409 488 489 410
f 410 489 490 411
f 411 490 491 412
f 412 491 492 413
f 413 492 493 414
f 414 493 494 417
f 417 495 496 418
f 417 494 497 495
f 495 497 498 496
f 481 406 420 499
f 481 499 500 484
f 418 496 501 422
f 496 498 502 501
f 499 420 424 503
f 499 503 504 500
f 422 501 505 426
f 501 502 506 505
f 503 424 428 507
f 503 507 508 504
f 426 505 509 430
f 505 506 510 509
f 507 428 433 511
f 511 433 512 513
f 507 511 513 508
f 433 432 514 512
f 432 434 515 514
f 434 435 516 515
f 435 436 517 516
f 436 437 518 517
f 437 438 519 518
f 438 439 520 519
f 439 440 521 520
f 440 441 522 521
f 441 443 523 522
f 430 509 524 443
f 443 524 525 523
f 509 510 525 524
f 444 526 527 445
f 444 446 528 526
f 445 527 529 447
f 447 529 530 448
f 448 530 531 449
f 449 531 532 450
f 450 532 533 451
f 451 533 534 452
f 452 534 535 453
f 453 535 536 454
f 454 536 537 455
f 455 537 538 456
f 456 538 539 457
f 457 539 540 458
f 458 540 541 459
f 459 541 542 460
f 462 461 543 544
f 446 462 544 528
f 464 463 545 546
f 460 542 545 463
f 461 465 547 543
f 464 546 548 466
f 468 467 549 550
f 465 468 550 547
f 467 469 551 549
f 469 470 552 551
f 470 471 553 552
f 471 472 554 553
f 472 473 555 554
f 473 474 556 555
f 474 475 557 556
f 475 476 558 557
f 476 477 559 558
f 477 478 560 559
f 478 479 561 560
f 466 548 561 479
f 482 562 563 483
f 482 484 564 562
f 483 563 565 485
f 485 565 566 486
f 486 566 567 487
f 487 567 568 488
f 488 568 569 489
f 489 569 570 490
f 490 570 571 491
f 491 571 572 492
f 492 572 573 493
f 493 573 574 494
f 494 574 575 497
f 497 575 576 498
f 484 500 577 564
f 498 576 578 502
f 500 504 579 577
f 502 578 580 506
f 504 508 581 579
f 506 580 582 510
f 508 513 583 581
f 510 582 584 525
f 513 512 585 586
f 586 585 587 588
f 513 586 588 583
f 512 514 589 585
f 585 589 590 587
f 514 515 591 589
f 589 591 592 590
f 515 516 593 591
f 591 593 594 592
f 516 517 595 593
f 593 595 596 594
f 517 518 597 595
f 595 597 598 596
f 518 519 599 597
f 597 599 600 598
f 519 520 601 599
f 599 601 602 600
f 520 521 603 601
f 601 603 604 602
f 521 522 605 603
f 603 605 606 604
f 522 523 607 605
f 605 607 608 606
f 523 525 609 607
f 607 609 610 608
f 525 584 610 609
f 611 612 613 614
f 526 611 614 527
f 526 528 612 611
f 527 614 615 529
f 529 615 616 530
f 530 616 617 531
f 531 617 618 532
f 532 618 619 533
f 533 619 620 534
f 534 620 621 535
f 535 621 622 536
f 536 622 623 537
f 537 623 624 538
f 538 624 625 539
f 539 625 626 540
f 626 627 628 629
f 540 626 629 541
f 541 629 628 542
f 612 630 631 613
f 544 543 631 630
f 528 544 630 612
f 627 632 633 628
f 546 545 633 632
f 542 628 633 545
f 543 547 634 631
f 546 632 635 548
f 550 549 636 637
f 547 550 637 634
f 549 551 638 636
f 551 552 639 638
f 552 553 640 639
f 553 554 641 640
f 554 555 642 641
f 555 556 643 642
f 556 557 644 643
f 557 558 645 644
f 558 559 646 645
f 559 560 647 646
f 560 561 648 647
f 548 635 648 561
f 562 649 650 563
f 562 564 651 649
f 563 650 652 565
f 565 652 653 566
f 566 653 654 567
f 567 654 655 568
f 568 655 656 569
f 569 656 657 570
f 570 657 658 571
f 571 658 659 572
f 572 659 660 573
f 573 660 661 574
f 574 661 662 575
f 575 662 663 576
f 564 577 664 651
f 576 663 665 578
f 577 579 666 664
f 578 665 667 580
f 579 581 668 666
f 580 667 669 582
f 581 583 670 668
f 582 669 671 584
f 588 587 672 673
f 583 588 673 670
f 587 590 674 672
f 590 592 675 674
f 592 594 676 675
f 594 596 677 676
f 596 598 678 677
f 598 600 679 678
f 600 602 680 679
f 602 604 681 680
f 604 606 682 681
f 606 608 683 682
f 608 610 684 683
f 584 671 684 610
f 614 685 686 615
f 614 613 687 685
f 615 686 688 616
f 616 688 689 617
f 617 689 690 618
f 618 690 691 619
f 619 691 692 620
f 620 692 693 621
f 621 693 694 622
f 622 694 695 623
f 623 695 696 624
f 624 696 697 625
f 625 697 698 626
f 626 698 699 627
f 613 631 700 687
f 627 699 701 632
f 631 634 702 700
f 632 701 703 635
f 637 636 704 705
f 634 637 705 702
f 636 638 706 704
f 638 639 707 706
f 639 640 708 707
f 640 641 709 708
f 641 642 710 709
f 642 643 711 710
f 643 644 712 711
f 644 645 713 712
f 645 646 714 713
f 646 647 715 714
f 647 648 716 715
f 635 703 716 648
f 717 718 719 720
f 717 721 722 718
f 717 720 723 721
f 718 724 725 719
f 718 722 726 724
f 724 727 728 725
f 724 726 729 727
f 727 730 731 728
f 727 729 732 730
f 730 732 733 731
f 720 719 734 735
f 720 735 736 723
f 719 725 737 734
f 725 728 738 737
f 728 731 739 738
f 731 733 740 739
f 735 734 741 742
f 735 742 743 736
f 734 737 744 741
f 737 738 745 744
f 738 739 746 745
f 739 740 747 746
f 742 741 655 654
f 742 654 748 743
f 741 744 656 655
f 744 745 657 656
f 745 746 658 657
f 746 747 749 658
f 649 750 751 650
f 649 651 752 750
f 650 751 753 652
f 652 753 754 653
f 653 754 748 654
f 658 749 755 659
f 659 755 756 660
f 660 756 757 661
f 661 757 758 662
f 662 758 759 663
f 651 664 760 752
f 663 759 761 665
f 664 666 762 760
f 665 761 763 667
f 666 668 764 762
f 667 763 765 669
f 668 670 766 764
f 669 765 767 671
f 673 672 768 769
f 670 673 769 766
f 672 674 770 768
f 674 675 771 770
f 675 676 772 771
f 676 677 773 772
f 677 678 774 773
f 678 679 775 774
f 679 680 776 775
f 680 681 777 776
f 681 682 778 777
f 682 683 779 778
f 683 684 780 779
f 671 767 780 684
f 685 781 782 686
f 685 687 783 781
f 686 782 784 688
f 688 784 785 689
f 689 785 786 690
f 690 786 787 691
f 691 787 788 692
f 692 788 789 693
f 693 789 790 694
f 694 790 791 695
f 695 791 792 696
f 696 792 793 697
f 697 793 794 698
f 698 794 795 699
f 687 700 796 783
f 699 795 797 701
f 700 702 798 796
f 701 797 799 703
f 705 704 800 801
f 702 705 801 798
f 704 706 802 800
f 707 708 803 804
f 708 709 805 803
f 709 710 806 805
f 710 711 807 806
f 711 712 808 807
f 712 713 809 808
f 714 715 810 811
f 715 716 812 810
f 703 799 812 716
f 706 707 813 814
f 707 804 815 813
f 706 814 816 802
f 713 714 817 818
f 714 811 819 817
f 713 818 820 809
f 814 813 821 822
f 813 815 823 821
f 814 822 824 816
f 818 817 825 826
f 817 819 827 825
f 818 826 828 820
f 822 821 829 830
f 821 823 831 829
f 822 830 832 824
f 826 825 833 834
f 825 827 835 833
f 826 834 836 828
f 830 829 837 838
f 838 837 839 840
f 829 831 839 837
f 830 838 840 832
f 834 833 841 842
f 842 841 843 844
f 833 835 843 841
f 834 842 844 836
f 721 845 846 722
f 721 723 847 845
f 722 846 848 726
f 726 848 849 729
f 729 849 850 732
f 732 850 851 733
f 723 736 852 847
f 733 851 853 740
f 736 743 854 852
f 740 853 855 747
f 743 748 856 854
f 747 855 857 749
f 750 858 859 751
f 750 752 860 858
f 751 859 861 753
f 753 861 862 754
f 754 862 856 748
f 749 857 863 755
f 755 863 864 756
f 756 864 865 757
f 757 865 866 758
f 758 866 867 759
f 752 760 868 860
f 759 867 869 761
f 760 762 870 868
f 761 869 871 763
f 762 764 872 870
f 763 871 873 765
f 764 766 874 872
f 765 873 875 767
f 769 768 876 877
f 766 769 877 874
f 768 770 878 876
f 770 771 879 878
f 771 772 880 879
f 772 773 881 880
f 773 774 882 881
f 774 775 883 882
f 775 776 884 883
f 776 777 885 884
f 777 778 886 885
f 778 779 887 886
f 779 780 888 887
f 767 875 888 780
f 781 889 890 782
f 781 783 891 889
f 782 890 892 784
f 784 892 893 785
f 785 893 894 786
f 786 894 895 787
f 787 895 896 788
f 788 896 897 789
f 789 897 898 790
f 790 898 899 791
f 791 899 900 792
f 792 900 901 793
f 793 901 902 794
f 794 902 903 795
f 783 796 904 891
f 795 903 905 797
f 796 798 906 904
f 797 905 907 799
f 801 800 908 909
f 798 801 909 906
f 800 802 910 908
f 811 810 911 912
f 810 812 913 911
f 799 907 913 812
f 802 816 914 910
f 804 803 915 815
f 803 805 916 915
f 805 806 917 916
f 806 807 918 917
f 807 808 919 918
f 808 809 820 919
f 811 912 920 819
f 816 824 921 914
f 815 915 922 823
f 915 916 923 922
f 916 917 924 923
f 917 918 925 924
f 918 919 926 925
f 919 820 828 926
f 819 920 927 827
f 824 832 928 921
f 823 922 929 831
f 922 923 930 929
f 923 924 931 930
f 924 925 932 931
f 925 926 933 932
f 926 828 836 933
f 827 927 934 835
f 840 839 935 936
f 832 840 936 928
f 831 929 845 839
f 929 930 846 845
f 930 931 848 846
f 931 932 849 848
f 932 933 850 849
f 933 836 844 850
f 844 843 937 938
f 835 934 937 843
f 839 845 847 939
f 839 939 940 935
f 850 844 941 851
f 844 938 942 941
f 939 847 852 943
f 939 943 944 940
f 851 941 945 853
f 941 942 946 945
f 943 852 854 947
f 943 947 948 944
f 853 945 949 855
f 945 946 950 949
f 947 854 856 862
f 947 862 951 948
f 855 949 863 857
f 949 950 952 863
f 858 953 954 859
f 858 860 955 953
f 859 954 956 861
f 861 956 951 862
f 863 952 957 864
f 864 957 958 865
f 865 958 959 866
f 866 959 960 867
f 860 868 961 955
f 867 960 962 869
f 868 870 963 961
f 869 962 964 871
f 870 872 965 963
f 871 964 966 873
f 872 874 967 965
f 873 966 968 875
f 877 876 969 970
f 874 877 970 967
f 876 878 971 969
f 878 879 972 971
f 879 880 973 972
f 880 881 974 973
f 881 882 975 974
f 882 883 976 975
f 883 884 977 976
f 884 885 978 977
f 885 886 979 978
f 886 887 980 979
f 887 888 981 980
f 875 968 981 888
f 889 982 983 890
f 889 891 984 982
f 890 983 985 892
f 892 985 986 893
f 893 986 987 894
f 894 987 988 895
f 895 988 989 896
f 896 989 990 897
f 897 990 991 898
f 898 991 992 899
f 899 992 993 900
f 900 993 994 901
f 901 994 995 902
f 902 995 996 903
f 891 904 997 984
f 903 996 998 905
f 904 906 999 997
f 905 998 1000 907
f 909 908 1001 1002
f 906 909 1002 999
f 908 910 1003 1001
f 912 911 1004 1005
f 911 913 1006 1004
f 907 1000 1006 913
f 910 914 1007 1003
f 912 1005 1008 920
f 914 921 1009 1007
f 920 1008 1010 927
f 921 928 1011 1009
f 927 1010 1012 934
f 936 935 1013 1014
f 928 936 1014 1011
f 938 937 1015 1016
f 934 1012 1015 937
f 935 940 1017 1013
f 938 1016 1018 942
f 940 944 1019 1017
f 942 1018 1020 946
f 944 948 1021 1019
f 946 1020 1022 950
f 948 951 1023 1021
f 950 1022 1024 952
f 953 1025 1026 954
f 953 955 1027 1025
f 954 1026 1028 956
f 956 1028 1023 951
f 952 1024 1029 957
f 957 1029 1030 958
f 958 1030 1031 959
f 959 1031 1032 960
f 955 961 1033 1027
f 960 1032 1034 962
f 961 963 1035 1033
f 962 1034 1036 964
f 963 965 1037 1035
f 964 1036 1038 966
f 965 967 1039 1037
f 966 1038 1040 968
f 970 969 1041 1042
f 967 970 1042 1039
f 969 971 1043 1041
f 971 972 1044 1043
f 972 973 1045 1044
f 973 974 1046 1045
f 974 975 1047 1046
f 975 976 1048 1047
f 976 977 1049 1048
f 977 978 1050 1049
f 978 979 1051 1050
f 979 980 1052 1051
f 980 981 1053 1052
f 968 1040 1053 981
f 982 1054 1055 983
f 982 984 1056 1054
f 983 1055 1057 985
f 985 1057 1058 986
f 986 1058 1059 987
f 987 1059 1060 988
f 988 1060 1061 989
f 989 1061 1062 990
f 990 1062 1063 991
f 991 1063 1064 992
f 992 1064 1065 993
f 993 1065 1066 994
f 994 1066 1067 995
f 995 1067 1068 996
f 984 997 1069 1056
f 996 1068 1070 998
f 997 999 1071 1069
f 998 1070 1072 1000
f 1002 1001 1073 1074
f 999 1002 1074 1071
f 1001 1003 1075 1073
f 1005 1004 1076 1077
f 1004 1006 1078 1076
f 1000 1072 1078 1006
f 1003 1007 1079 1075
f 1005 1077 1080 1008
f 1007 1009 1081 1079
f 1008 1080 1082 1010
f 1009 1011 1083 1081
f 1010 1082 1084 1012
f 1014 1013 1085 1086
f 1011 1014 1086 1083
f 1016 1015 1087 1088
f 1012 1084 1087 1015
f 1013 1017 1089 1085
f 1016 1088 1090 1018
f 1017 1019 1091 1089
f 1018 1090 1092 1020
f 1019 1021 1093 1091
f 1020 1092 1094 1022
f 1021 1023 1095 1093
f 1022 1094 1096 1024
f 1025 1097 1098 1026
f 1025 1027 1099 1097
f 1026 1098 1100 1028
f 1028 1100 1095 1023
f 1024 1096 1101 1029
f 1029 1101 1102 1030
f 1030 1102 1103 1031
f 1031 1103 1104 1032
f 1027 1033 1105 1099
f 1032 1104 1106 1034
f 1033 1035 1107 1105
f 1034 1106 1108 1036
f 1035 1037 1109 1107
f 1036 1108 1110 1038
f 1037 1039 1111 1109
f 1038 1110 1112 1040
f 1042 1041 1113 1114
f 1039 1042 1114 1111
f 1041 1043 1115 1113
f 1043 1044 1116 1115
f 1044 1045 1117 1116
f 1045 1046 1118 1117
f 1046 1047 1119 1118
f 1047 1048 1120 1119
f 1048 1049 1121 1120
f 1049 1050 1122 1121
f 1050 1051 1123 1122
f 1051 1052 1124 1123
f 1052 1053 1125 1124
f 1040 1112 1125 1053
f 1054 1126 1127 1055
f 1054 1056 1128 1126
f 1055 1127 1129 1057
f 1057 1129 1130 1058
f 1058 1130 1131 1059
f 1059 1131 1132 1060
f 1060 1132 1133 1061
f 1061 1133 1134 1062
f 1062 1134 1135 1063
f 1063 1135 1136 1064
f 1064 1136 1137 1065
f 1065 1137 1138 1066
f 1066 1138 1139 1067
f 1067 1139 1140 1068
f 1056 1069 1141 1128
f 1068 1140 1142 1070
f 1069 1071 1143 1141
f 1070 1142 1144 1072
f 1074 1073 1145 1146
f 1071 1074 1146 1143
f 1073 1075 1147 1145
f 1077 1076 1148 1149
f 1076 1078 1150 1148
f 1072 1144 1150 1078
f 1075 1079 1151 1147
f 1077 1149 1152 1080
f 1079 1081 1153 1151
f 1080 1152 1154 1082
f 1081 1083 1155 1153
f 1082 1154 1156 1084
f 1086 1085 1157 1158
f 1083 1086 1158 1155
f 1088 1087 1159 1160
f 1084 1156 1159 1087
f 1085 1089 1161 1157
f 1088 1160 1162 1090
f 1089 1091 1163 1161
f 1090 1162 1164 1092
f 1091 1093 1165 1163
f 1092 1164 1166 1094
f 1093 1095 1167 1165
f 1094 1166 1168 1096
f 1097 1169 1170 1098
f 1097 1099 1171 1169
f 1098 1170 1172 1100
f 1100 1172 1167 1095
f 1096 1168 1173 1101
f 1101 1173 1174 1102
f 1102 1174 1175 1103
f 1103 1175 1176 1104
f 1099 1105 1177 1171
f 1104 1176 1178 1106
f 1105 1107 1179 1177
f 1106 1178 1180 1108
f 1107 1109 1181 1179
f 1108 1180 1182 1110
f 1109 1111 1183 1181
f 1110 1182 1184 1112
f 1114 1113 1185 1186
f 1111 1114 1186 1183
f 1113 1115 1187 1185
f 1115 1116 1188 1187
f 1116 1117 1189 1188
f 1117 1118 1190 1189
f 1118 1119 1191 1190
f 1119 1120 1192 1191
f 1120 1121 1193 1192
f 1121 1122 1194 1193
f 1122 1123 1195 1194
f 1123 1124 1196 1195
f 1124 1125 1197 1196
f 1112 1184 1197 1125
f 1126 1198 1199 1127
f 1126 1128 1200 1198
f 1127 1199 1201 1129
f 1129 1201 1202 1130
f 1130 1202 1203 1131
f 1131 1203 1204 1132
f 1132 1204 1205 1133
f 1133 1205 1206 1134
f 1134 1206 1207 1135
f 1135 1207 1208 1136
f 1136 1208 1209 1137
f 1137 1209 1210 1138
f 1138 1210 1211 1139
f 1139 1211 1212 1140
f 1128 1141 1213 1200
f 1140 1212 1214 1142
f 1141 1143 1215 1213
f 1142 1214 1216 1144
f 1146 1145 1217 1218
f 1143 1146 1218 1215
f 1145 1147 1219 1217
f 1149 1148 1220 1221
f 1148 1150 1222 1220
f 1144 1216 1222 1150
f 1147 1151 1223 1219
f 1224 1225 1226 1227
f 1227 1226 1228 1229
f 1229 1228 1230 1231
f 1231 1230 1232 1233
f 1233 1232 1234 1235
f 1235 1234 1236 1237
f 1149 1221 1238 1152
f 1151 1153 1239 1223
f 1225 1240 1241 1226
f 1226 1241 1242 1228
f 1228 1242 1243 1230
f 1230 1243 1244 1232
f 1232 1244 1245 1234
f 1234 1245 1246 1236
f 1152 1238 1247 1154
f 1153 1155 1248 1239
f 1240 1249 1250 1241
f 1241 1250 1251 1242
f 1242 1251 1252 1243
f 1243 1252 1253 1244
f 1244 1253 1254 1245
f 1245 1254 1255 1246
f 1154 1247 1256 1156
f 1158 1157 1257 1258
f 1155 1158 1258 1248
f 1249 1257 1259 1250
f 1250 1259 1260 1251
f 1251 1260 1261 1252
f 1252 1261 1262 1253
f 1253 1262 1263 1254
f 1254 1263 1264 1255
f 1160 1159 1265 1264
f 1156 1256 1265 1159
f 1257 1266 1267 1259
f 1157 1161 1266 1257
f 1263 1268 1269 1264
f 1160 1264 1269 1162
f 1266 1270 1271 1267
f 1161 1163 1270 1266
f 1268 1272 1273 1269
f 1162 1269 1273 1164
f 1270 1274 1275 1271
f 1163 1165 1274 1270
f 1272 1276 1277 1273
f 1164 1273 1277 1166
f 1274 1278 1279 1275
f 1165 1167 1278 1274
f 1276 1280 1281 1277
f 1166 1277 1281 1168
f 1169 1282 1283 1170
f 1169 1171 1284 1282
f 1170 1283 1285 1172
f 1172 1285 1278 1167
f 1168 1281 1286 1173
f 1173 1286 1287 1174
f 1174 1287 1288 1175
f 1175 1288 1289 1176
f 1171 1177 1290 1284
f 1176 1289 1291 1178
f 1177 1179 1292 1290
f 1178 1291 1293 1180
f 1179 1181 1294 1292
f 1180 1293 1295 1182
f 1181 1183 1296 1294
f 1182 1295 1297 1184
f 1186 1185 1298 1299
f 1183 1186 1299 1296
f 1185 1187 1300 1298
f 1187 1188 1301 1300
f 1188 1189 1302 1301
f 1189 1190 1303 1302
f 1190 1191 1304 1303
f 1191 1192 1305 1304
f 1192 1193 1306 1305
f 1193 1194 1307 1306
f 1194 1195 1308 1307
f 1195 1196 1309 1308
f 1196 1197 1310 1309
f 1184 1297 1310 1197
f 1198 1311 1312 1199
f 1198 1200 1313 1311
f 1199 1312 1314 1201
f 1201 1314 1315 1202
f 1202 1315 1316 1203
f 1203 1316 1317 1204
f 1204 1317 1318 1205
f 1205 1318 1319 1206
f 1206 1319 1320 1207
f 1207 1320 1321 1208
f 1208 1321 1322 1209
f 1209 1322 1323 1210
f 1210 1323 1324 1211
f 1211 1324 1325 1212
f 1200 1213 1326 1313
f 1212 1325 1327 1214
f 1213 1215 1328 1326
f 1214 1327 1329 1216
f 1218 1217 1330 1331
f 1215 1218 1331 1328
f 1217 1219 1332 1330
f 1224 1227 1333 1334
f 1227 1229 1335 1333
f 1229 1231 1336 1335
f 1231 1233 1337 1336
f 1233 1235 1338 1337
f 1235 1237 1339 1338
f 1221 1220 1340 1341
f 1220 1222 1342 1340
f 1216 1329 1342 1222
f 1332 1343 1344 1334
f 1224 1334 1344 1225
f 1219 1223 1343 1332
f 1339 1345 1346 1341
f 1221 1341 1346 1238
f 1237 1236 1345 1339
f 1343 1347 1348 1344
f 1225 1344 1348 1240
f 1223 1239 1347 1343
f 1345 1349 1350 1346
f 1238 1346 1350 1247
f 1236 1246 1349 1345
f 1347 1351 1352 1348
f 1240 1348 1352 1249
f 1239 1248 1351 1347
f 1349 1353 1354 1350
f 1247 1350 1354 1256
f 1246 1255 1353 1349
f 1351 1355 1356 1352
f 1258 1257 1356 1355
f 1249 1352 1356 1257
f 1248 1258 1355 1351
f 1353 1357 1358 1354
f 1264 1265 1358 1357
f 1256 1354 1358 1265
f 1255 1264 1357 1353
f 1259 1359 1360 1260
f 1259 1267 1361 1359
f 1260 1360 1362 1261
f 1261 1362 1363 1262
f 1262 1363 1364 1263
f 1263 1364 1365 1268
f 1267 1271 1366 1361
f 1268 1365 1367 1272
f 1271 1275 1368 1366
f 1272 1367 1369 1276
f 1275 1279 1370 1368
f 1276 1369 1371 1280
f 1282 1372 1373 1283
f 1282 1284 1374 1372
f 1283 1373 1375 1285
f 1285 1375 1376 1278
f 1278 1376 1370 1279
f 1280 1371 1377 1281
f 1281 1377 1378 1286
f 1286 1378 1379 1287
f 1287 1379 1380 1288
f 1288 1380 1381 1289
f 1284 1290 1382 1374
f 1289 1381 1383 1291
f 1290 1292 1384 1382
f 1291 1383 1385 1293
f 1292 1294 1386 1384
f 1293 1385 1387 1295
f 1294 1296 1388 1386
f 1295 1387 1389 1297
f 1299 1298 1390 1391
f 1296 1299 1391 1388
f 1298 1300 1392 1390
f 1300 1301 1393 1392
f 1301 1302 1394 1393
f 1302 1303 1395 1394
f 1303 1304 1396 1395
f 1304 1305 1397 1396
f 1305 1306 1398 1397
f 1306 1307 1399 1398
f 1307 1308 1400 1399
f 1308 1309 1401 1400
f 1309 1310 1402 1401
f 1297 1389 1402 1310
f 1311 1403 1404 1312
f 1311 1313 1405 1403
f 1312 1404 1406 1314
f 1314 1406 1407 1315
f 1315 1407 1408 1316
f 1316 1408 1409 1317
f 1317 1409 1410 1318
f 1318 1410 1411 1319
f 1319 1411 1412 1320
f 1320 1412 1413 1321
f 1321 1413 1414 1322
f 1322 1414 1415 1323
f 1323 1415 1416 1324
f 1324 1416 1417 1325
f 1313 1326 1418 1405
f 1325 1417 1419 1327
f 1326 1328 1420 1418
f 1327 1419 1421 1329
f 1331 1330 1422 1423
f 1328 1331 1423 1420
f 1330 1332 1424 1422
f 1332 1334 1425 1424
f 1334 1333 1426 1425
f 1333 1335 1427 1426
f 1335 1336 1428 1427
f 1336 1337 1429 1428
f 1337 1338 1430 1429
f 1338 1339 1431 1430
f 1339 1341 1432 1431
f 1341 1340 1433 1432
f 1340 1342 1434 1433
f 1329 1421 1434 1342
f 1435 1436 1437 1438
f 1359 1435 1438 1360
f 1359 1361 1436 1435
f 1438 1437 1439 1440
f 1360 1438 1440 1362
f 1440 1439 1441 1442
f 1362 1440 1442 1363
f 1442 1441 1443 1444
f 1363 1442 1444 1364
f 1364 1444 1443 1365
f 1436 1445 1446 1437
f 1361 1366 1445 1436
f 1437 1446 1447 1439
f 1439 1447 1448 1441
f 1441 1448 1449 1443
f 1365 1443 1449 1367
f 1445 1450 1451 1446
f 1366 1368 1450 1445
f 1446 1451 1452 1447
f 1447 1452 1453 1448
f 1448 1453 1454 1449
f 1367 1449 1454 1369
f 1450 1455 1456 1451
f 1368 1370 1455 1450
f 1451 1456 1457 1452
f 1452 1457 1458 1453
f 1453 1458 1459 1454
f 1369 1454 1459 1371
f 1372 1460 1461 1373
f 1372 1374 1462 1460
f 1373 1461 1463 1375
f 1375 1463 1464 1376
f 1376 1464 1455 1370
f 1371 1459 1465 1377
f 1377 1465 1466 1378
f 1378 1466 1467 1379
f 1379 1467 1468 1380
f 1380 1468 1469 1381
f 1374 1382 1470 1462
f 1381 1469 1471 1383
f 1382 1384 1472 1470
f 1383 1471 1473 1385
f 1384 1386 1474 1472
f 1385 1473 1475 1387
f 1386 1388 1476 1474
f 1387 1475 1477 1389
f 1391 1390 1478 1479
f 1388 1391 1479 1476
f 1390 1392 1480 1478
f 1392 1393 1481 1480
f 1393 1394 1482 1481
f 1394 1395 1483 1482
f 1395 1396 1484 1483
f 1396 1397 1485 1484
f 1397 1398 1486 1485
f 1398 1399 1487 1486
f 1399 1400 1488 1487
f 1400 1401 1489 1488
f 1401 1402 1490 1489
f 1389 1477 1490 1402
f 1403 1491 1492 1404
f 1403 1405 1493 1491
f 1404 1492 1494 1406
f 1406 1494 1495 1407
f 1407 1495 1496 1408
f 1408 1496 1497 1409
f 1409 1497 1498 1410
f 1410 1498 1499 1411
f 1411 1499 1500 1412
f 1412 1500 1501 1413
f 1413 1501 1502 1414
f 1414 1502 1503 1415
f 1415 1503 1504 1416
f 1416 1504 1505 1417
f 1405 1418 1506 1493
f 1417 1505 1507 1419
f 1418 1420 1508 1506
f 1419 1507 1509 1421
f 1423 1422 1510 1511
f 1420 1423 1511 1508
f 1422 1424 1512 1510
f 1424 1425 1513 1512
f 1425 1426 1514 1513
f 1426 1427 1515 1514
f 1427 1428 1516 1515
f 1428 1429 1517 1516
f 1429 1430 1518 1517
f 1430 1431 1519 1518
f 1431 1432 1520 1519
f 1432 1433 1521 1520
f 1433 1434 1522 1521
f 1421 1509 1522 1434
f 1460 1523 1524 1461
f 1460 1462 1525 1523
f 1461 1524 1526 1463
f 1463 1526 1527 1464
f 1464 1527 1528 1455
f 1455 1528 1529 1456
f 1456 1529 1530 1457
f 1457 1530 1531 1458
f 1458 1531 1532 1459
f 1459 1532 1533 1465
f 1465 1533 1534 1466
f 1466 1534 1535 1467
f 1467 1535 1536 1468
f 1468 1536 1537 1469
f 1462 1470 1538 1525
f 1469 1537 1539 1471
f 1470 1472 1540 1538
f 1471 1539 1541 1473
f 1472 1474 1542 1540
f 1473 1541 1543 1475
f 1474 1476 1544 1542
f 1475 1543 1545 1477
f 1479 1478 1546 1547
f 1476 1479 1547 1544
f 1478 1480 1548 1546
f 1480 1481 1549 1548
f 1481 1482 1550 1549
f 1482 1483 1551 1550
f 1483 1484 1552 1551
f 1484 1485 1553 1552
f 1485 1486 1554 1553
f 1486 1487 1555 1554
f 1487 1488 1556 1555
f 1488 1489 1557 1556
f 1489 1490 1558 1557
f 1477 1545 1558 1490
f 1559 1491 1493 1560
f 1559 1561 1562 1491
f 1559 1560 1563 1561
f 1491 1562 1564 1492
f 1492 1564 1565 1494
f 1494 1565 1566 1495
f 1495 1566 1567 1496
f 1496 1567 1568 1497
f 1497 1568 1569 1498
f 1498 1569 1570 1499
f 1499 1570 1571 1500
f 1500 1571 1572 1501
f 1501 1572 1573 1502
f 1502 1573 1574 1503
f 1503 1574 1575 1504
f 1504 1576 1577 1505
f 1504 1575 1578 1576
f 1576 1578 1579 1577
f 1560 1493 1506 1580
f 1580 1506 1581 1582
f 1560 1580 1582 1563
f 1505 1577 1583 1507
f 1507 1583 1584 1585
f 1577 1579 1584 1583
f 1506 1508 1586 1581
f 1507 1585 1587 1509
f 1511 1510 1588 1589
f 1508 1511 1589 1586
f 1510 1512 1590 1588
f 1512 1513 1591 1590
f 1513 1514 1592 1591
f 1514 1515 1593 1592
f 1515 1516 1594 1593
f 1516 1517 1595 1594
f 1517 1518 1596 1595
f 1518 1519 1597 1596
f 1519 1520 1598 1597
f 1520 1521 1599 1598
f 1521 1522 1600 1599
f 1509 1587 1600 1522
f 1523 1601 1602 1524
f 1523 1525 1603 1601
f 1524 1602 1604 1526
f 1526 1604 1605 1527
f 1527 1605 1606 1528
f 1528 1606 1607 1529
f 1529 1607 1608 1530
f 1530 1608 1609 1531
f 1531 1609 1610 1532
f 1532 1610 1611 1533
f 1533 1611 1612 1534
f 1534 1612 1613 1535
f 1535 1613 1614 1536
f 1536 1614 1615 1537
f 1525 1538 1616 1603
f 1537 1615 1617 1539
f 1538 1540 1618 1616
f 1539 1617 1619 1541
f 1540 1542 1620 1618
f 1541 1619 1621 1543
f 1542 1544 1622 1620
f 1543 1621 1623 1545
f 1547 1546 1624 1625
f 1544 1547 1625 1622
f 1546 1548 1626 1624
f 1548 1549 1627 1626
f 1549 1550 1628 1627
f 1550 1551 1629 1628
f 1551 1552 1630 1629
f 1552 1553 1631 1630
f 1553 1554 1632 1631
f 1554 1555 1633 1632
f 1555 1556 1634 1633
f 1556 1557 1635 1634
f 1557 1558 1636 1635
f 1545 1623 1636 1558
f 1561 1637 1638 1562
f 1561 1563 1639 1637
f 1562 1638 1640 1564
f 1564 1640 1641 1565
f 1565 1641 1642 1566
f 1566 1642 1643 1567
f 1567 1643 1644 1568
f 1568 1644 1645 1569
f 1569 1645 1646 1570
f 1570 1646 1647 1571
f 1571 1647 1648 1572
f 1572 1648 1649 1573
f 1573 1649 1650 1574
f 1574 1650 1651 1575
f 1575 1651 1652 1578
f 1578 1652 1653 1579
f 1582 1581 1654 1655
f 1563 1582 1655 1639
f 1585 1584 1656 1657
f 1579 1653 1656 1584
f 1581 1586 1658 1654
f 1585 1657 1659 1587
f 1589 1588 1660 1661
f 1586 1589 1661 1658
f 1588 1590 1662 1660
f 1590 1591 1663 1662
f 1591 1592 1664 1663
f 1592 1593 1665 1664
f 1593 1594 1666 1665
f 1594 1595 1667 1666
f 1595 1596 1668 1667
f 1596 1597 1669 1668
f 1597 1598 1670 1669
f 1598 1599 1671 1670
f 1599 1600 1672 1671
f 1587 1659 1672 1600
f 1601 1673 1674 1602
f 1601 1603 1675 1673
f 1602 1674 1676 1604
f 1604 1676 1677 1605
f 1605 1677 1678 1606
f 1606 1678 1679 1607
f 1607 1679 1680 1608
f 1608 1680 1681 1609
f 1609 1681 1682 1610
f 1610 1682 1683 1611
f 1611 1683 1684 1612
f 1612 1684 1685 1613
f 1613 1685 1686 1614
f 1614 1686 1687 1615
f 1603 1616 1688 1675
f 1615 1687 1689 1617
f 1616 1618 1690 1688
f 1617 1689 1691 1619
f 1618 1620 1692 1690
f 1619 1691 1693 1621
f 1620 1622 1694 1692
f 1621 1693 1695 1623
f 1694 1696 1697 1698
f 1625 1624 1697 1696
f 1622 1625 1696 1694
f 1698 1697 1699 1700
f 1624 1626 1699 1697
f 1700 1699 1701 1702
f 1626 1627 1701 1699
f 1702 1701 1703 1704
f 1627 1628 1703 1701
f 1704 1703 1705 1706
f 1628 1629 1705 1703
f 1706 1705 1707 1708
f 1629 1630 1707 1705
f 1708 1707 1709 1710
f 1630 1631 1709 1707
f 1710 1709 1711 1712
f 1631 1632 1711 1709
f 1712 1711 1713 1714
f 1632 1633 1713 1711
f 1714 1713 1715 1716
f 1633 1634 1715 1713
f 1716 1715 1717 1718
f 1634 1635 1717 1715
f 1718 1717 1719 1695
f 1635 1636 1719 1717
f 1623 1695 1719 1636
f 1637 1720 1721 1638
f 1637 1639 1722 1720
f 1638 1721 1723 1640
f 1640 1723 1724 1641
f 1641 1724 1725 1642
f 1642 1725 1726 1643
f 1643 1726 1727 1644
f 1644 1727 1728 1645
f 1645 1728 1729 1646
f 1646 1729 1730 1647
f 1647 1730 1731 1648
f 1648 1731 1732 1649
f 1649 1732 1733 1650
f 1650 1733 1734 1651
f 1651 1734 1735 1652
f 1652 1735 1736 1653
f 1655 1654 1737 1738
f 1639 1655 1738 1722
f 1657 1656 1739 1740
f 1653 1736 1739 1656
f 1654 1658 1741 1737
f 1657 1740 1742 1659
f 1661 1660 1743 1744
f 1658 1661 1744 1741
f 1660 1662 1745 1743
f 1662 1663 1746 1745
f 1663 1664 1747 1746
f 1664 1665 1748 1747
f 1665 1666 1749 1748
f 1666 1667 1750 1749
f 1667 1668 1751 1750
f 1668 1669 1752 1751
f 1669 1670 1753 1752
f 1670 1671 1754 1753
f 1671 1672 1755 1754
f 1659 1742 1755 1672
f 1756 1757 1758 1759
f 1673 1756 1759 1674
f 1673 1675 1757 1756
f 1674 1759 1760 1676
f 1676 1760 1761 1677
f 1677 1761 1762 1678
f 1678 1762 1763 1679
f 1679 1763 1764 1680
f 1680 1764 1765 1681
f 1681 1765 1766 1682
f 1682 1766 1767 1683
f 1683 1767 1768 1684
f 1684 1768 1769 1685
f 1769 1770 1771 1772
f 1685 1769 1772 1686
f 1686 1772 1771 1687
f 1757 1773 1774 1758
f 1675 1688 1773 1757
f 1770 1775 1776 1771
f 1687 1771 1776 1689
f 1773 1777 1778 1774
f 1688 1690 1777 1773
f 1775 1779 1780 1776
f 1689 1776 1780 1691
f 1777 1781 1782 1778
f 1690 1692 1781 1777
f 1779 1783 1784 1780
f 1691 1780 1784 1693
f 1781 1785 1786 1782
f 1694 1698 1786 1785
f 1692 1694 1785 1781
f 1698 1700 1787 1786
f 1700 1702 1788 1787
f 1702 1704 1789 1788
f 1704 1706 1790 1789
f 1706 1708 1791 1790
f 1708 1710 1792 1791
f 1710 1712 1793 1792
f 1712 1714 1794 1793
f 1714 1716 1795 1794
f 1716 1718 1796 1795
f 1783 1796 1797 1784
f 1718 1695 1797 1796
f 1693 1784 1797 1695
f 1798 1799 1800 1801
f 1720 1798 1801 1721
f 1720 1722 1799 1798
f 1721 1801 1802 1723
f 1723 1802 1803 1724
f 1724 1803 1804 1725
f 1725 1804 1805 1726
f 1726 1805 1806 1727
f 1727 1806 1807 1728
f 1728 1807 1808 1729
f 1729 1808 1809 1730
f 1730 1809 1810 1731
f 1731 1810 1811 1732
f 1732 1811 1812 1733
f 1733 1812 1813 1734
f 1813 1814 1815 1816
f 1734 1813 1816 1735
f 1735 1816 1815 1736
f 1799 1817 1818 1800
f 1738 1737 1818 1817
f 1722 1738 1817 1799
f 1814 1819 1820 1815
f 1740 1739 1820 1819
f 1736 1815 1820 1739
f 1737 1741 1821 1818
f 1740 1819 1822 1742
f 1744 1743 1823 1824
f 1741 1744 1824 1821
f 1743 1745 1825 1823
f 1745 1746 1826 1825
f 1746 1747 1827 1826
f 1747 1748 1828 1827
f 1748 1749 1829 1828
f 1749 1750 1830 1829
f 1750 1751 1831 1830
f 1751 1752 1832 1831
f 1752 1753 1833 1832
f 1753 1754 1834 1833
f 1754 1755 1835 1834
f 1742 1822 1835 1755
f 1836 1837 1838 1839
f 1759 1836 1839 1760
f 1759 1758 1837 1836
f 1760 1839 1840 1761
f 1761 1840 1841 1762
f 1762 1841 1842 1763
f 1763 1842 1843 1764
f 1764 1843 1844 1765
f 1765 1844 1845 1766
f 1766 1845 1846 1767
f 1767 1846 1847 1768
f 1847 1848 1849 1850
f 1768 1847 1850 1769
f 1769 1850 1849 1770
f 1837 1851 1852 1838
f 1758 1774 1851 1837
f 1848 1853 1854 1849
f 1770 1849 1854 1775
f 1851 1855 1856 1852
f 1774 1778 1855 1851
f 1853 1857 1858 1854
f 1775 1854 1858 1779
f 1855 1859 1860 1856
f 1778 1782 1859 1855
f 1857 1861 1862 1858
f 1779 1858 1862 1783
f 1859 1863 1864 1860
f 1786 1787 1864 1863
f 1782 1786 1863 1859
f 1787 1788 1865 1864
f 1788 1789 1866 1865
f 1789 1790 1867 1866
f 1790 1791 1868 1867
f 1791 1792 1869 1868
f 1792 1793 1870 1869
f 1793 1794 1871 1870
f 1794 1795 1872 1871
f 1861 1872 1873 1862
f 1795 1796 1873 1872
f 1783 1862 1873 1796
f 1801 1874 1875 1802
f 1801 1800 1876 1874
f 1802 1875 1877 1803
f 1803 1877 1878 1804
f 1804 1878 1879 1805
f 1805 1879 1880 1806
f 1806 1880 1881 1807
f 1807 1881 1882 1808
f 1808 1882 1883 1809
f 1809 1883 1884 1810
f 1810 1884 1885 1811
f 1811 1885 1886 1812
f 1812 1886 1887 1813
f 1813 1887 1888 1814
f 1800 1818 1889 1876
f 1814 1888 1890 1819
f 1818 1821 1891 1889
f 1819 1890 1892 1822
f 1824 1823 1893 1894
f 1821 1824 1894 1891
f 1823 1825 1895 1893
f 1825 1826 1896 1895
f 1826 1827 1897 1896
f 1827 1828 1898 1897
f 1828 1829 1899 1898
f 1829 1830 1900 1899
f 1830 1831 1901 1900
f 1831 1832 1902 1901
f 1832 1833 1903 1902
f 1833 1834 1904 1903
f 1834 1835 1905 1904
f 1822 1892 1905 1835
f 1839 1906 1907 1840
f 1839 1838 1908 1906
f 1840 1907 1909 1841
f 1841 1909 1910 1842
f 1842 1910 1911 1843
f 1843 1911 1912 1844
f 1844 1912 1913 1845
f 1845 1913 1914 1846
f 1846 1914 1915 1847
f 1847 1915 1916 1848
f 1838 1852 1917 1908
f 1848 1916 1918 1853
f 1852 1856 1919 1917
f 1853 1918 1920 1857
f 1856 1860 1921 1919
f 1857 1920 1922 1861
f 1864 1865 1923 1924
f 1860 1864 1924 1921
f 1865 1866 1925 1923
f 1866 1867 1926 1925
f 1867 1868 1927 1926
f 1868 1869 1928 1927
f 1869 1870 1929 1928
f 1870 1871 1930 1929
f 1871 1872 1931 1930
f 1861 1922 1931 1872
f 1932 1933 1934 1935
f 1874 1932 1935 1875
f 1874 1876 1933 1932
f 1935 1934 1936 1937
f 1875 1935 1937 1877
f 1937 1936 1938 1939
f 1877 1937 1939 1878
f 1939 1938 1940 1941
f 1878 1939 1941 1879
f 1941 1940 1942 1943
f 1879 1941 1943 1880
f 1943 1942 1944 1945
f 1880 1943 1945 1881
f 1945 1944 1946 1947
f 1881 1945 1947 1882
f 1947 1946 1948 1949
f 1882 1947 1949 1883
f 1949 1948 1950 1951
f 1883 1949 1951 1884
f 1951 1950 1952 1953
f 1884 1951 1953 1885
f 1953 1952 1954 1955
f 1885 1953 1955 1886
f 1955 1954 1956 1957
f 1886 1955 1957 1887
f 1887 1957 1956 1888
f 1933 1958 1959 1934
f 1876 1889 1958 1933
f 1934 1959 1960 1936
f 1936 1960 1961 1938
f 1938 1961 1962 1940
f 1940 1962 1963 1942
f 1942 1963 1964 1944
f 1944 1964 1965 1946
f 1946 1965 1966 1948
f 1948 1966 1967 1950
f 1950 1967 1968 1952
f 1952 1968 1969 1954
f 1954 1969 1970 1956
f 1888 1956 1970 1890
f 1958 1971 1972 1959
f 1889 1891 1971 1958
f 1959 1972 1973 1960
f 1960 1973 1974 1961
f 1961 1974 1975 1962
f 1962 1975 1976 1963
f 1963 1976 1977 1964
f 1964 1977 1978 1965
f 1965 1978 1979 1966
f 1966 1979 1980 1967
f 1967 1980 1981 1968
f 1968 1981 1982 1969
f 1969 1982 1983 1970
f 1890 1970 1983 1892
f 1971 1984 1985 1972
f 1894 1893 1985 1984
f 1891 1894 1984 1971
f 1972 1985 1986 1973
f 1893 1895 1986 1985
f 1973 1986 1987 1974
f 1895 1896 1987 1986
f 1974 1987 1988 1975
f 1896 1897 1988 1987
f 1975 1988 1989 1976
f 1897 1898 1989 1988
f 1976 1989 1990 1977
f 1898 1899 1990 1989
f 1977 1990 1991 1978
f 1899 1900 1991 1990
f 1978 1991 1992 1979
f 1900 1901 1992 1991
f 1979 1992 1993 1980
f 1901 1902 1993 1992
f 1980 1993 1994 1981
f 1902 1903 1994 1993
f 1981 1994 1995 1982
f 1903 1904 1995 1994
f 1982 1995 1996 1983
f 1904 1905 1996 1995
f 1892 1983 1996 1905
f 1906 1997 1998 1907
f 1906 1908 1999 1997
f 1907 1998 2000 1909
f 1909 2000 2001 1910
f 1910 2001 2002 1911
f 1911 2002 2003 1912
f 1912 2003 2004 1913
f 1913 2004 2005 1914
f 1914 2005 2006 1915
f 1915 2006 2007 1916
f 1908 1917 2008 1999
f 1916 2007 2009 1918
f 1917 1919 2010 2008
f 1918 2009 2011 1920
f 1919 1921 2012 2010
f 1920 2011 2013 1922
f 1924 1923 2014 2015
f 1921 1924 2015 2012
f 1923 1925 2016 2014
f 1925 1926 2017 2016
f 1926 1927 2018 2017
f 1927 1928 2019 2018
f 1928 1929 2020 2019
f 1929 1930 2021 2020
f 1930 1931 2022 2021
f 1922 2013 2022 1931
f 1997 2023 2024 1998
f 1997 1999 2025 2023
f 1998 2024 2026 2000
f 2000 2026 2027 2001
f 2001 2027 2028 2002
f 2002 2028 2029 2003
f 2003 2029 2030 2004
f 2004 2030 2031 2005
f 2005 2031 2032 2006
f 2006 2032 2033 2007
f 1999 2008 2034 2025
f 2007 2033 2035 2009
f 2008 2010 2036 2034
f 2009 2035 2037 2011
f 2010 2012 2038 2036
f 2011 2037 2039 2013
f 2015 2014 2040 2041
f 2012 2015 2041 2038
f 2014 2016 2042 2040
f 2016 2017 2043 2042
f 2017 2018 2044 2043
f 2018 2019 2045 2044
f 2019 2020 2046 2045
f 2020 2021 2047 2046
f 2021 2022 2048 2047
f 2013 2039 2048 2022
f 2049 2050 2051 2052
f 2023 2049 2052 2024
f 2023 2025 2050 2049
f 2024 2052 2053 2026
f 2026 2053 2054 2027
f 2027 2054 2055 2028
f 2028 2055 2056 2029
f 2029 2056 2057 2030
f 2030 2057 2058 2031
f 2058 2059 2060 2061
f 2031 2058 2061 2032
f 2032 2061 2060 2033
f 2050 2062 2063 2051
f 2025 2034 2062 2050
f 2059 2064 2065 2060
f 2033 2060 2065 2035
f 2062 2066 2067 2063
f 2034 2036 2066 2062
f 2064 2068 2069 2065
f 2035 2065 2069 2037
f 2066 2070 2071 2067
f 2036 2038 2070 2066
f 2068 2072 2073 2069
f 2037 2069 2073 2039
f 2070 2074 2075 2071
f 2041 2040 2075 2074
f 2038 2041 2074 2070
f 2071 2075 2076 2077
f 2040 2042 2076 2075
f 2077 2076 2078 2079
f 2042 2043 2078 2076
f 2079 2078 2080 2081
f 2043 2044 2080 2078
f 2081 2080 2082 2083
f 2044 2045 2082 2080
f 2083 2082 2084 2085
f 2045 2046 2084 2082
f 2085 2084 2086 2072
f 2046 2047 2086 2084
f 2072 2086 2087 2073
f 2047 2048 2087 2086
f 2039 2073 2087 2048
f 2052 2088 2089 2053
f 2052 2051 2090 2088
f 2053 2089 2091 2054
f 2054 2091 2092 2055
f 2055 2092 2093 2056
f 2056 2093 2094 2057
f 2057 2094 2095 2058
f 2058 2095 2096 2059
f 2051 2063 2097 2090
f 2059 2096 2098 2064
f 2063 2067 2099 2097
f 2064 2098 2100 2068
f 2071 2077 2101 2102
f 2067 2071 2102 2099
f 2077 2079 2103 2101
f 2079 2081 2104 2103
f 2081 2083 2105 2104
f 2083 2085 2106 2105
f 2085 2072 2107 2106
f 2068 2100 2107 2072
f 2108 2109 2110 2111
f 2088 2108 2111 2089
f 2088 2090 2109 2108
f 2111 2110 2112 2113
f 2089 2111 2113 2091
f 2113 2112 2114 2115
f 2091 2113 2115 2092
f 2115 2114 2116 2117
f 2092 2115 2117 2093
f 2117 2116 2118 2119
f 2093 2117 2119 2094
f 2119 2118 2120 2121
f 2094 2119 2121 2095
f 2095 2121 2120 2096
f 2109 2122 2123 2110
f 2090 2097 2122 2109
f 2110 2123 2124 2112
f 2112 2124 2125 2114
f 2114 2125 2126 2116
f 2116 2126 2127 2118
f 2118 2127 2128 2120
f 2096 2120 2128 2098
f 2122 2129 2130 2123
f 2097 2099 2129 2122
f 2123 2130 2131 2124
f 2124 2131 2132 2125
f 2125 2132 2133 2126
f 2126 2133 2134 2127
f 2127 2134 2135 2128
f 2098 2128 2135 2100
f 2129 2136 2137 2130
f 2102 2101 2137 2136
f 2099 2102 2136 2129
f 2130 2137 2138 2131
f 2101 2103 2138 2137
f 2131 2138 2139 2132
f 2103 2104 2139 2138
f 2132 2139 2140 2133
f 2104 2105 2140 2139
f 2133 2140 2141 2134
f 2105 2106 2141 2140
f 2134 2141 2142 2135
f 2106 2107 2142 2141
f 2100 2135 2142 2107
