# MagicaVoxel @ Ephtracy

# group
o 

# material
mtllib bangpe.mtl
usemtl palette

# normals
vn -1 0 0
vn 1 0 0
vn 0 0 1
vn 0 0 -1
vn 0 -1 0
vn 0 1 0

# texcoords
vt 0.0214844 0.5
vt 0.0449219 0.5
vt 0.392578 0.5
vt 0.970703 0.5
vt 0.978516 0.5

# verts
v -0.4 2 0
v -0.4 2 -0.0999999
v -0.4 2.1 0.1
v -0.4 2.1 0
v -0.4 2.1 -0.0999999
v -0.4 2.1 -0.2
v -0.4 2.2 0.2
v -0.4 2.2 0.1
v -0.4 2.2 -0.2
v -0.4 2.2 -0.3
v -0.4 2.3 0.2
v -0.4 2.3 0.1
v -0.4 2.3 -0.2
v -0.4 2.3 -0.3
v -0.4 2.4 0.1
v -0.4 2.4 0
v -0.4 2.4 -0.0999999
v -0.4 2.4 -0.2
v -0.4 2.5 0
v -0.4 2.5 -0.0999999
v -0.3 1.9 0.1
v -0.3 1.9 -0.2
v -0.3 2 0.2
v -0.3 2 0.1
v -0.3 2 0
v -0.3 2 -0.0999999
v -0.3 2 -0.2
v -0.3 2 -0.3
v -0.3 2.1 0.3
v -0.3 2.1 0.2
v -0.3 2.1 0.1
v -0.3 2.1 0
v -0.3 2.1 -0.0999999
v -0.3 2.1 -0.2
v -0.3 2.1 -0.3
v -0.3 2.1 -0.4
v -0.3 2.2 0.2
v -0.3 2.2 0.1
v -0.3 2.2 -0.2
v -0.3 2.2 -0.3
v -0.3 2.3 0.2
v -0.3 2.3 0.1
v -0.3 2.3 -0.2
v -0.3 2.3 -0.3
v -0.3 2.4 0.3
v -0.3 2.4 0.2
v -0.3 2.4 0.1
v -0.3 2.4 0
v -0.3 2.4 -0.0999999
v -0.3 2.4 -0.2
v -0.3 2.4 -0.3
v -0.3 2.4 -0.4
v -0.3 2.5 0.2
v -0.3 2.5 0.1
v -0.3 2.5 0
v -0.3 2.5 -0.0999999
v -0.3 2.5 -0.2
v -0.3 2.5 -0.3
v -0.3 2.6 0.1
v -0.3 2.6 -0.2
v -0.2 1.1 0.3
v -0.2 1.1 -0.4
v -0.2 1.2 0.5
v -0.2 1.2 0.3
v -0.2 1.2 0.2
v -0.2 1.2 0.1
v -0.2 1.2 -0.2
v -0.2 1.2 -0.3
v -0.2 1.2 -0.4
v -0.2 1.2 -0.6
v -0.2 1.3 0.7
v -0.2 1.3 0.5
v -0.2 1.3 0.3
v -0.2 1.3 -0.0999999
v -0.2 1.3 -0.2
v -0.2 1.3 -0.3
v -0.2 1.3 -0.4
v -0.2 1.3 -0.6
v -0.2 1.3 -0.8
v -0.2 1.4 0.8
v -0.2 1.4 0.7
v -0.2 1.4 0.6
v -0.2 1.4 0.5
v -0.2 1.4 0
v -0.2 1.4 -0.0999999
v -0.2 1.4 -0.4
v -0.2 1.4 -0.5
v -0.2 1.4 -0.6
v -0.2 1.4 -0.7
v -0.2 1.4 -0.8
v -0.2 1.4 -0.9
v -0.2 1.5 0.9
v -0.2 1.5 0.8
v -0.2 1.5 0.7
v -0.2 1.5 0.4
v -0.2 1.5 0.3
v -0.2 1.5 0.1
v -0.2 1.5 0
v -0.2 1.5 -0.8
v -0.2 1.5 -0.9
v -0.2 1.5 -1
v -0.2 1.6 0.3
v -0.2 1.6 0.2
v -0.2 1.6 -0.0999999
v -0.2 1.6 -0.2
v -0.2 1.7 1
v -0.2 1.7 0.9
v -0.2 1.7 0.8
v -0.2 1.7 0
v -0.2 1.7 -0.0999999
v -0.2 1.7 -0.3
v -0.2 1.7 -0.4
v -0.2 1.7 -0.5
v -0.2 1.7 -0.6
v -0.2 1.7 -0.9
v -0.2 1.7 -1
v -0.2 1.7 -1.1
v -0.2 1.8 0.5
v -0.2 1.8 0.4
v -0.2 1.8 0.3
v -0.2 1.8 0.2
v -0.2 1.8 0.1
v -0.2 1.8 0
v -0.2 1.8 -0.4
v -0.2 1.8 -0.6
v -0.2 1.9 1.1
v -0.2 1.9 1
v -0.2 1.9 0.9
v -0.2 1.9 0.7
v -0.2 1.9 0.6
v -0.2 1.9 0.4
v -0.2 1.9 0.3
v -0.2 1.9 0.1
v -0.2 1.9 -0.2
v -0.2 1.9 -0.7
v -0.2 1.9 -0.8
v -0.2 1.9 -1
v -0.2 1.9 -1.1
v -0.2 1.9 -1.2
v -0.2 2 0.5
v -0.2 2 0.4
v -0.2 2 0.3
v -0.2 2 0.2
v -0.2 2 0.1
v -0.2 2 -0.2
v -0.2 2 -0.3
v -0.2 2 -0.5
v -0.2 2 -0.6
v -0.2 2 -0.8
v -0.2 2 -0.9
v -0.2 2.1 0.8
v -0.2 2.1 0.7
v -0.2 2.1 0.3
v -0.2 2.1 0.2
v -0.2 2.1 -0.3
v -0.2 2.1 -0.4
v -0.2 2.1 -0.5
v -0.2 2.1 -0.7
v -0.2 2.1 -0.8
v -0.2 2.2 0.9
v -0.2 2.2 0.8
v -0.2 2.2 -0.8
v -0.2 2.2 -0.9
v -0.2 2.2 -1
v -0.2 2.2 -1.1
v -0.2 2.3 0.7
v -0.2 2.3 0.6
v -0.2 2.3 0.5
v -0.2 2.3 0.4
v -0.2 2.3 -0.4
v -0.2 2.3 -0.5
v -0.2 2.3 -0.7
v -0.2 2.3 -0.8
v -0.2 2.3 -1
v -0.2 2.3 -1.1
v -0.2 2.4 1
v -0.2 2.4 0.9
v -0.2 2.4 0.3
v -0.2 2.4 0.2
v -0.2 2.4 -0.3
v -0.2 2.4 -0.4
v -0.2 2.4 -0.8
v -0.2 2.4 -0.9
v -0.2 2.5 0.9
v -0.2 2.5 0.7
v -0.2 2.5 0.2
v -0.2 2.5 0.1
v -0.2 2.5 -0.2
v -0.2 2.5 -0.3
v -0.2 2.5 -0.4
v -0.2 2.5 -0.5
v -0.2 2.5 -0.6
v -0.2 2.5 -0.7
v -0.2 2.5 -0.8
v -0.2 2.6 1.1
v -0.2 2.6 1
v -0.2 2.6 0.9
v -0.2 2.6 0.1
v -0.2 2.6 -0.0999999
v -0.2 2.6 -0.2
v -0.2 2.6 -0.3
v -0.2 2.6 -1
v -0.2 2.6 -1.1
v -0.2 2.6 -1.2
v -0.2 2.7 0.4
v -0.2 2.7 0.3
v -0.2 2.7 -0.5
v -0.2 2.7 -0.6
v -0.2 2.7 -0.7
v -0.2 2.7 -0.8
v -0.2 2.7 -0.9
v -0.2 2.8 1
v -0.2 2.8 0.9
v -0.2 2.8 0.8
v -0.2 2.8 0
v -0.2 2.8 -0.0999999
v -0.2 2.8 -0.2
v -0.2 2.8 -0.3
v -0.2 2.8 -0.4
v -0.2 2.8 -0.9
v -0.2 2.8 -1
v -0.2 2.8 -1.1
v -0.2 2.9 -0.4
v -0.2 2.9 -0.5
v -0.2 2.9 -0.8
v -0.2 2.9 -0.9
v -0.2 3 0.9
v -0.2 3 0.8
v -0.2 3 0.7
v -0.2 3 -0.7
v -0.2 3 -0.8
v -0.2 3 -0.9
v -0.2 3 -1
v -0.2 3.1 0.8
v -0.2 3.1 0.7
v -0.2 3.1 0.6
v -0.2 3.1 0.5
v -0.2 3.1 -0.6
v -0.2 3.1 -0.7
v -0.2 3.1 -0.8
v -0.2 3.1 -0.9
v -0.2 3.2 0.7
v -0.2 3.2 0.5
v -0.2 3.2 0.4
v -0.2 3.2 0.3
v -0.2 3.2 -0.4
v -0.2 3.2 -0.5
v -0.2 3.2 -0.6
v -0.2 3.2 -0.8
v -0.2 3.3 0.5
v -0.2 3.3 0.3
v -0.2 3.3 0.2
v -0.2 3.3 0.1
v -0.2 3.3 0
v -0.2 3.3 -0.0999999
v -0.2 3.3 -0.2
v -0.2 3.3 -0.3
v -0.2 3.3 -0.4
v -0.2 3.3 -0.6
v -0.2 3.4 0.3
v -0.2 3.4 -0.4
v -0.1 1 0.3
v -0.1 1 -0.4
v -0.1 1.1 0.5
v -0.1 1.1 0.3
v -0.1 1.1 -0.4
v -0.1 1.1 -0.6
v -0.1 1.2 0.7
v -0.1 1.2 0.5
v -0.1 1.2 0.3
v -0.1 1.2 -0.4
v -0.1 1.2 -0.6
v -0.1 1.2 -0.8
v -0.1 1.3 0.8
v -0.1 1.3 0.7
v -0.1 1.3 0.5
v -0.1 1.3 -0.6
v -0.1 1.3 -0.8
v -0.1 1.3 -0.9
v -0.1 1.4 0.9
v -0.1 1.4 0.8
v -0.1 1.4 0.7
v -0.1 1.4 -0.8
v -0.1 1.4 -0.9
v -0.1 1.4 -1
v -0.1 1.5 1
v -0.1 1.5 0.9
v -0.1 1.5 0.8
v -0.1 1.5 -0.9
v -0.1 1.5 -1
v -0.1 1.5 -1.1
v -0.1 1.7 1.1
v -0.1 1.7 1
v -0.1 1.7 0.9
v -0.1 1.7 -1
v -0.1 1.7 -1.1
v -0.1 1.7 -1.2
v -0.1 1.9 1.2
v -0.1 1.9 1.1
v -0.1 1.9 1
v -0.1 1.9 -1.1
v -0.1 1.9 -1.2
v -0.1 1.9 -1.3
v -0.1 2.6 1.2
v -0.1 2.6 1.1
v -0.1 2.6 1
v -0.1 2.6 -1.1
v -0.1 2.6 -1.2
v -0.1 2.6 -1.3
v -0.1 2.8 1.1
v -0.1 2.8 1
v -0.1 2.8 0.9
v -0.1 2.8 -1
v -0.1 2.8 -1.1
v -0.1 2.8 -1.2
v -0.1 3 1
v -0.1 3 0.9
v -0.1 3 0.8
v -0.1 3 -0.9
v -0.1 3 -1
v -0.1 3 -1.1
v -0.1 3.1 0.9
v -0.1 3.1 0.8
v -0.1 3.1 0.7
v -0.1 3.1 -0.8
v -0.1 3.1 -0.9
v -0.1 3.1 -1
v -0.1 3.2 0.8
v -0.1 3.2 0.7
v -0.1 3.2 0.5
v -0.1 3.2 -0.6
v -0.1 3.2 -0.8
v -0.1 3.2 -0.9
v -0.1 3.3 0.7
v -0.1 3.3 0.5
v -0.1 3.3 0.3
v -0.1 3.3 -0.4
v -0.1 3.3 -0.6
v -0.1 3.3 -0.8
v -0.1 3.4 0.5
v -0.1 3.4 0.3
v -0.1 3.4 -0.4
v -0.1 3.4 -0.6
v -0.1 3.5 0.3
v -0.1 3.5 -0.4
v 0.4 2.1 0.3
v 0.4 2.1 -0.4
v 0.4 2.4 0.3
v 0.4 2.4 -0.4
v 0 1.5 1
v 0 1.5 0.9
v 0 1.6 1
v 0 1.6 0.9
v 0.1 1 0.3
v 0.1 1 -0.4
v 0.1 1.1 0.5
v 0.1 1.1 0.3
v 0.1 1.1 -0.4
v 0.1 1.1 -0.6
v 0.1 1.2 0.7
v 0.1 1.2 0.5
v 0.1 1.2 0.3
v 0.1 1.2 -0.4
v 0.1 1.2 -0.6
v 0.1 1.2 -0.8
v 0.1 1.3 0.8
v 0.1 1.3 0.7
v 0.1 1.3 0.5
v 0.1 1.3 0.3
v 0.1 1.3 -0.4
v 0.1 1.3 -0.6
v 0.1 1.3 -0.8
v 0.1 1.3 -0.9
v 0.1 1.4 0.9
v 0.1 1.4 0.8
v 0.1 1.4 0.7
v 0.1 1.4 0.5
v 0.1 1.4 -0.6
v 0.1 1.4 -0.8
v 0.1 1.4 -0.9
v 0.1 1.4 -1
v 0.1 1.5 -0.8
v 0.1 1.5 -0.9
v 0.1 1.5 -1
v 0.1 1.5 -1.1
v 0.1 1.6 1
v 0.1 1.6 0.9
v 0.1 1.6 0.8
v 0.1 1.6 0.7
v 0.1 1.7 1.1
v 0.1 1.7 1
v 0.1 1.7 0.9
v 0.1 1.7 0.8
v 0.1 1.7 -0.9
v 0.1 1.7 -1
v 0.1 1.7 -1.1
v 0.1 1.7 -1.2
v 0.1 1.9 1.2
v 0.1 1.9 1.1
v 0.1 1.9 1
v 0.1 1.9 0.9
v 0.1 1.9 -1
v 0.1 1.9 -1.1
v 0.1 1.9 -1.2
v 0.1 1.9 -1.3
v 0.1 2.1 0.4
v 0.1 2.1 0.3
v 0.1 2.1 -0.4
v 0.1 2.1 -0.5
v 0.1 2.4 0.4
v 0.1 2.4 0.3
v 0.1 2.4 -0.4
v 0.1 2.4 -0.5
v 0.1 2.6 1.2
v 0.1 2.6 1.1
v 0.1 2.6 1
v 0.1 2.6 0.9
v 0.1 2.6 -1
v 0.1 2.6 -1.1
v 0.1 2.6 -1.2
v 0.1 2.6 -1.3
v 0.1 2.8 1.1
v 0.1 2.8 1
v 0.1 2.8 0.9
v 0.1 2.8 0.8
v 0.1 2.8 -0.9
v 0.1 2.8 -1
v 0.1 2.8 -1.1
v 0.1 2.8 -1.2
v 0.1 3 1
v 0.1 3 0.9
v 0.1 3 0.8
v 0.1 3 0.7
v 0.1 3 -0.8
v 0.1 3 -0.9
v 0.1 3 -1
v 0.1 3 -1.1
v 0.1 3.1 0.9
v 0.1 3.1 0.8
v 0.1 3.1 0.7
v 0.1 3.1 0.5
v 0.1 3.1 -0.6
v 0.1 3.1 -0.8
v 0.1 3.1 -0.9
v 0.1 3.1 -1
v 0.1 3.2 0.8
v 0.1 3.2 0.7
v 0.1 3.2 0.5
v 0.1 3.2 0.3
v 0.1 3.2 -0.4
v 0.1 3.2 -0.6
v 0.1 3.2 -0.8
v 0.1 3.2 -0.9
v 0.1 3.3 0.7
v 0.1 3.3 0.5
v 0.1 3.3 0.3
v 0.1 3.3 -0.4
v 0.1 3.3 -0.6
v 0.1 3.3 -0.8
v 0.1 3.4 0.5
v 0.1 3.4 0.3
v 0.1 3.4 -0.4
v 0.1 3.4 -0.6
v 0.1 3.5 0.3
v 0.1 3.5 -0.4
v 0.5 2.1 0.4
v 0.5 2.1 -0.5
v 0.5 2.4 0.4
v 0.5 2.4 -0.5
v -0.1 1.9 1.2
v -0.1 2.6 1.2
v 0.1 1.9 1.2
v 0.1 2.6 1.2
v -0.2 1.9 1.1
v -0.2 2.6 1.1
v -0.1 1.7 1.1
v -0.1 1.9 1.1
v -0.1 2.6 1.1
v -0.1 2.8 1.1
v 0.1 1.7 1.1
v 0.1 1.9 1.1
v 0.1 2.6 1.1
v 0.1 2.8 1.1
v -0.2 1.7 1
v -0.2 1.9 1
v -0.2 2.6 1
v -0.2 2.8 1
v -0.1 1.5 1
v -0.1 1.7 1
v -0.1 1.9 1
v -0.1 2.6 1
v -0.1 2.8 1
v -0.1 3 1
v 0 1.5 1
v 0 1.6 1
v 0.1 1.6 1
v 0.1 1.7 1
v 0.1 2.8 1
v 0.1 3 1
v -0.2 1.5 0.9
v -0.2 1.7 0.9
v -0.2 2.8 0.9
v -0.2 3 0.9
v -0.1 1.4 0.9
v -0.1 1.5 0.9
v -0.1 1.7 0.9
v -0.1 2.8 0.9
v -0.1 3 0.9
v -0.1 3.1 0.9
v 0 1.5 0.9
v 0 1.6 0.9
v 0.1 1.4 0.9
v 0.1 1.6 0.9
v 0.1 3 0.9
v 0.1 3.1 0.9
v -0.2 1.4 0.8
v -0.2 1.5 0.8
v -0.2 3 0.8
v -0.2 3.1 0.8
v -0.1 1.3 0.8
v -0.1 1.4 0.8
v -0.1 1.5 0.8
v -0.1 3 0.8
v -0.1 3.1 0.8
v -0.1 3.2 0.8
v 0.1 1.3 0.8
v 0.1 1.4 0.8
v 0.1 3.1 0.8
v 0.1 3.2 0.8
v -0.2 1.3 0.7
v -0.2 1.4 0.7
v -0.2 3.1 0.7
v -0.2 3.2 0.7
v -0.1 1.2 0.7
v -0.1 1.3 0.7
v -0.1 1.4 0.7
v -0.1 3.1 0.7
v -0.1 3.2 0.7
v -0.1 3.3 0.7
v 0.1 1.2 0.7
v 0.1 1.3 0.7
v 0.1 3.2 0.7
v 0.1 3.3 0.7
v -0.2 1.2 0.5
v -0.2 1.3 0.5
v -0.2 3.2 0.5
v -0.2 3.3 0.5
v -0.1 1.1 0.5
v -0.1 1.2 0.5
v -0.1 1.3 0.5
v -0.1 3.2 0.5
v -0.1 3.3 0.5
v -0.1 3.4 0.5
v 0.1 1.1 0.5
v 0.1 1.2 0.5
v 0.1 3.3 0.5
v 0.1 3.4 0.5
v 0.1 2.1 0.4
v 0.1 2.4 0.4
v 0.5 2.1 0.4
v 0.5 2.4 0.4
v -0.3 2.1 0.3
v -0.3 2.4 0.3
v -0.2 1.1 0.3
v -0.2 1.2 0.3
v -0.2 2.1 0.3
v -0.2 2.4 0.3
v -0.2 3.3 0.3
v -0.2 3.4 0.3
v -0.1 1 0.3
v -0.1 1.1 0.3
v -0.1 1.2 0.3
v -0.1 3.3 0.3
v -0.1 3.4 0.3
v -0.1 3.5 0.3
v 0.1 1 0.3
v 0.1 1.1 0.3
v 0.1 3.4 0.3
v 0.1 3.5 0.3
v -0.4 2.2 0.2
v -0.4 2.3 0.2
v -0.3 2 0.2
v -0.3 2.1 0.2
v -0.3 2.2 0.2
v -0.3 2.3 0.2
v -0.3 2.4 0.2
v -0.3 2.5 0.2
v -0.2 2 0.2
v -0.2 2.1 0.2
v -0.2 2.4 0.2
v -0.2 2.5 0.2
v -0.4 2.1 0.1
v -0.4 2.2 0.1
v -0.4 2.3 0.1
v -0.4 2.4 0.1
v -0.3 1.9 0.1
v -0.3 2 0.1
v -0.3 2.1 0.1
v -0.3 2.2 0.1
v -0.3 2.3 0.1
v -0.3 2.4 0.1
v -0.3 2.5 0.1
v -0.3 2.6 0.1
v -0.2 1.9 0.1
v -0.2 2 0.1
v -0.2 2.5 0.1
v -0.2 2.6 0.1
v -0.4 2 0
v -0.4 2.1 0
v -0.4 2.4 0
v -0.4 2.5 0
v -0.3 2 0
v -0.3 2.1 0
v -0.3 2.4 0
v -0.3 2.5 0
v 0.1 2.1 -0.4
v 0.1 2.4 -0.4
v 0.4 2.1 -0.4
v 0.4 2.4 -0.4
v 0.1 2.1 0.3
v 0.1 2.4 0.3
v 0.4 2.1 0.3
v 0.4 2.4 0.3
v -0.4 2 -0.0999999
v -0.4 2.1 -0.0999999
v -0.4 2.4 -0.0999999
v -0.4 2.5 -0.0999999
v -0.3 2 -0.0999999
v -0.3 2.1 -0.0999999
v -0.3 2.4 -0.0999999
v -0.3 2.5 -0.0999999
v -0.4 2.1 -0.2
v -0.4 2.2 -0.2
v -0.4 2.3 -0.2
v -0.4 2.4 -0.2
v -0.3 1.9 -0.2
v -0.3 2 -0.2
v -0.3 2.1 -0.2
v -0.3 2.2 -0.2
v -0.3 2.3 -0.2
v -0.3 2.4 -0.2
v -0.3 2.5 -0.2
v -0.3 2.6 -0.2
v -0.2 1.9 -0.2
v -0.2 2 -0.2
v -0.2 2.5 -0.2
v -0.2 2.6 -0.2
v -0.4 2.2 -0.3
v -0.4 2.3 -0.3
v -0.3 2 -0.3
v -0.3 2.1 -0.3
v -0.3 2.2 -0.3
v -0.3 2.3 -0.3
v -0.3 2.4 -0.3
v -0.3 2.5 -0.3
v -0.2 2 -0.3
v -0.2 2.1 -0.3
v -0.2 2.4 -0.3
v -0.2 2.5 -0.3
v -0.3 2.1 -0.4
v -0.3 2.4 -0.4
v -0.2 1.1 -0.4
v -0.2 1.2 -0.4
v -0.2 2.1 -0.4
v -0.2 2.3 -0.4
v -0.2 2.4 -0.4
v -0.2 3.3 -0.4
v -0.2 3.4 -0.4
v -0.1 1 -0.4
v -0.1 1.1 -0.4
v -0.1 1.2 -0.4
v -0.1 3.3 -0.4
v -0.1 3.4 -0.4
v -0.1 3.5 -0.4
v 0.1 1 -0.4
v 0.1 1.1 -0.4
v 0.1 3.4 -0.4
v 0.1 3.5 -0.4
v 0.1 2.1 -0.5
v 0.1 2.4 -0.5
v 0.5 2.1 -0.5
v 0.5 2.4 -0.5
v -0.2 1.2 -0.6
v -0.2 1.3 -0.6
v -0.2 3.2 -0.6
v -0.2 3.3 -0.6
v -0.1 1.1 -0.6
v -0.1 1.2 -0.6
v -0.1 1.3 -0.6
v -0.1 3.2 -0.6
v -0.1 3.3 -0.6
v -0.1 3.4 -0.6
v 0.1 1.1 -0.6
v 0.1 1.2 -0.6
v 0.1 3.3 -0.6
v 0.1 3.4 -0.6
v -0.2 1.3 -0.8
v -0.2 1.4 -0.8
v -0.2 3.1 -0.8
v -0.2 3.2 -0.8
v -0.1 1.2 -0.8
v -0.1 1.3 -0.8
v -0.1 1.4 -0.8
v -0.1 3.1 -0.8
v -0.1 3.2 -0.8
v -0.1 3.3 -0.8
v 0.1 1.2 -0.8
v 0.1 1.3 -0.8
v 0.1 3.2 -0.8
v 0.1 3.3 -0.8
v -0.2 1.4 -0.9
v -0.2 1.5 -0.9
v -0.2 3 -0.9
v -0.2 3.1 -0.9
v -0.1 1.3 -0.9
v -0.1 1.4 -0.9
v -0.1 1.5 -0.9
v -0.1 3 -0.9
v -0.1 3.1 -0.9
v -0.1 3.2 -0.9
v 0.1 1.3 -0.9
v 0.1 1.4 -0.9
v 0.1 3.1 -0.9
v 0.1 3.2 -0.9
v -0.2 1.5 -1
v -0.2 1.7 -1
v -0.2 2.8 -1
v -0.2 3 -1
v -0.1 1.4 -1
v -0.1 1.5 -1
v -0.1 1.7 -1
v -0.1 2.8 -1
v -0.1 3 -1
v -0.1 3.1 -1
v 0.1 1.4 -1
v 0.1 1.5 -1
v 0.1 3 -1
v 0.1 3.1 -1
v -0.2 1.7 -1.1
v -0.2 1.9 -1.1
v -0.2 2.6 -1.1
v -0.2 2.8 -1.1
v -0.1 1.5 -1.1
v -0.1 1.7 -1.1
v -0.1 1.9 -1.1
v -0.1 2.6 -1.1
v -0.1 2.8 -1.1
v -0.1 3 -1.1
v 0.1 1.5 -1.1
v 0.1 1.7 -1.1
v 0.1 2.8 -1.1
v 0.1 3 -1.1
v -0.2 1.9 -1.2
v -0.2 2.6 -1.2
v -0.1 1.7 -1.2
v -0.1 1.9 -1.2
v -0.1 2.6 -1.2
v -0.1 2.8 -1.2
v 0.1 1.7 -1.2
v 0.1 1.9 -1.2
v 0.1 2.6 -1.2
v 0.1 2.8 -1.2
v -0.1 1.9 -1.3
v -0.1 2.6 -1.3
v 0.1 1.9 -1.3
v 0.1 2.6 -1.3
v -0.1 1 0.3
v 0.1 1 0.3
v -0.1 1 -0.4
v 0.1 1 -0.4
v -0.1 1.1 0.5
v 0.1 1.1 0.5
v -0.2 1.1 0.3
v -0.1 1.1 0.3
v 0.1 1.1 0.3
v -0.2 1.1 -0.4
v -0.1 1.1 -0.4
v 0.1 1.1 -0.4
v -0.1 1.1 -0.6
v 0.1 1.1 -0.6
v -0.1 1.2 0.7
v 0.1 1.2 0.7
v -0.2 1.2 0.5
v -0.1 1.2 0.5
v 0.1 1.2 0.5
v -0.2 1.2 0.3
v -0.1 1.2 0.3
v -0.2 1.2 -0.4
v -0.1 1.2 -0.4
v -0.2 1.2 -0.6
v -0.1 1.2 -0.6
v 0.1 1.2 -0.6
v -0.1 1.2 -0.8
v 0.1 1.2 -0.8
v -0.1 1.3 0.8
v 0.1 1.3 0.8
v -0.2 1.3 0.7
v -0.1 1.3 0.7
v 0.1 1.3 0.7
v -0.2 1.3 0.5
v -0.1 1.3 0.5
v -0.2 1.3 -0.6
v -0.1 1.3 -0.6
v -0.2 1.3 -0.8
v -0.1 1.3 -0.8
v 0.1 1.3 -0.8
v -0.1 1.3 -0.9
v 0.1 1.3 -0.9
v -0.1 1.4 0.9
v 0.1 1.4 0.9
v -0.2 1.4 0.8
v -0.1 1.4 0.8
v 0.1 1.4 0.8
v -0.2 1.4 0.7
v -0.1 1.4 0.7
v -0.2 1.4 -0.8
v -0.1 1.4 -0.8
v -0.2 1.4 -0.9
v -0.1 1.4 -0.9
v 0.1 1.4 -0.9
v -0.1 1.4 -1
v 0.1 1.4 -1
v -0.1 1.5 1
v 0 1.5 1
v -0.2 1.5 0.9
v -0.1 1.5 0.9
v 0 1.5 0.9
v -0.2 1.5 0.8
v -0.1 1.5 0.8
v -0.2 1.5 -0.9
v -0.1 1.5 -0.9
v -0.2 1.5 -1
v -0.1 1.5 -1
v 0.1 1.5 -1
v -0.1 1.5 -1.1
v 0.1 1.5 -1.1
v 0 1.6 1
v 0.1 1.6 1
v 0 1.6 0.9
v 0.1 1.6 0.9
v -0.1 1.7 1.1
v 0.1 1.7 1.1
v -0.2 1.7 1
v -0.1 1.7 1
v 0.1 1.7 1
v -0.2 1.7 0.9
v -0.1 1.7 0.9
v -0.2 1.7 -1
v -0.1 1.7 -1
v -0.2 1.7 -1.1
v -0.1 1.7 -1.1
v 0.1 1.7 -1.1
v -0.1 1.7 -1.2
v 0.1 1.7 -1.2
v -0.1 1.9 1.2
v 0.1 1.9 1.2
v -0.2 1.9 1.1
v -0.1 1.9 1.1
v 0.1 1.9 1.1
v -0.2 1.9 1
v -0.1 1.9 1
v -0.3 1.9 0.1
v -0.2 1.9 0.1
v -0.3 1.9 -0.2
v -0.2 1.9 -0.2
v -0.2 1.9 -1.1
v -0.1 1.9 -1.1
v -0.2 1.9 -1.2
v -0.1 1.9 -1.2
v 0.1 1.9 -1.2
v -0.1 1.9 -1.3
v 0.1 1.9 -1.3
v -0.3 2 0.2
v -0.2 2 0.2
v -0.3 2 0.1
v -0.2 2 0.1
v -0.4 2 0
v -0.3 2 0
v -0.4 2 -0.0999999
v -0.3 2 -0.0999999
v -0.3 2 -0.2
v -0.2 2 -0.2
v -0.3 2 -0.3
v -0.2 2 -0.3
v 0.1 2.1 0.4
v 0.5 2.1 0.4
v -0.3 2.1 0.3
v -0.2 2.1 0.3
v 0.1 2.1 0.3
v 0.4 2.1 0.3
v -0.3 2.1 0.2
v -0.2 2.1 0.2
v -0.4 2.1 0.1
v -0.3 2.1 0.1
v -0.4 2.1 0
v -0.3 2.1 0
v -0.4 2.1 -0.0999999
v -0.3 2.1 -0.0999999
v -0.4 2.1 -0.2
v -0.3 2.1 -0.2
v -0.3 2.1 -0.3
v -0.2 2.1 -0.3
v -0.3 2.1 -0.4
v -0.2 2.1 -0.4
v 0.1 2.1 -0.4
v 0.4 2.1 -0.4
v 0.1 2.1 -0.5
v 0.5 2.1 -0.5
v -0.4 2.2 0.2
v -0.3 2.2 0.2
v -0.4 2.2 0.1
v -0.3 2.2 0.1
v -0.4 2.2 -0.2
v -0.3 2.2 -0.2
v -0.4 2.2 -0.3
v -0.3 2.2 -0.3
v -0.4 2.3 0.2
v -0.3 2.3 0.2
v -0.4 2.3 0.1
v -0.3 2.3 0.1
v -0.4 2.3 -0.2
v -0.3 2.3 -0.2
v -0.4 2.3 -0.3
v -0.3 2.3 -0.3
v 0.1 2.4 0.4
v 0.5 2.4 0.4
v -0.3 2.4 0.3
v -0.2 2.4 0.3
v 0.1 2.4 0.3
v 0.4 2.4 0.3
v -0.3 2.4 0.2
v -0.2 2.4 0.2
v -0.4 2.4 0.1
v -0.3 2.4 0.1
v -0.4 2.4 0
v -0.3 2.4 0
v -0.4 2.4 -0.0999999
v -0.3 2.4 -0.0999999
v -0.4 2.4 -0.2
v -0.3 2.4 -0.2
v -0.3 2.4 -0.3
v -0.2 2.4 -0.3
v -0.3 2.4 -0.4
v -0.2 2.4 -0.4
v 0.1 2.4 -0.4
v 0.4 2.4 -0.4
v 0.1 2.4 -0.5
v 0.5 2.4 -0.5
v -0.3 2.5 0.2
v -0.2 2.5 0.2
v -0.3 2.5 0.1
v -0.2 2.5 0.1
v -0.4 2.5 0
v -0.3 2.5 0
v -0.4 2.5 -0.0999999
v -0.3 2.5 -0.0999999
v -0.3 2.5 -0.2
v -0.2 2.5 -0.2
v -0.3 2.5 -0.3
v -0.2 2.5 -0.3
v -0.1 2.6 1.2
v 0.1 2.6 1.2
v -0.2 2.6 1.1
v -0.1 2.6 1.1
v 0.1 2.6 1.1
v -0.2 2.6 1
v -0.1 2.6 1
v -0.3 2.6 0.1
v -0.2 2.6 0.1
v -0.2 2.6 -0.0999999
v -0.3 2.6 -0.2
v -0.2 2.6 -0.2
v -0.2 2.6 -1.1
v -0.1 2.6 -1.1
v -0.2 2.6 -1.2
v -0.1 2.6 -1.2
v 0.1 2.6 -1.2
v -0.1 2.6 -1.3
v 0.1 2.6 -1.3
v -0.1 2.8 1.1
v 0.1 2.8 1.1
v -0.2 2.8 1
v -0.1 2.8 1
v 0.1 2.8 1
v -0.2 2.8 0.9
v -0.1 2.8 0.9
v -0.2 2.8 -1
v -0.1 2.8 -1
v -0.2 2.8 -1.1
v -0.1 2.8 -1.1
v 0.1 2.8 -1.1
v -0.1 2.8 -1.2
v 0.1 2.8 -1.2
v -0.1 3 1
v 0.1 3 1
v -0.2 3 0.9
v -0.1 3 0.9
v 0.1 3 0.9
v -0.2 3 0.8
v -0.1 3 0.8
v -0.2 3 -0.9
v -0.1 3 -0.9
v -0.2 3 -1
v -0.1 3 -1
v 0.1 3 -1
v -0.1 3 -1.1
v 0.1 3 -1.1
v -0.1 3.1 0.9
v 0.1 3.1 0.9
v -0.2 3.1 0.8
v -0.1 3.1 0.8
v 0.1 3.1 0.8
v -0.2 3.1 0.7
v -0.1 3.1 0.7
v -0.2 3.1 -0.8
v -0.1 3.1 -0.8
v -0.2 3.1 -0.9
v -0.1 3.1 -0.9
v 0.1 3.1 -0.9
v -0.1 3.1 -1
v 0.1 3.1 -1
v -0.1 3.2 0.8
v 0.1 3.2 0.8
v -0.2 3.2 0.7
v -0.1 3.2 0.7
v 0.1 3.2 0.7
v -0.2 3.2 0.5
v -0.1 3.2 0.5
v -0.2 3.2 -0.6
v -0.1 3.2 -0.6
v -0.2 3.2 -0.8
v -0.1 3.2 -0.8
v 0.1 3.2 -0.8
v -0.1 3.2 -0.9
v 0.1 3.2 -0.9
v -0.1 3.3 0.7
v 0.1 3.3 0.7
v -0.2 3.3 0.5
v -0.1 3.3 0.5
v 0.1 3.3 0.5
v -0.2 3.3 0.3
v -0.1 3.3 0.3
v -0.2 3.3 -0.4
v -0.1 3.3 -0.4
v -0.2 3.3 -0.6
v -0.1 3.3 -0.6
v 0.1 3.3 -0.6
v -0.1 3.3 -0.8
v 0.1 3.3 -0.8
v -0.1 3.4 0.5
v 0.1 3.4 0.5
v -0.2 3.4 0.3
v -0.1 3.4 0.3
v 0.1 3.4 0.3
v -0.2 3.4 -0.4
v -0.1 3.4 -0.4
v 0.1 3.4 -0.4
v -0.1 3.4 -0.6
v 0.1 3.4 -0.6
v -0.1 3.5 0.3
v 0.1 3.5 0.3
v -0.1 3.5 -0.4
v 0.1 3.5 -0.4

# faces
f 4/5/1 2/5/1 1/5/1
f 5/5/1 2/5/1 4/5/1
f 8/5/1 4/5/1 3/5/1
f 8/5/1 6/5/1 5/5/1
f 8/5/1 5/5/1 4/5/1
f 9/5/1 6/5/1 8/5/1
f 11/5/1 8/5/1 7/5/1
f 11/5/1 10/5/1 9/5/1
f 11/5/1 9/5/1 8/5/1
f 12/5/1 10/5/1 11/5/1
f 13/5/1 10/5/1 12/5/1
f 14/5/1 10/5/1 13/5/1
f 15/5/1 13/5/1 12/5/1
f 16/5/1 13/5/1 15/5/1
f 17/5/1 13/5/1 16/5/1
f 18/5/1 13/5/1 17/5/1
f 19/5/1 17/5/1 16/5/1
f 20/5/1 17/5/1 19/5/1
f 24/4/1 22/4/1 21/4/1
f 25/4/1 22/4/1 24/4/1
f 26/4/1 22/4/1 25/4/1
f 27/4/1 22/4/1 26/4/1
f 30/4/1 24/4/1 23/4/1
f 30/4/1 25/4/1 24/4/1
f 31/4/1 25/4/1 30/4/1
f 32/4/1 25/4/1 31/4/1
f 33/4/1 27/4/1 26/4/1
f 33/4/1 28/4/1 27/4/1
f 34/4/1 28/4/1 33/4/1
f 35/4/1 28/4/1 34/4/1
f 37/4/1 31/4/1 30/4/1
f 37/4/1 30/4/1 29/4/1
f 38/4/1 31/4/1 37/4/1
f 39/4/1 36/4/1 35/4/1
f 39/4/1 35/4/1 34/4/1
f 40/4/1 36/4/1 39/4/1
f 41/4/1 37/4/1 29/4/1
f 44/4/1 36/4/1 40/4/1
f 45/4/1 42/4/1 41/4/1
f 45/4/1 41/4/1 29/4/1
f 46/4/1 42/4/1 45/4/1
f 47/4/1 42/4/1 46/4/1
f 50/4/1 44/4/1 43/4/1
f 51/4/1 36/4/1 44/4/1
f 51/4/1 44/4/1 50/4/1
f 52/4/1 36/4/1 51/4/1
f 53/4/1 48/4/1 47/4/1
f 53/4/1 47/4/1 46/4/1
f 54/4/1 48/4/1 53/4/1
f 55/4/1 48/4/1 54/4/1
f 56/4/1 50/4/1 49/4/1
f 56/4/1 51/4/1 50/4/1
f 57/4/1 51/4/1 56/4/1
f 58/4/1 51/4/1 57/4/1
f 59/4/1 55/4/1 54/4/1
f 59/4/1 57/4/1 56/4/1
f 59/4/1 56/4/1 55/4/1
f 60/4/1 57/4/1 59/4/1
f 64/4/1 62/4/1 61/4/1
f 65/4/1 62/4/1 64/4/1
f 66/4/1 62/4/1 65/4/1
f 67/4/1 62/4/1 66/4/1
f 68/4/1 62/4/1 67/4/1
f 69/4/1 62/4/1 68/4/1
f 72/4/1 64/4/1 63/4/1
f 73/1/1 65/1/1 64/1/1
f 73/4/1 64/4/1 72/4/1
f 74/3/1 67/3/1 66/3/1
f 75/2/1 68/2/1 67/2/1
f 75/3/1 67/3/1 74/3/1
f 76/3/1 69/3/1 68/3/1
f 76/2/1 68/2/1 75/2/1
f 77/4/1 70/4/1 69/4/1
f 77/3/1 69/3/1 76/3/1
f 78/4/1 70/4/1 77/4/1
f 81/4/1 72/4/1 71/4/1
f 82/4/1 72/4/1 81/4/1
f 83/3/1 73/3/1 72/3/1
f 83/4/1 72/4/1 82/4/1
f 84/3/1 74/3/1 66/3/1
f 85/1/1 75/1/1 74/1/1
f 85/3/1 74/3/1 84/3/1
f 86/1/1 77/1/1 76/1/1
f 86/3/1 78/3/1 77/3/1
f 87/3/1 78/3/1 86/3/1
f 88/4/1 79/4/1 78/4/1
f 88/3/1 78/3/1 87/3/1
f 89/4/1 79/4/1 88/4/1
f 90/4/1 79/4/1 89/4/1
f 93/4/1 81/4/1 80/4/1
f 94/3/1 82/3/1 81/3/1
f 94/4/1 81/4/1 93/4/1
f 95/3/1 73/3/1 83/3/1
f 96/1/1 65/1/1 73/1/1
f 96/3/1 73/3/1 95/3/1
f 97/2/1 66/2/1 65/2/1
f 97/3/1 84/3/1 66/3/1
f 98/1/1 85/1/1 84/1/1
f 98/3/1 84/3/1 97/3/1
f 99/4/1 91/4/1 90/4/1
f 99/3/1 90/3/1 89/3/1
f 100/4/1 91/4/1 99/4/1
f 102/1/1 65/1/1 96/1/1
f 102/1/1 96/1/1 95/1/1
f 103/2/1 97/2/1 65/2/1
f 103/1/1 65/1/1 102/1/1
f 104/1/1 75/1/1 85/1/1
f 104/1/1 85/1/1 98/1/1
f 104/1/1 98/1/1 97/1/1
f 105/2/1 76/2/1 75/2/1
f 105/1/1 75/1/1 104/1/1
f 107/4/1 93/4/1 92/4/1
f 108/3/1 94/3/1 93/3/1
f 108/4/1 93/4/1 107/4/1
f 109/1/1 104/1/1 97/1/1
f 110/3/1 105/3/1 104/3/1
f 110/1/1 104/1/1 109/1/1
f 111/1/1 87/1/1 86/1/1
f 111/2/1 76/2/1 105/2/1
f 111/1/1 86/1/1 76/1/1
f 112/1/1 87/1/1 111/1/1
f 113/3/1 88/3/1 87/3/1
f 113/1/1 87/1/1 112/1/1
f 114/2/1 89/2/1 88/2/1
f 114/3/1 88/3/1 113/3/1
f 115/4/1 101/4/1 100/4/1
f 115/3/1 100/3/1 99/3/1
f 116/4/1 101/4/1 115/4/1
f 118/3/1 95/3/1 83/3/1
f 118/2/1 83/2/1 82/2/1
f 119/1/1 102/1/1 95/1/1
f 119/3/1 95/3/1 118/3/1
f 120/3/1 103/3/1 102/3/1
f 120/1/1 102/1/1 119/1/1
f 121/2/1 97/2/1 103/2/1
f 121/3/1 103/3/1 120/3/1
f 122/1/1 109/1/1 97/1/1
f 122/2/1 97/2/1 121/2/1
f 123/3/1 110/3/1 109/3/1
f 123/1/1 109/1/1 122/1/1
f 124/1/1 114/1/1 113/1/1
f 124/3/1 112/3/1 111/3/1
f 124/1/1 113/1/1 112/1/1
f 125/2/1 89/2/1 114/2/1
f 125/1/1 114/1/1 124/1/1
f 127/4/1 107/4/1 106/4/1
f 128/3/1 108/3/1 107/3/1
f 128/4/1 107/4/1 127/4/1
f 129/3/1 94/3/1 108/3/1
f 129/3/1 108/3/1 128/3/1
f 129/3/1 82/3/1 94/3/1
f 130/2/1 118/2/1 82/2/1
f 130/3/1 82/3/1 129/3/1
f 131/1/1 120/1/1 119/1/1
f 131/1/1 119/1/1 118/1/1
f 131/1/1 121/1/1 120/1/1
f 132/1/1 121/1/1 131/1/1
f 133/2/1 122/2/1 121/2/1
f 133/3/1 123/3/1 122/3/1
f 134/3/1 105/3/1 110/3/1
f 134/3/1 123/3/1 133/3/1
f 134/3/1 110/3/1 123/3/1
f 134/2/1 111/2/1 105/2/1
f 135/3/1 115/3/1 99/3/1
f 135/3/1 99/3/1 89/3/1
f 135/2/1 89/2/1 125/2/1
f 136/3/1 115/3/1 135/3/1
f 137/4/1 117/4/1 116/4/1
f 137/2/1 116/2/1 115/2/1
f 138/4/1 117/4/1 137/4/1
f 140/1/1 131/1/1 118/1/1
f 140/2/1 118/2/1 130/2/1
f 141/3/1 132/3/1 131/3/1
f 141/1/1 131/1/1 140/1/1
f 142/1/1 121/1/1 132/1/1
f 142/3/1 132/3/1 141/3/1
f 143/2/1 133/2/1 121/2/1
f 143/1/1 121/1/1 142/1/1
f 144/2/1 133/2/1 143/2/1
f 145/2/1 111/2/1 134/2/1
f 146/3/1 124/3/1 111/3/1
f 146/2/1 111/2/1 145/2/1
f 146/3/1 125/3/1 124/3/1
f 147/3/1 125/3/1 146/3/1
f 148/2/1 135/2/1 125/2/1
f 148/3/1 125/3/1 147/3/1
f 149/3/1 115/3/1 136/3/1
f 149/1/1 136/1/1 135/1/1
f 150/2/1 137/2/1 115/2/1
f 150/3/1 115/3/1 149/3/1
f 151/3/1 129/3/1 128/3/1
f 152/1/1 130/1/1 129/1/1
f 152/3/1 129/3/1 151/3/1
f 153/1/1 142/1/1 141/1/1
f 153/1/1 143/1/1 142/1/1
f 154/1/1 143/1/1 153/1/1
f 155/3/1 147/3/1 146/3/1
f 156/3/1 147/3/1 155/3/1
f 157/1/1 148/1/1 147/1/1
f 157/3/1 147/3/1 156/3/1
f 158/2/1 135/2/1 148/2/1
f 158/1/1 150/1/1 149/1/1
f 158/1/1 149/1/1 135/1/1
f 159/1/1 150/1/1 158/1/1
f 160/1/1 128/1/1 127/1/1
f 160/3/1 151/3/1 128/3/1
f 161/1/1 152/1/1 151/1/1
f 161/3/1 151/3/1 160/3/1
f 162/1/1 150/1/1 159/1/1
f 162/3/1 159/3/1 158/3/1
f 163/2/1 137/2/1 150/2/1
f 163/1/1 150/1/1 162/1/1
f 164/3/1 138/3/1 137/3/1
f 164/2/1 137/2/1 163/2/1
f 165/4/1 139/4/1 138/4/1
f 165/3/1 138/3/1 164/3/1
f 166/1/1 152/1/1 161/1/1
f 166/1/1 130/1/1 152/1/1
f 166/1/1 161/1/1 160/1/1
f 167/2/1 140/2/1 130/2/1
f 167/1/1 130/1/1 166/1/1
f 168/3/1 141/3/1 140/3/1
f 168/2/1 140/2/1 167/2/1
f 169/1/1 153/1/1 141/1/1
f 169/3/1 141/3/1 168/3/1
f 170/1/1 157/1/1 156/1/1
f 171/1/1 148/1/1 157/1/1
f 171/1/1 157/1/1 170/1/1
f 172/3/1 163/3/1 162/3/1
f 172/3/1 162/3/1 158/3/1
f 172/2/1 158/2/1 148/2/1
f 173/3/1 163/3/1 172/3/1
f 174/1/1 165/1/1 164/1/1
f 174/2/1 164/2/1 163/2/1
f 175/4/1 139/4/1 165/4/1
f 175/1/1 165/1/1 174/1/1
f 176/4/1 127/4/1 126/4/1
f 176/1/1 166/1/1 160/1/1
f 176/1/1 160/1/1 127/1/1
f 177/1/1 166/1/1 176/1/1
f 178/1/1 169/1/1 168/1/1
f 178/1/1 153/1/1 169/1/1
f 181/3/1 171/3/1 170/3/1
f 182/3/1 163/3/1 173/3/1
f 182/1/1 173/1/1 172/1/1
f 183/2/1 174/2/1 163/2/1
f 183/3/1 163/3/1 182/3/1
f 184/1/1 166/1/1 177/1/1
f 184/3/1 177/3/1 176/3/1
f 185/3/1 167/3/1 166/3/1
f 185/1/1 166/1/1 184/1/1
f 186/3/1 179/3/1 178/3/1
f 189/1/1 181/1/1 180/1/1
f 190/3/1 171/3/1 181/3/1
f 190/1/1 181/1/1 189/1/1
f 191/1/1 148/1/1 171/1/1
f 191/3/1 171/3/1 190/3/1
f 192/2/1 172/2/1 148/2/1
f 192/1/1 148/1/1 191/1/1
f 193/1/1 182/1/1 172/1/1
f 193/2/1 172/2/1 192/2/1
f 193/1/1 183/1/1 182/1/1
f 194/1/1 183/1/1 193/1/1
f 195/4/1 176/4/1 126/4/1
f 196/3/1 184/3/1 176/3/1
f 196/4/1 176/4/1 195/4/1
f 196/3/1 185/3/1 184/3/1
f 197/3/1 185/3/1 196/3/1
f 198/2/1 187/2/1 186/2/1
f 200/1/1 189/1/1 188/1/1
f 201/3/1 190/3/1 189/3/1
f 201/1/1 189/1/1 200/1/1
f 202/2/1 174/2/1 183/2/1
f 202/3/1 175/3/1 174/3/1
f 203/4/1 139/4/1 175/4/1
f 203/3/1 175/3/1 202/3/1
f 204/4/1 139/4/1 203/4/1
f 205/1/1 178/1/1 168/1/1
f 206/3/1 186/3/1 178/3/1
f 206/1/1 178/1/1 205/1/1
f 207/3/1 192/3/1 191/3/1
f 207/1/1 191/1/1 190/1/1
f 208/2/1 193/2/1 192/2/1
f 208/3/1 192/3/1 207/3/1
f 209/3/1 194/3/1 193/3/1
f 209/2/1 193/2/1 208/2/1
f 210/1/1 183/1/1 194/1/1
f 210/3/1 194/3/1 209/3/1
f 211/2/1 202/2/1 183/2/1
f 211/1/1 183/1/1 210/1/1
f 212/4/1 197/4/1 196/4/1
f 213/3/1 185/3/1 197/3/1
f 213/4/1 197/4/1 212/4/1
f 214/3/1 185/3/1 213/3/1
f 215/3/1 199/3/1 198/3/1
f 216/1/1 200/1/1 199/1/1
f 216/3/1 199/3/1 215/3/1
f 217/2/1 201/2/1 200/2/1
f 217/1/1 200/1/1 216/1/1
f 218/3/1 190/3/1 201/3/1
f 218/2/1 201/2/1 217/2/1
f 219/1/1 208/1/1 207/1/1
f 219/3/1 190/3/1 218/3/1
f 219/1/1 207/1/1 190/1/1
f 220/2/1 202/2/1 211/2/1
f 220/3/1 211/3/1 210/3/1
f 221/4/1 203/4/1 202/4/1
f 221/2/1 202/2/1 220/2/1
f 222/4/1 203/4/1 221/4/1
f 223/1/1 208/1/1 219/1/1
f 223/1/1 219/1/1 218/1/1
f 224/1/1 208/1/1 223/1/1
f 225/1/1 210/1/1 209/1/1
f 225/3/1 220/3/1 210/3/1
f 226/4/1 221/4/1 220/4/1
f 226/3/1 220/3/1 225/3/1
f 227/4/1 214/4/1 213/4/1
f 228/3/1 185/3/1 214/3/1
f 228/4/1 214/4/1 227/4/1
f 229/3/1 167/3/1 185/3/1
f 229/3/1 185/3/1 228/3/1
f 230/2/1 209/2/1 208/2/1
f 230/1/1 225/1/1 209/1/1
f 230/1/1 226/1/1 225/1/1
f 231/1/1 226/1/1 230/1/1
f 232/4/1 221/4/1 226/4/1
f 232/1/1 226/1/1 231/1/1
f 233/4/1 221/4/1 232/4/1
f 234/4/1 229/4/1 228/4/1
f 235/3/1 167/3/1 229/3/1
f 235/4/1 229/4/1 234/4/1
f 236/2/1 168/2/1 167/2/1
f 236/3/1 167/3/1 235/3/1
f 237/1/1 205/1/1 168/1/1
f 237/2/1 168/2/1 236/2/1
f 238/1/1 208/1/1 224/1/1
f 238/2/1 230/2/1 208/2/1
f 239/3/1 231/3/1 230/3/1
f 239/2/1 230/2/1 238/2/1
f 240/4/1 232/4/1 231/4/1
f 240/3/1 231/3/1 239/3/1
f 241/4/1 232/4/1 240/4/1
f 242/4/1 236/4/1 235/4/1
f 242/4/1 237/4/1 236/4/1
f 243/1/1 205/1/1 237/1/1
f 243/4/1 237/4/1 242/4/1
f 244/3/1 206/3/1 205/3/1
f 244/1/1 205/1/1 243/1/1
f 245/3/1 186/3/1 206/3/1
f 245/3/1 206/3/1 244/3/1
f 246/3/1 224/3/1 223/3/1
f 246/1/1 223/1/1 218/1/1
f 247/1/1 238/1/1 224/1/1
f 247/3/1 224/3/1 246/3/1
f 248/4/1 240/4/1 239/4/1
f 248/1/1 238/1/1 247/1/1
f 248/4/1 239/4/1 238/4/1
f 249/4/1 240/4/1 248/4/1
f 250/4/1 244/4/1 243/4/1
f 250/4/1 245/4/1 244/4/1
f 251/3/1 186/3/1 245/3/1
f 251/4/1 245/4/1 250/4/1
f 252/2/1 198/2/1 186/2/1
f 252/3/1 186/3/1 251/3/1
f 253/3/1 215/3/1 198/3/1
f 253/2/1 198/2/1 252/2/1
f 254/1/1 216/1/1 215/1/1
f 254/3/1 215/3/1 253/3/1
f 255/3/1 217/3/1 216/3/1
f 255/1/1 216/1/1 254/1/1
f 256/2/1 218/2/1 217/2/1
f 256/3/1 217/3/1 255/3/1
f 257/1/1 246/1/1 218/1/1
f 257/2/1 218/2/1 256/2/1
f 258/4/1 248/4/1 247/4/1
f 258/1/1 246/1/1 257/1/1
f 258/4/1 247/4/1 246/4/1
f 259/4/1 248/4/1 258/4/1
f 260/4/1 252/4/1 251/4/1
f 260/4/1 254/4/1 253/4/1
f 260/4/1 258/4/1 257/4/1
f 260/4/1 253/4/1 252/4/1
f 260/4/1 257/4/1 256/4/1
f 260/4/1 256/4/1 255/4/1
f 260/4/1 255/4/1 254/4/1
f 261/4/1 258/4/1 260/4/1
f 265/4/1 263/4/1 262/4/1
f 266/4/1 263/4/1 265/4/1
f 269/4/1 265/4/1 264/4/1
f 270/4/1 265/4/1 269/4/1
f 271/4/1 267/4/1 266/4/1
f 272/4/1 267/4/1 271/4/1
f 275/4/1 269/4/1 268/4/1
f 276/4/1 269/4/1 275/4/1
f 277/4/1 273/4/1 272/4/1
f 278/4/1 273/4/1 277/4/1
f 281/4/1 275/4/1 274/4/1
f 282/4/1 275/4/1 281/4/1
f 283/4/1 279/4/1 278/4/1
f 284/4/1 279/4/1 283/4/1
f 287/4/1 281/4/1 280/4/1
f 288/4/1 281/4/1 287/4/1
f 289/4/1 285/4/1 284/4/1
f 290/4/1 285/4/1 289/4/1
f 293/4/1 287/4/1 286/4/1
f 294/4/1 287/4/1 293/4/1
f 295/4/1 291/4/1 290/4/1
f 296/4/1 291/4/1 295/4/1
f 299/4/1 293/4/1 292/4/1
f 300/4/1 293/4/1 299/4/1
f 301/4/1 297/4/1 296/4/1
f 302/4/1 297/4/1 301/4/1
f 304/4/1 299/4/1 298/4/1
f 305/4/1 299/4/1 304/4/1
f 308/4/1 303/4/1 302/4/1
f 309/4/1 303/4/1 308/4/1
f 310/4/1 306/4/1 305/4/1
f 311/4/1 306/4/1 310/4/1
f 314/4/1 308/4/1 307/4/1
f 315/4/1 308/4/1 314/4/1
f 316/4/1 312/4/1 311/4/1
f 317/4/1 312/4/1 316/4/1
f 320/4/1 314/4/1 313/4/1
f 321/4/1 314/4/1 320/4/1
f 322/4/1 318/4/1 317/4/1
f 323/4/1 318/4/1 322/4/1
f 326/4/1 320/4/1 319/4/1
f 327/4/1 320/4/1 326/4/1
f 328/4/1 324/4/1 323/4/1
f 329/4/1 324/4/1 328/4/1
f 332/4/1 326/4/1 325/4/1
f 333/4/1 326/4/1 332/4/1
f 334/4/1 330/4/1 329/4/1
f 335/4/1 330/4/1 334/4/1
f 338/4/1 332/4/1 331/4/1
f 339/4/1 332/4/1 338/4/1
f 340/4/1 336/4/1 335/4/1
f 341/4/1 336/4/1 340/4/1
f 342/4/1 338/4/1 337/4/1
f 343/4/1 338/4/1 342/4/1
f 344/4/1 342/4/1 341/4/1
f 345/4/1 342/4/1 344/4/1
f 348/5/1 347/5/1 346/5/1
f 349/5/1 347/5/1 348/5/1
f 350/4/2 351/4/2 352/4/2
f 352/4/2 351/4/2 353/4/2
f 354/4/2 355/4/2 357/4/2
f 357/4/2 355/4/2 358/4/2
f 356/4/2 357/4/2 361/4/2
f 358/4/2 359/4/2 361/4/2
f 357/4/2 358/4/2 361/4/2
f 361/4/2 359/4/2 362/4/2
f 362/4/2 359/4/2 363/4/2
f 363/4/2 359/4/2 364/4/2
f 360/4/2 361/4/2 367/4/2
f 361/4/2 362/4/2 367/4/2
f 367/4/2 362/4/2 368/4/2
f 362/3/2 363/3/2 369/3/2
f 368/4/2 362/4/2 369/4/2
f 364/4/2 365/4/2 370/4/2
f 369/3/2 363/3/2 370/3/2
f 363/4/2 364/4/2 370/4/2
f 370/4/2 365/4/2 371/4/2
f 371/4/2 365/4/2 372/4/2
f 366/4/2 367/4/2 375/4/2
f 367/4/2 368/4/2 375/4/2
f 375/4/2 368/4/2 376/4/2
f 368/3/2 369/3/2 377/3/2
f 376/4/2 368/4/2 377/4/2
f 369/3/2 370/3/2 377/3/2
f 370/3/2 371/3/2 377/3/2
f 372/4/2 373/4/2 378/4/2
f 377/3/2 371/3/2 378/3/2
f 371/4/2 372/4/2 378/4/2
f 378/4/2 373/4/2 379/4/2
f 379/4/2 373/4/2 380/4/2
f 376/3/2 377/3/2 382/3/2
f 380/4/2 381/4/2 382/4/2
f 379/4/2 380/4/2 382/4/2
f 378/3/2 379/3/2 382/3/2
f 377/3/2 378/3/2 382/3/2
f 382/4/2 381/4/2 383/4/2
f 383/4/2 381/4/2 384/4/2
f 375/4/2 376/4/2 387/4/2
f 374/4/2 375/4/2 387/4/2
f 387/4/2 376/4/2 388/4/2
f 376/3/2 382/3/2 389/3/2
f 388/4/2 376/4/2 389/4/2
f 382/3/2 383/3/2 389/3/2
f 387/4/2 388/4/2 391/4/2
f 386/4/2 387/4/2 391/4/2
f 391/4/2 388/4/2 392/4/2
f 388/3/2 389/3/2 393/3/2
f 392/4/2 388/4/2 393/4/2
f 384/4/2 385/4/2 394/4/2
f 393/3/2 389/3/2 394/3/2
f 383/4/2 384/4/2 394/4/2
f 389/3/2 383/3/2 394/3/2
f 394/4/2 385/4/2 395/4/2
f 395/4/2 385/4/2 396/4/2
f 390/4/2 391/4/2 399/4/2
f 391/4/2 392/4/2 399/4/2
f 399/4/2 392/4/2 400/4/2
f 392/3/2 393/3/2 401/3/2
f 400/4/2 392/4/2 401/4/2
f 393/3/2 394/3/2 401/3/2
f 394/3/2 395/3/2 401/3/2
f 396/4/2 397/4/2 402/4/2
f 401/3/2 395/3/2 402/3/2
f 395/4/2 396/4/2 402/4/2
f 402/4/2 397/4/2 403/4/2
f 403/4/2 397/4/2 404/4/2
f 400/3/2 401/3/2 406/3/2
f 401/3/2 402/3/2 406/3/2
f 402/3/2 403/3/2 406/3/2
f 406/3/2 403/3/2 407/3/2
f 407/3/2 403/3/2 408/3/2
f 408/3/2 403/3/2 409/3/2
f 400/3/2 406/3/2 410/3/2
f 407/3/2 408/3/2 411/3/2
f 411/3/2 408/3/2 412/3/2
f 409/3/2 403/3/2 413/3/2
f 399/4/2 400/4/2 414/4/2
f 398/4/2 399/4/2 414/4/2
f 414/4/2 400/4/2 415/4/2
f 412/3/2 413/3/2 416/3/2
f 415/4/2 400/4/2 416/4/2
f 411/3/2 412/3/2 416/3/2
f 400/3/2 410/3/2 416/3/2
f 410/3/2 411/3/2 416/3/2
f 416/3/2 413/3/2 417/3/2
f 413/3/2 403/3/2 418/3/2
f 417/3/2 413/3/2 418/3/2
f 404/4/2 405/4/2 419/4/2
f 418/3/2 403/3/2 419/3/2
f 403/4/2 404/4/2 419/4/2
f 419/4/2 405/4/2 420/4/2
f 420/4/2 405/4/2 421/4/2
f 416/4/2 417/4/2 422/4/2
f 415/4/2 416/4/2 422/4/2
f 422/4/2 417/4/2 423/4/2
f 417/3/2 418/3/2 424/3/2
f 423/4/2 417/4/2 424/4/2
f 424/3/2 418/3/2 425/3/2
f 425/3/2 418/3/2 426/3/2
f 419/4/2 420/4/2 427/4/2
f 426/3/2 418/3/2 427/3/2
f 418/4/2 419/4/2 427/4/2
f 427/4/2 420/4/2 428/4/2
f 428/4/2 420/4/2 429/4/2
f 424/4/2 425/4/2 430/4/2
f 423/4/2 424/4/2 430/4/2
f 430/4/2 425/4/2 431/4/2
f 425/3/2 426/3/2 432/3/2
f 431/4/2 425/4/2 432/4/2
f 432/3/2 426/3/2 433/3/2
f 433/3/2 426/3/2 434/3/2
f 427/4/2 428/4/2 435/4/2
f 434/3/2 426/3/2 435/3/2
f 426/4/2 427/4/2 435/4/2
f 435/4/2 428/4/2 436/4/2
f 436/4/2 428/4/2 437/4/2
f 432/4/2 433/4/2 438/4/2
f 431/4/2 432/4/2 438/4/2
f 438/4/2 433/4/2 439/4/2
f 433/3/2 434/3/2 440/3/2
f 439/4/2 433/4/2 440/4/2
f 440/3/2 434/3/2 441/3/2
f 441/3/2 434/3/2 442/3/2
f 435/4/2 436/4/2 443/4/2
f 442/3/2 434/3/2 443/3/2
f 434/4/2 435/4/2 443/4/2
f 443/4/2 436/4/2 444/4/2
f 444/4/2 436/4/2 445/4/2
f 440/4/2 441/4/2 446/4/2
f 439/4/2 440/4/2 446/4/2
f 446/4/2 441/4/2 447/4/2
f 441/3/2 442/3/2 448/3/2
f 447/4/2 441/4/2 448/4/2
f 448/3/2 442/3/2 449/3/2
f 449/3/2 442/3/2 450/3/2
f 443/4/2 444/4/2 451/4/2
f 450/3/2 442/3/2 451/3/2
f 442/4/2 443/4/2 451/4/2
f 451/4/2 444/4/2 452/4/2
f 452/4/2 444/4/2 453/4/2
f 448/4/2 449/4/2 454/4/2
f 447/4/2 448/4/2 454/4/2
f 454/4/2 449/4/2 455/4/2
f 449/3/2 450/3/2 456/3/2
f 455/4/2 449/4/2 456/4/2
f 451/4/2 452/4/2 457/4/2
f 456/3/2 450/3/2 457/3/2
f 450/4/2 451/4/2 457/4/2
f 457/4/2 452/4/2 458/4/2
f 458/4/2 452/4/2 459/4/2
f 455/4/2 456/4/2 460/4/2
f 457/4/2 458/4/2 460/4/2
f 456/4/2 457/4/2 460/4/2
f 460/4/2 458/4/2 461/4/2
f 461/4/2 458/4/2 462/4/2
f 462/4/2 458/4/2 463/4/2
f 461/4/2 462/4/2 464/4/2
f 464/4/2 462/4/2 465/4/2
f 466/5/2 467/5/2 468/5/2
f 468/5/2 467/5/2 469/5/2
f 472/4/3 471/4/3 470/4/3
f 473/4/3 471/4/3 472/4/3
f 477/4/3 475/4/3 474/4/3
f 478/4/3 475/4/3 477/4/3
f 480/4/3 477/4/3 476/4/3
f 481/4/3 477/4/3 480/4/3
f 482/4/3 479/4/3 478/4/3
f 483/4/3 479/4/3 482/4/3
f 489/4/3 485/4/3 484/4/3
f 490/4/3 485/4/3 489/4/3
f 491/4/3 487/4/3 486/4/3
f 492/4/3 487/4/3 491/4/3
f 494/4/3 489/4/3 488/4/3
f 495/4/3 489/4/3 494/4/3
f 496/4/3 489/4/3 495/4/3
f 497/4/3 489/4/3 496/4/3
f 498/4/3 493/4/3 492/4/3
f 499/4/3 493/4/3 498/4/3
f 505/4/3 501/4/3 500/4/3
f 506/4/3 501/4/3 505/4/3
f 507/4/3 503/4/3 502/4/3
f 508/4/3 503/4/3 507/4/3
f 510/4/3 505/4/3 504/4/3
f 512/4/3 510/4/3 504/4/3
f 512/4/3 511/4/3 510/4/3
f 513/4/3 511/4/3 512/4/3
f 514/4/3 509/4/3 508/4/3
f 515/4/3 509/4/3 514/4/3
f 521/4/3 517/4/3 516/4/3
f 522/4/3 517/4/3 521/4/3
f 523/4/3 519/4/3 518/4/3
f 524/4/3 519/4/3 523/4/3
f 526/4/3 521/4/3 520/4/3
f 527/4/3 521/4/3 526/4/3
f 528/4/3 525/4/3 524/4/3
f 529/4/3 525/4/3 528/4/3
f 535/4/3 531/4/3 530/4/3
f 536/4/3 531/4/3 535/4/3
f 537/4/3 533/4/3 532/4/3
f 538/4/3 533/4/3 537/4/3
f 540/4/3 535/4/3 534/4/3
f 541/4/3 535/4/3 540/4/3
f 542/4/3 539/4/3 538/4/3
f 543/4/3 539/4/3 542/4/3
f 549/4/3 545/4/3 544/4/3
f 550/4/3 545/4/3 549/4/3
f 551/4/3 547/4/3 546/4/3
f 552/4/3 547/4/3 551/4/3
f 554/4/3 549/4/3 548/4/3
f 555/4/3 549/4/3 554/4/3
f 556/4/3 553/4/3 552/4/3
f 557/4/3 553/4/3 556/4/3
f 560/5/3 559/5/3 558/5/3
f 561/5/3 559/5/3 560/5/3
f 566/4/3 563/4/3 562/4/3
f 567/4/3 563/4/3 566/4/3
f 571/4/3 565/4/3 564/4/3
f 572/4/3 565/4/3 571/4/3
f 573/4/3 569/4/3 568/4/3
f 574/4/3 569/4/3 573/4/3
f 576/4/3 571/4/3 570/4/3
f 577/4/3 571/4/3 576/4/3
f 578/4/3 575/4/3 574/4/3
f 579/4/3 575/4/3 578/4/3
f 584/5/3 581/5/3 580/5/3
f 585/5/3 581/5/3 584/5/3
f 588/4/3 583/4/3 582/4/3
f 589/4/3 583/4/3 588/4/3
f 590/4/3 587/4/3 586/4/3
f 591/4/3 587/4/3 590/4/3
f 598/5/3 593/5/3 592/5/3
f 599/5/3 593/5/3 598/5/3
f 600/5/3 595/5/3 594/5/3
f 601/5/3 595/5/3 600/5/3
f 604/4/3 597/4/3 596/4/3
f 605/4/3 597/4/3 604/4/3
f 606/4/3 603/4/3 602/4/3
f 607/4/3 603/4/3 606/4/3
f 612/5/3 609/5/3 608/5/3
f 613/5/3 609/5/3 612/5/3
f 614/5/3 611/5/3 610/5/3
f 615/5/3 611/5/3 614/5/3
f 618/5/3 617/5/3 616/5/3
f 619/5/3 617/5/3 618/5/3
f 620/5/4 621/5/4 622/5/4
f 622/5/4 621/5/4 623/5/4
f 624/5/4 625/5/4 628/5/4
f 628/5/4 625/5/4 629/5/4
f 626/5/4 627/5/4 630/5/4
f 630/5/4 627/5/4 631/5/4
f 632/5/4 633/5/4 638/5/4
f 638/5/4 633/5/4 639/5/4
f 634/5/4 635/5/4 640/5/4
f 640/5/4 635/5/4 641/5/4
f 636/4/4 637/4/4 644/4/4
f 644/4/4 637/4/4 645/4/4
f 642/4/4 643/4/4 646/4/4
f 646/4/4 643/4/4 647/4/4
f 648/5/4 649/5/4 652/5/4
f 652/5/4 649/5/4 653/5/4
f 650/4/4 651/4/4 656/4/4
f 656/4/4 651/4/4 657/4/4
f 654/4/4 655/4/4 658/4/4
f 658/4/4 655/4/4 659/4/4
f 660/4/4 661/4/4 664/4/4
f 664/4/4 661/4/4 665/4/4
f 665/4/4 661/4/4 666/4/4
f 662/4/4 663/4/4 670/4/4
f 670/4/4 663/4/4 671/4/4
f 667/4/4 668/4/4 672/4/4
f 672/4/4 668/4/4 673/4/4
f 669/4/4 670/4/4 675/4/4
f 675/4/4 670/4/4 676/4/4
f 673/4/4 674/4/4 677/4/4
f 677/4/4 674/4/4 678/4/4
f 679/5/4 680/5/4 681/5/4
f 681/5/4 680/5/4 682/5/4
f 683/4/4 684/4/4 688/4/4
f 688/4/4 684/4/4 689/4/4
f 685/4/4 686/4/4 690/4/4
f 690/4/4 686/4/4 691/4/4
f 687/4/4 688/4/4 693/4/4
f 693/4/4 688/4/4 694/4/4
f 691/4/4 692/4/4 695/4/4
f 695/4/4 692/4/4 696/4/4
f 697/4/4 698/4/4 702/4/4
f 702/4/4 698/4/4 703/4/4
f 699/4/4 700/4/4 704/4/4
f 704/4/4 700/4/4 705/4/4
f 701/4/4 702/4/4 707/4/4
f 707/4/4 702/4/4 708/4/4
f 705/4/4 706/4/4 709/4/4
f 709/4/4 706/4/4 710/4/4
f 711/4/4 712/4/4 716/4/4
f 716/4/4 712/4/4 717/4/4
f 713/4/4 714/4/4 718/4/4
f 718/4/4 714/4/4 719/4/4
f 715/4/4 716/4/4 721/4/4
f 721/4/4 716/4/4 722/4/4
f 719/4/4 720/4/4 723/4/4
f 723/4/4 720/4/4 724/4/4
f 725/4/4 726/4/4 730/4/4
f 730/4/4 726/4/4 731/4/4
f 727/4/4 728/4/4 732/4/4
f 732/4/4 728/4/4 733/4/4
f 729/4/4 730/4/4 735/4/4
f 735/4/4 730/4/4 736/4/4
f 733/4/4 734/4/4 737/4/4
f 737/4/4 734/4/4 738/4/4
f 739/4/4 740/4/4 744/4/4
f 744/4/4 740/4/4 745/4/4
f 741/4/4 742/4/4 746/4/4
f 746/4/4 742/4/4 747/4/4
f 743/4/4 744/4/4 749/4/4
f 749/4/4 744/4/4 750/4/4
f 747/4/4 748/4/4 751/4/4
f 751/4/4 748/4/4 752/4/4
f 753/4/4 754/4/4 756/4/4
f 756/4/4 754/4/4 757/4/4
f 755/4/4 756/4/4 759/4/4
f 759/4/4 756/4/4 760/4/4
f 757/4/4 758/4/4 761/4/4
f 761/4/4 758/4/4 762/4/4
f 763/4/4 764/4/4 765/4/4
f 765/4/4 764/4/4 766/4/4
f 769/4/5 768/4/5 767/4/5
f 770/4/5 768/4/5 769/4/5
f 774/4/5 772/4/5 771/4/5
f 775/4/5 772/4/5 774/4/5
f 776/4/5 774/4/5 773/4/5
f 777/4/5 774/4/5 776/4/5
f 779/4/5 778/4/5 777/4/5
f 780/4/5 778/4/5 779/4/5
f 784/4/5 782/4/5 781/4/5
f 785/4/5 782/4/5 784/4/5
f 786/4/5 784/4/5 783/4/5
f 787/4/5 784/4/5 786/4/5
f 790/4/5 789/4/5 788/4/5
f 791/4/5 789/4/5 790/4/5
f 793/4/5 792/4/5 791/4/5
f 794/4/5 792/4/5 793/4/5
f 798/4/5 796/4/5 795/4/5
f 799/4/5 796/4/5 798/4/5
f 800/4/5 798/4/5 797/4/5
f 801/4/5 798/4/5 800/4/5
f 804/4/5 803/4/5 802/4/5
f 805/4/5 803/4/5 804/4/5
f 807/4/5 806/4/5 805/4/5
f 808/4/5 806/4/5 807/4/5
f 812/4/5 810/4/5 809/4/5
f 813/4/5 810/4/5 812/4/5
f 814/4/5 812/4/5 811/4/5
f 815/4/5 812/4/5 814/4/5
f 818/4/5 817/4/5 816/4/5
f 819/4/5 817/4/5 818/4/5
f 821/4/5 820/4/5 819/4/5
f 822/4/5 820/4/5 821/4/5
f 826/4/5 824/4/5 823/4/5
f 827/4/5 824/4/5 826/4/5
f 828/4/5 826/4/5 825/4/5
f 829/4/5 826/4/5 828/4/5
f 832/4/5 831/4/5 830/4/5
f 833/4/5 831/4/5 832/4/5
f 835/4/5 834/4/5 833/4/5
f 836/4/5 834/4/5 835/4/5
f 839/4/5 838/4/5 837/4/5
f 840/4/5 838/4/5 839/4/5
f 844/4/5 842/4/5 841/4/5
f 845/4/5 842/4/5 844/4/5
f 846/4/5 844/4/5 843/4/5
f 847/4/5 844/4/5 846/4/5
f 850/4/5 849/4/5 848/4/5
f 851/4/5 849/4/5 850/4/5
f 853/4/5 852/4/5 851/4/5
f 854/4/5 852/4/5 853/4/5
f 858/4/5 856/4/5 855/4/5
f 859/4/5 856/4/5 858/4/5
f 860/4/5 858/4/5 857/4/5
f 861/4/5 858/4/5 860/4/5
f 864/4/5 863/4/5 862/4/5
f 865/4/5 863/4/5 864/4/5
f 868/4/5 867/4/5 866/4/5
f 869/4/5 867/4/5 868/4/5
f 871/4/5 870/4/5 869/4/5
f 872/4/5 870/4/5 871/4/5
f 875/4/5 874/4/5 873/4/5
f 876/4/5 874/4/5 875/4/5
f 879/5/5 878/5/5 877/5/5
f 880/5/5 878/5/5 879/5/5
f 883/4/5 882/4/5 881/4/5
f 884/4/5 882/4/5 883/4/5
f 889/5/5 886/5/5 885/5/5
f 890/5/5 886/5/5 889/5/5
f 891/4/5 888/4/5 887/4/5
f 892/4/5 888/4/5 891/4/5
f 895/5/5 894/5/5 893/5/5
f 896/5/5 894/5/5 895/5/5
f 899/5/5 898/5/5 897/5/5
f 900/5/5 898/5/5 899/5/5
f 903/4/5 902/4/5 901/4/5
f 904/4/5 902/4/5 903/4/5
f 906/5/5 886/5/5 890/5/5
f 907/5/5 906/5/5 905/5/5
f 908/5/5 886/5/5 906/5/5
f 908/5/5 906/5/5 907/5/5
f 911/5/5 910/5/5 909/5/5
f 912/5/5 910/5/5 911/5/5
f 915/5/5 914/5/5 913/5/5
f 916/5/5 914/5/5 915/5/5
f 917/5/6 918/5/6 919/5/6
f 919/5/6 918/5/6 920/5/6
f 921/5/6 922/5/6 923/5/6
f 923/5/6 922/5/6 924/5/6
f 925/5/6 926/5/6 929/5/6
f 929/5/6 926/5/6 930/5/6
f 927/4/6 928/4/6 931/4/6
f 931/4/6 928/4/6 932/4/6
f 933/5/6 934/5/6 935/5/6
f 935/5/6 934/5/6 936/5/6
f 937/5/6 938/5/6 939/5/6
f 939/5/6 938/5/6 940/5/6
f 941/4/6 942/4/6 943/4/6
f 943/4/6 942/4/6 944/4/6
f 930/5/6 926/5/6 946/5/6
f 945/5/6 946/5/6 947/5/6
f 946/5/6 926/5/6 948/5/6
f 947/5/6 946/5/6 948/5/6
f 949/4/6 950/4/6 951/4/6
f 951/4/6 950/4/6 952/4/6
f 953/5/6 954/5/6 955/5/6
f 955/5/6 954/5/6 956/5/6
f 957/4/6 958/4/6 959/4/6
f 959/4/6 958/4/6 960/4/6
f 961/4/6 962/4/6 964/4/6
f 964/4/6 962/4/6 965/4/6
f 963/4/6 964/4/6 966/4/6
f 966/4/6 964/4/6 967/4/6
f 968/4/6 969/4/6 970/4/6
f 968/4/6 970/4/6 971/4/6
f 971/4/6 970/4/6 972/4/6
f 973/4/6 974/4/6 975/4/6
f 975/4/6 974/4/6 976/4/6
f 976/4/6 977/4/6 978/4/6
f 978/4/6 977/4/6 979/4/6
f 980/4/6 981/4/6 983/4/6
f 983/4/6 981/4/6 984/4/6
f 982/4/6 983/4/6 985/4/6
f 985/4/6 983/4/6 986/4/6
f 987/4/6 988/4/6 989/4/6
f 989/4/6 988/4/6 990/4/6
f 990/4/6 991/4/6 992/4/6
f 992/4/6 991/4/6 993/4/6
f 994/4/6 995/4/6 997/4/6
f 997/4/6 995/4/6 998/4/6
f 996/4/6 997/4/6 999/4/6
f 999/4/6 997/4/6 1000/4/6
f 1001/4/6 1002/4/6 1003/4/6
f 1003/4/6 1002/4/6 1004/4/6
f 1004/4/6 1005/4/6 1006/4/6
f 1006/4/6 1005/4/6 1007/4/6
f 1008/4/6 1009/4/6 1011/4/6
f 1011/4/6 1009/4/6 1012/4/6
f 1010/4/6 1011/4/6 1013/4/6
f 1013/4/6 1011/4/6 1014/4/6
f 1015/4/6 1016/4/6 1017/4/6
f 1017/4/6 1016/4/6 1018/4/6
f 1018/4/6 1019/4/6 1020/4/6
f 1020/4/6 1019/4/6 1021/4/6
f 1022/4/6 1023/4/6 1025/4/6
f 1025/4/6 1023/4/6 1026/4/6
f 1024/4/6 1025/4/6 1027/4/6
f 1027/4/6 1025/4/6 1028/4/6
f 1029/4/6 1030/4/6 1031/4/6
f 1031/4/6 1030/4/6 1032/4/6
f 1032/4/6 1033/4/6 1034/4/6
f 1034/4/6 1033/4/6 1035/4/6
f 1036/4/6 1037/4/6 1039/4/6
f 1039/4/6 1037/4/6 1040/4/6
f 1038/4/6 1039/4/6 1041/4/6
f 1041/4/6 1039/4/6 1042/4/6
f 1043/4/6 1044/4/6 1045/4/6
f 1045/4/6 1044/4/6 1046/4/6
f 1046/4/6 1047/4/6 1048/4/6
f 1048/4/6 1047/4/6 1049/4/6
f 1050/4/6 1051/4/6 1053/4/6
f 1053/4/6 1051/4/6 1054/4/6
f 1052/4/6 1053/4/6 1055/4/6
f 1055/4/6 1053/4/6 1056/4/6
f 1056/4/6 1057/4/6 1058/4/6
f 1058/4/6 1057/4/6 1059/4/6
f 1060/4/6 1061/4/6 1062/4/6
f 1062/4/6 1061/4/6 1063/4/6
