# MagicaVoxel @ Ephtracy

# group
o 

# material
mtllib katana.mtl
usemtl palette

# normals
vn -1 0 0
vn 1 0 0
vn 0 0 1
vn 0 0 -1
vn 0 -1 0
vn 0 1 0

# texcoords
vt 0.0136719 0.5
vt 0.0214844 0.5
vt 0.916016 0.5
vt 0.958984 0.5
vt 0.962891 0.5
vt 0.978516 0.5
vt 0.990234 0.5

# verts
v -0.3 1.4 0.1
v -0.3 1.4 -0.2
v -0.3 1.5 0.1
v -0.3 1.5 -0.2
v -0.2 1.4 0.3
v -0.2 1.4 0.1
v -0.2 1.4 -0.2
v -0.2 1.4 -0.4
v -0.2 1.5 0.3
v -0.2 1.5 0.1
v -0.2 1.5 -0.2
v -0.2 1.5 -0.4
v -0.1 0 0.1
v -0.1 0 -0.2
v -0.1 0.1 0.1
v -0.1 0.1 -0.2
v -0.1 0.3 0
v -0.1 0.3 -0.1
v -0.1 0.4 0
v -0.1 0.4 -0.1
v -0.1 0.6 0
v -0.1 0.6 -0.1
v -0.1 0.7 0
v -0.1 0.7 -0.1
v -0.1 0.9 0
v -0.1 0.9 -0.1
v -0.1 1 0
v -0.1 1 -0.1
v -0.1 1.2 0
v -0.1 1.2 -0.1
v -0.1 1.3 0
v -0.1 1.3 -0.1
v -0.1 1.4 0.4
v -0.1 1.4 0.3
v -0.1 1.4 0.1
v -0.1 1.4 -0.2
v -0.1 1.4 -0.4
v -0.1 1.4 -0.5
v -0.1 1.5 0.4
v -0.1 1.5 0.3
v -0.1 1.5 0.1
v -0.1 1.5 -0.3
v -0.1 1.5 -0.4
v -0.1 1.5 -0.5
v -0.1 1.6 0.1
v -0.1 1.6 -0.1
v -0.1 1.6 -0.3
v -0.1 2.1 -0.2
v -0.1 2.1 -0.3
v -0.1 3.7 -0.2
v -0.1 3.7 -0.3
v -0.1 3.8 0.1
v -0.1 3.8 0
v -0.1 3.9 -0.1
v -0.1 3.9 -0.2
v -0.1 4.7 0
v -0.1 4.7 -0.1
v -0.1 5.2 -0.2
v -0.1 5.2 -0.3
v -0.1 5.3 -0.1
v -0.1 5.3 -0.2
v -0.1 5.5 -0.2
v -0.1 5.5 -0.3
v 0.1 1.4 0.3
v 0.1 1.4 0.2
v 0.1 1.4 -0.3
v 0.1 1.4 -0.4
v 0.1 1.5 0.3
v 0.1 1.5 0.2
v 0.1 1.5 -0.3
v 0.1 1.5 -0.4
v -0.1 1.4 0.3
v -0.1 1.4 0.2
v -0.1 1.4 -0.3
v -0.1 1.4 -0.4
v -0.1 1.5 0.3
v -0.1 1.5 0.2
v -0.1 1.5 -0.3
v -0.1 1.5 -0.4
v 0.1 0 0.1
v 0.1 0 -0.2
v 0.1 0.1 0.1
v 0.1 0.1 -0.2
v 0.1 0.3 0
v 0.1 0.3 -0.1
v 0.1 0.4 0
v 0.1 0.4 -0.1
v 0.1 0.6 0
v 0.1 0.6 -0.1
v 0.1 0.7 0
v 0.1 0.7 -0.1
v 0.1 0.9 0
v 0.1 0.9 -0.1
v 0.1 1 0
v 0.1 1 -0.1
v 0.1 1.2 0
v 0.1 1.2 -0.1
v 0.1 1.3 0
v 0.1 1.3 -0.1
v 0.1 1.4 0.4
v 0.1 1.4 0.3
v 0.1 1.4 0.1
v 0.1 1.4 -0.2
v 0.1 1.4 -0.4
v 0.1 1.4 -0.5
v 0.1 1.5 0.4
v 0.1 1.5 0.3
v 0.1 1.5 0.1
v 0.1 1.5 -0.3
v 0.1 1.5 -0.4
v 0.1 1.5 -0.5
v 0.1 1.6 0.1
v 0.1 1.6 -0.1
v 0.1 1.6 -0.3
v 0.1 2.1 -0.2
v 0.1 2.1 -0.3
v 0.1 3.7 -0.2
v 0.1 3.7 -0.3
v 0.1 3.8 0.1
v 0.1 3.8 0
v 0.1 3.9 -0.1
v 0.1 3.9 -0.2
v 0.1 4.7 0
v 0.1 4.7 -0.1
v 0.1 5.2 -0.2
v 0.1 5.2 -0.3
v 0.1 5.3 -0.1
v 0.1 5.3 -0.2
v 0.1 5.5 -0.2
v 0.1 5.5 -0.3
v 0.2 1.4 0.3
v 0.2 1.4 0.1
v 0.2 1.4 -0.2
v 0.2 1.4 -0.4
v 0.2 1.5 0.3
v 0.2 1.5 0.1
v 0.2 1.5 -0.2
v 0.2 1.5 -0.4
v 0.3 1.4 0.1
v 0.3 1.4 -0.2
v 0.3 1.5 0.1
v 0.3 1.5 -0.2
v -0.1 1.4 0.4
v -0.1 1.5 0.4
v 0.1 1.4 0.4
v 0.1 1.5 0.4
v -0.2 1.4 0.3
v -0.2 1.5 0.3
v -0.1 1.4 0.3
v -0.1 1.5 0.3
v 0.1 1.4 0.3
v 0.1 1.5 0.3
v 0.2 1.4 0.3
v 0.2 1.5 0.3
v -0.1 1.4 0.2
v -0.1 1.5 0.2
v 0.1 1.4 0.2
v 0.1 1.5 0.2
v -0.3 1.4 0.1
v -0.3 1.5 0.1
v -0.2 1.4 0.1
v -0.2 1.5 0.1
v -0.1 0 0.1
v -0.1 0.1 0.1
v -0.1 1.4 0.1
v -0.1 1.5 0.1
v -0.1 1.6 0.1
v -0.1 3.8 0.1
v 0.1 0 0.1
v 0.1 0.1 0.1
v 0.1 1.4 0.1
v 0.1 1.5 0.1
v 0.1 1.6 0.1
v 0.1 3.8 0.1
v 0.2 1.4 0.1
v 0.2 1.5 0.1
v 0.3 1.4 0.1
v 0.3 1.5 0.1
v -0.1 3.8 0
v -0.1 4.7 0
v 0.1 3.8 0
v 0.1 4.7 0
v -0.1 4.7 -0.1
v -0.1 5.3 -0.1
v 0.1 4.7 -0.1
v 0.1 5.3 -0.1
v -0.1 5.3 -0.2
v -0.1 5.5 -0.2
v 0.1 5.3 -0.2
v 0.1 5.5 -0.2
v -0.1 1.4 -0.4
v -0.1 1.5 -0.4
v 0.1 1.4 -0.4
v 0.1 1.5 -0.4
v -0.1 1.4 0.3
v -0.1 1.5 0.3
v 0.1 1.4 0.3
v 0.1 1.5 0.3
v -0.3 1.4 -0.2
v -0.3 1.5 -0.2
v -0.2 1.4 -0.2
v -0.2 1.5 -0.2
v -0.1 0 -0.2
v -0.1 0.1 -0.2
v -0.1 1.4 -0.2
v -0.1 2.1 -0.2
v -0.1 3.7 -0.2
v 0.1 0 -0.2
v 0.1 0.1 -0.2
v 0.1 1.4 -0.2
v 0.1 2.1 -0.2
v 0.1 3.7 -0.2
v 0.2 1.4 -0.2
v 0.2 1.5 -0.2
v 0.3 1.4 -0.2
v 0.3 1.5 -0.2
v -0.1 1.4 -0.3
v -0.1 1.5 -0.3
v -0.1 1.6 -0.3
v -0.1 2.1 -0.3
v -0.1 3.7 -0.3
v -0.1 5.2 -0.3
v -0.1 5.5 -0.3
v 0.1 1.4 -0.3
v 0.1 1.5 -0.3
v 0.1 1.6 -0.3
v 0.1 2.1 -0.3
v 0.1 3.7 -0.3
v 0.1 5.2 -0.3
v 0.1 5.5 -0.3
v -0.2 1.4 -0.4
v -0.2 1.5 -0.4
v -0.1 1.4 -0.4
v -0.1 1.5 -0.4
v 0.1 1.4 -0.4
v 0.1 1.5 -0.4
v 0.2 1.4 -0.4
v 0.2 1.5 -0.4
v -0.1 1.4 -0.5
v -0.1 1.5 -0.5
v 0.1 1.4 -0.5
v 0.1 1.5 -0.5
v -0.1 0 0.1
v 0.1 0 0.1
v -0.1 0 -0.2
v 0.1 0 -0.2
v -0.1 1.4 0.4
v 0.1 1.4 0.4
v -0.2 1.4 0.3
v -0.1 1.4 0.3
v 0.1 1.4 0.3
v 0.2 1.4 0.3
v -0.1 1.4 0.2
v 0.1 1.4 0.2
v -0.3 1.4 0.1
v -0.2 1.4 0.1
v -0.1 1.4 0.1
v 0.1 1.4 0.1
v 0.2 1.4 0.1
v 0.3 1.4 0.1
v -0.3 1.4 -0.2
v -0.2 1.4 -0.2
v -0.1 1.4 -0.2
v 0.1 1.4 -0.2
v 0.2 1.4 -0.2
v 0.3 1.4 -0.2
v -0.1 1.4 -0.3
v 0.1 1.4 -0.3
v -0.2 1.4 -0.4
v -0.1 1.4 -0.4
v 0.1 1.4 -0.4
v 0.2 1.4 -0.4
v -0.1 1.4 -0.5
v 0.1 1.4 -0.5
v -0.1 3.7 -0.2
v 0.1 3.7 -0.2
v -0.1 3.7 -0.3
v 0.1 3.7 -0.3
v -0.1 1.5 0.4
v 0.1 1.5 0.4
v -0.2 1.5 0.3
v -0.1 1.5 0.3
v 0.1 1.5 0.3
v 0.2 1.5 0.3
v -0.1 1.5 0.2
v 0.1 1.5 0.2
v -0.3 1.5 0.1
v -0.2 1.5 0.1
v -0.1 1.5 0.1
v 0.1 1.5 0.1
v 0.2 1.5 0.1
v 0.3 1.5 0.1
v -0.3 1.5 -0.2
v -0.2 1.5 -0.2
v 0.2 1.5 -0.2
v 0.3 1.5 -0.2
v -0.1 1.5 -0.3
v 0.1 1.5 -0.3
v -0.2 1.5 -0.4
v -0.1 1.5 -0.4
v 0.1 1.5 -0.4
v 0.2 1.5 -0.4
v -0.1 1.5 -0.5
v 0.1 1.5 -0.5
v -0.1 2.1 -0.2
v 0.1 2.1 -0.2
v -0.1 2.1 -0.3
v 0.1 2.1 -0.3
v -0.1 3.8 0.1
v 0.1 3.8 0.1
v -0.1 3.8 0
v 0.1 3.8 0
v -0.1 4.7 0
v 0.1 4.7 0
v -0.1 4.7 -0.1
v 0.1 4.7 -0.1
v -0.1 5.3 -0.1
v 0.1 5.3 -0.1
v -0.1 5.3 -0.2
v 0.1 5.3 -0.2
v -0.1 5.5 -0.2
v 0.1 5.5 -0.2
v -0.1 5.5 -0.3
v 0.1 5.5 -0.3

# faces
f 3/7/1 2/7/1 1/7/1
f 4/7/1 2/7/1 3/7/1
f 9/7/1 6/7/1 5/7/1
f 10/7/1 6/7/1 9/7/1
f 11/7/1 8/7/1 7/7/1
f 12/7/1 8/7/1 11/7/1
f 15/1/1 14/1/1 13/1/1
f 16/1/1 14/1/1 15/1/1
f 17/3/1 16/3/1 15/3/1
f 18/3/1 16/3/1 17/3/1
f 19/3/1 17/3/1 15/3/1
f 19/4/1 18/4/1 17/4/1
f 20/3/1 16/3/1 18/3/1
f 20/4/1 18/4/1 19/4/1
f 21/3/1 19/3/1 15/3/1
f 21/3/1 20/3/1 19/3/1
f 22/3/1 16/3/1 20/3/1
f 22/3/1 20/3/1 21/3/1
f 23/3/1 21/3/1 15/3/1
f 23/4/1 22/4/1 21/4/1
f 24/3/1 16/3/1 22/3/1
f 24/4/1 22/4/1 23/4/1
f 25/3/1 23/3/1 15/3/1
f 25/3/1 24/3/1 23/3/1
f 26/3/1 16/3/1 24/3/1
f 26/3/1 24/3/1 25/3/1
f 27/3/1 25/3/1 15/3/1
f 27/4/1 26/4/1 25/4/1
f 28/3/1 16/3/1 26/3/1
f 28/4/1 26/4/1 27/4/1
f 29/3/1 27/3/1 15/3/1
f 29/3/1 28/3/1 27/3/1
f 30/3/1 16/3/1 28/3/1
f 30/3/1 28/3/1 29/3/1
f 31/3/1 29/3/1 15/3/1
f 31/4/1 30/4/1 29/4/1
f 32/3/1 16/3/1 30/3/1
f 32/4/1 30/4/1 31/4/1
f 35/3/1 31/3/1 15/3/1
f 35/3/1 32/3/1 31/3/1
f 36/3/1 16/3/1 32/3/1
f 36/3/1 32/3/1 35/3/1
f 39/7/1 34/7/1 33/7/1
f 40/7/1 34/7/1 39/7/1
f 43/7/1 38/7/1 37/7/1
f 44/7/1 38/7/1 43/7/1
f 45/2/1 42/2/1 41/2/1
f 46/2/1 42/2/1 45/2/1
f 47/2/1 42/2/1 46/2/1
f 48/6/1 47/6/1 46/6/1
f 49/6/1 47/6/1 48/6/1
f 50/6/1 48/6/1 46/6/1
f 52/5/1 46/5/1 45/5/1
f 53/5/1 46/5/1 52/5/1
f 54/6/1 51/6/1 50/6/1
f 54/5/1 46/5/1 53/5/1
f 54/6/1 50/6/1 46/6/1
f 55/6/1 51/6/1 54/6/1
f 56/5/1 54/5/1 53/5/1
f 56/5/1 55/5/1 54/5/1
f 57/5/1 55/5/1 56/5/1
f 58/6/1 51/6/1 55/6/1
f 58/5/1 55/5/1 57/5/1
f 59/6/1 51/6/1 58/6/1
f 60/5/1 58/5/1 57/5/1
f 60/5/1 59/5/1 58/5/1
f 61/5/1 59/5/1 60/5/1
f 62/5/1 59/5/1 61/5/1
f 63/5/1 59/5/1 62/5/1
f 68/7/1 65/7/1 64/7/1
f 69/7/1 65/7/1 68/7/1
f 70/7/1 67/7/1 66/7/1
f 71/7/1 67/7/1 70/7/1
f 72/7/2 73/7/2 76/7/2
f 76/7/2 73/7/2 77/7/2
f 74/7/2 75/7/2 78/7/2
f 78/7/2 75/7/2 79/7/2
f 80/1/2 81/1/2 82/1/2
f 82/1/2 81/1/2 83/1/2
f 82/3/2 83/3/2 84/3/2
f 84/3/2 83/3/2 85/3/2
f 82/3/2 84/3/2 86/3/2
f 84/4/2 85/4/2 86/4/2
f 85/3/2 83/3/2 87/3/2
f 86/4/2 85/4/2 87/4/2
f 82/3/2 86/3/2 88/3/2
f 86/3/2 87/3/2 88/3/2
f 87/3/2 83/3/2 89/3/2
f 88/3/2 87/3/2 89/3/2
f 82/3/2 88/3/2 90/3/2
f 88/4/2 89/4/2 90/4/2
f 89/3/2 83/3/2 91/3/2
f 90/4/2 89/4/2 91/4/2
f 82/3/2 90/3/2 92/3/2
f 90/3/2 91/3/2 92/3/2
f 91/3/2 83/3/2 93/3/2
f 92/3/2 91/3/2 93/3/2
f 82/3/2 92/3/2 94/3/2
f 92/4/2 93/4/2 94/4/2
f 93/3/2 83/3/2 95/3/2
f 94/4/2 93/4/2 95/4/2
f 82/3/2 94/3/2 96/3/2
f 94/3/2 95/3/2 96/3/2
f 95/3/2 83/3/2 97/3/2
f 96/3/2 95/3/2 97/3/2
f 82/3/2 96/3/2 98/3/2
f 96/4/2 97/4/2 98/4/2
f 97/3/2 83/3/2 99/3/2
f 98/4/2 97/4/2 99/4/2
f 82/3/2 98/3/2 102/3/2
f 98/3/2 99/3/2 102/3/2
f 99/3/2 83/3/2 103/3/2
f 102/3/2 99/3/2 103/3/2
f 100/7/2 101/7/2 106/7/2
f 106/7/2 101/7/2 107/7/2
f 104/7/2 105/7/2 110/7/2
f 110/7/2 105/7/2 111/7/2
f 108/2/2 109/2/2 112/2/2
f 112/2/2 109/2/2 113/2/2
f 113/2/2 109/2/2 114/2/2
f 113/6/2 114/6/2 115/6/2
f 115/6/2 114/6/2 116/6/2
f 113/6/2 115/6/2 117/6/2
f 112/5/2 113/5/2 119/5/2
f 119/5/2 113/5/2 120/5/2
f 117/6/2 118/6/2 121/6/2
f 120/5/2 113/5/2 121/5/2
f 113/6/2 117/6/2 121/6/2
f 121/6/2 118/6/2 122/6/2
f 120/5/2 121/5/2 123/5/2
f 121/5/2 122/5/2 123/5/2
f 123/5/2 122/5/2 124/5/2
f 122/6/2 118/6/2 125/6/2
f 124/5/2 122/5/2 125/5/2
f 125/6/2 118/6/2 126/6/2
f 124/5/2 125/5/2 127/5/2
f 125/5/2 126/5/2 127/5/2
f 127/5/2 126/5/2 128/5/2
f 128/5/2 126/5/2 129/5/2
f 129/5/2 126/5/2 130/5/2
f 131/7/2 132/7/2 135/7/2
f 135/7/2 132/7/2 136/7/2
f 133/7/2 134/7/2 137/7/2
f 137/7/2 134/7/2 138/7/2
f 139/7/2 140/7/2 141/7/2
f 141/7/2 140/7/2 142/7/2
f 145/7/3 144/7/3 143/7/3
f 146/7/3 144/7/3 145/7/3
f 149/7/3 148/7/3 147/7/3
f 150/7/3 148/7/3 149/7/3
f 153/7/3 152/7/3 151/7/3
f 154/7/3 152/7/3 153/7/3
f 157/7/3 156/7/3 155/7/3
f 158/7/3 156/7/3 157/7/3
f 161/7/3 160/7/3 159/7/3
f 162/7/3 160/7/3 161/7/3
f 169/1/3 164/1/3 163/1/3
f 170/3/3 165/3/3 164/3/3
f 170/1/3 164/1/3 169/1/3
f 171/3/3 165/3/3 170/3/3
f 172/2/3 167/2/3 166/2/3
f 173/5/3 168/5/3 167/5/3
f 173/2/3 167/2/3 172/2/3
f 174/5/3 168/5/3 173/5/3
f 177/7/3 176/7/3 175/7/3
f 178/7/3 176/7/3 177/7/3
f 181/5/3 180/5/3 179/5/3
f 182/5/3 180/5/3 181/5/3
f 185/5/3 184/5/3 183/5/3
f 186/5/3 184/5/3 185/5/3
f 189/5/3 188/5/3 187/5/3
f 190/5/3 188/5/3 189/5/3
f 193/7/3 192/7/3 191/7/3
f 194/7/3 192/7/3 193/7/3
f 195/7/4 196/7/4 197/7/4
f 197/7/4 196/7/4 198/7/4
f 199/7/4 200/7/4 201/7/4
f 201/7/4 200/7/4 202/7/4
f 203/1/4 204/1/4 208/1/4
f 204/3/4 205/3/4 209/3/4
f 208/1/4 204/1/4 209/1/4
f 209/3/4 205/3/4 210/3/4
f 206/6/4 207/6/4 211/6/4
f 211/6/4 207/6/4 212/6/4
f 213/7/4 214/7/4 215/7/4
f 215/7/4 214/7/4 216/7/4
f 217/7/4 218/7/4 224/7/4
f 218/2/4 219/2/4 225/2/4
f 224/7/4 218/7/4 225/7/4
f 219/6/4 220/6/4 226/6/4
f 225/2/4 219/2/4 226/2/4
f 226/6/4 220/6/4 227/6/4
f 221/6/4 222/6/4 228/6/4
f 222/5/4 223/5/4 229/5/4
f 228/6/4 222/6/4 229/6/4
f 229/5/4 223/5/4 230/5/4
f 231/7/4 232/7/4 233/7/4
f 233/7/4 232/7/4 234/7/4
f 235/7/4 236/7/4 237/7/4
f 237/7/4 236/7/4 238/7/4
f 239/7/4 240/7/4 241/7/4
f 241/7/4 240/7/4 242/7/4
f 245/1/5 244/1/5 243/1/5
f 246/1/5 244/1/5 245/1/5
f 250/7/5 248/7/5 247/7/5
f 251/7/5 248/7/5 250/7/5
f 253/7/5 250/7/5 249/7/5
f 254/7/5 252/7/5 251/7/5
f 256/7/5 253/7/5 249/7/5
f 256/7/5 254/7/5 253/7/5
f 257/7/5 254/7/5 256/7/5
f 258/7/5 252/7/5 254/7/5
f 258/7/5 254/7/5 257/7/5
f 259/7/5 252/7/5 258/7/5
f 261/7/5 257/7/5 256/7/5
f 261/7/5 256/7/5 255/7/5
f 262/7/5 257/7/5 261/7/5
f 263/7/5 257/7/5 262/7/5
f 264/7/5 260/7/5 259/7/5
f 264/7/5 259/7/5 258/7/5
f 265/7/5 260/7/5 264/7/5
f 266/7/5 260/7/5 265/7/5
f 267/7/5 263/7/5 262/7/5
f 267/7/5 265/7/5 264/7/5
f 267/7/5 264/7/5 263/7/5
f 268/7/5 265/7/5 267/7/5
f 269/7/5 267/7/5 262/7/5
f 270/7/5 267/7/5 269/7/5
f 271/7/5 265/7/5 268/7/5
f 272/7/5 265/7/5 271/7/5
f 273/7/5 271/7/5 270/7/5
f 274/7/5 271/7/5 273/7/5
f 277/6/5 276/6/5 275/6/5
f 278/6/5 276/6/5 277/6/5
f 279/7/6 280/7/6 282/7/6
f 282/7/6 280/7/6 283/7/6
f 281/7/6 282/7/6 285/7/6
f 283/7/6 284/7/6 286/7/6
f 281/7/6 285/7/6 288/7/6
f 285/7/6 286/7/6 288/7/6
f 288/7/6 286/7/6 289/7/6
f 286/7/6 284/7/6 290/7/6
f 289/7/6 286/7/6 290/7/6
f 290/7/6 284/7/6 291/7/6
f 288/7/6 289/7/6 293/7/6
f 287/7/6 288/7/6 293/7/6
f 293/7/6 289/7/6 294/7/6
f 291/7/6 292/7/6 295/7/6
f 290/7/6 291/7/6 295/7/6
f 295/7/6 292/7/6 296/7/6
f 294/7/6 289/7/6 297/7/6
f 290/7/6 295/7/6 298/7/6
f 294/7/6 297/7/6 299/7/6
f 299/7/6 297/7/6 300/7/6
f 298/7/6 295/7/6 301/7/6
f 301/7/6 295/7/6 302/7/6
f 300/7/6 301/7/6 303/7/6
f 303/7/6 301/7/6 304/7/6
f 305/6/6 306/6/6 307/6/6
f 307/6/6 306/6/6 308/6/6
f 309/5/6 310/5/6 311/5/6
f 311/5/6 310/5/6 312/5/6
f 313/5/6 314/5/6 315/5/6
f 315/5/6 314/5/6 316/5/6
f 317/5/6 318/5/6 319/5/6
f 319/5/6 318/5/6 320/5/6
f 321/5/6 322/5/6 323/5/6
f 323/5/6 322/5/6 324/5/6
