# MagicaVoxel @ Ephtracy

# group
o 

# material
mtllib shitgun.mtl
usemtl palette

# normals
vn -1 0 0
vn 1 0 0
vn 0 0 1
vn 0 0 -1
vn 0 -1 0
vn 0 1 0

# texcoords
vt 0.306641 0.5
vt 0.798828 0.5
vt 0.865234 0.5
vt 0.869141 0.5
vt 0.958984 0.5
vt 0.962891 0.5
vt 0.974609 0.5
vt 0.986328 0.5

# verts
v -2 0.1 0.1
v -2 0.1 -0.2
v -2 0.2 0.2
v -2 0.2 0.1
v -2 0.2 -0.2
v -2 0.2 -0.3
v -2 0.8 0.2
v -2 0.8 0.1
v -2 0.8 -0.2
v -2 0.8 -0.3
v -2 0.9 0.1
v -2 0.9 -0.2
v -1 0.7 0.2
v -1 0.7 0.1
v -1 0.7 -0.2
v -1 0.7 -0.3
v -1 0.8 0.2
v -1 0.8 -0.3
v -0.9 0.5 0.2
v -0.9 0.5 0.1
v -0.9 0.5 -0.2
v -0.9 0.5 -0.3
v -0.9 0.6 -0.2
v -0.9 0.7 0.2
v -0.9 0.7 0.1
v -0.9 0.7 -0.2
v -0.9 0.7 -0.3
v -0.8 0.8 0.2
v -0.8 0.8 -0.3
v -0.8 0.9 0.2
v -0.8 0.9 -0.3
v -0.7 0.9 0.1
v -0.7 0.9 -0.2
v -0.7 1 0.1
v -0.7 1 -0.2
v -0.5 0.4 0.1
v -0.5 0.4 -0.2
v -0.5 0.5 0.1
v -0.5 0.5 -0.2
v -0.4 0.5 0.2
v -0.4 0.5 0.1
v -0.4 0.5 -0.2
v -0.4 0.5 -0.3
v -0.4 0.7 0.2
v -0.4 0.7 0.1
v -0.4 0.7 -0.2
v -0.4 0.7 -0.3
v -0.3 0.3 0
v -0.3 0.3 -0.1
v -0.3 0.4 0.2
v -0.3 0.4 0.1
v -0.3 0.4 0
v -0.3 0.4 -0.1
v -0.3 0.4 -0.2
v -0.3 0.4 -0.3
v -0.3 0.5 0.2
v -0.3 0.5 0.1
v -0.3 0.5 -0.2
v -0.3 0.5 -0.3
v 0.1 0.8 0.2
v 0.1 0.8 0.1
v 0.1 0.8 -0.2
v 0.1 0.8 -0.3
v 0.1 0.9 0.2
v 0.1 0.9 0.1
v 0.1 0.9 -0.2
v 0.1 0.9 -0.3
v 0.1 1 0.1
v 0.1 1 -0.2
v 0.2 0.7 0.2
v 0.2 0.7 0.1
v 0.2 0.7 -0.2
v 0.2 0.7 -0.3
v 0.2 0.8 0.2
v 0.2 0.8 0.1
v 0.2 0.8 -0.2
v 0.2 0.8 -0.3
v 0.4 0.2 0
v 0.4 0.2 -0.1
v 0.4 0.3 0.1
v 0.4 0.3 0
v 0.4 0.3 -0.1
v 0.4 0.3 -0.2
v 0.4 0.4 0.2
v 0.4 0.4 0.1
v 0.4 0.4 -0.2
v 0.4 0.4 -0.3
v 0.4 0.6 0.2
v 0.4 0.6 0.1
v 0.4 0.6 -0.2
v 0.4 0.6 -0.3
v -1.4 0.2 0.2
v -1.4 0.2 0.1
v -1.4 0.2 -0.2
v -1.4 0.2 -0.3
v -1.4 0.3 0.2
v -1.4 0.3 0.1
v -1.4 0.3 -0.2
v -1.4 0.3 -0.3
v -1.4 0.7 0.2
v -1.4 0.7 0.1
v -1.4 0.7 -0.2
v -1.4 0.7 -0.3
v -1.4 0.8 0.2
v -1.4 0.8 0.1
v -1.4 0.8 -0.2
v -1.4 0.8 -0.3
v -1.4 0.9 0.1
v -1.4 0.9 -0.2
v -1.3 0.1 0.1
v -1.3 0.1 -0.2
v -1.3 0.2 0.1
v -1.3 0.2 -0.2
v -1.3 0.7 0.1
v -1.3 0.7 -0.2
v -1.3 0.8 0.1
v -1.3 0.8 -0.2
v -1.2 0.3 0.2
v -1.2 0.3 0.1
v -1.2 0.3 -0.2
v -1.2 0.3 -0.3
v -1.2 0.5 0.2
v -1.2 0.5 0.1
v -1.2 0.5 -0.2
v -1.2 0.5 -0.3
v -1.2 0.6 0.2
v -1.2 0.6 0.1
v -1.2 0.6 -0.2
v -1.2 0.6 -0.3
v -1.2 0.7 0.2
v -1.2 0.7 0.1
v -1.2 0.7 -0.2
v -1.2 0.7 -0.3
v -1.1 0.5 0.2
v -1.1 0.5 0.1
v -1.1 0.5 -0.2
v -1.1 0.5 -0.3
v -1.1 0.6 0.2
v -1.1 0.6 0.1
v -1.1 0.6 -0.2
v -1.1 0.6 -0.3
v -1 0.2 0.1
v -1 0.2 -0.2
v -1 0.3 0.1
v -1 0.3 -0.2
v -0.8 0.4 0.1
v -0.8 0.4 -0.2
v -0.8 0.5 0.2
v -0.8 0.5 0.1
v -0.8 0.5 -0.2
v -0.8 0.5 -0.3
v -0.8 0.6 0.2
v -0.8 0.6 0.1
v -0.8 0.6 -0.2
v -0.8 0.6 -0.3
v -0.5 0.3 0.1
v -0.5 0.3 -0.2
v -0.5 0.4 0.1
v -0.5 0.4 -0.2
v -0.5 0.6 0.2
v -0.5 0.6 0.1
v -0.5 0.6 -0.2
v -0.5 0.6 -0.3
v -0.5 0.7 0.2
v -0.5 0.7 0.1
v -0.5 0.7 -0.2
v -0.5 0.7 -0.3
v -0.2 0.3 0
v -0.2 0.3 -0.1
v -0.2 0.4 0.2
v -0.2 0.4 0.1
v -0.2 0.4 0
v -0.2 0.4 -0.1
v -0.2 0.4 -0.2
v -0.2 0.4 -0.3
v -0.2 0.6 0.2
v -0.2 0.6 0.1
v -0.2 0.6 -0.2
v -0.2 0.6 -0.3
v 2.38419e-07 0.6 0.2
v 2.38419e-07 0.6 0.1
v 2.38419e-07 0.6 -0.2
v 2.38419e-07 0.6 -0.3
v 2.38419e-07 0.9 0.2
v 2.38419e-07 0.9 0.1
v 2.38419e-07 0.9 -0.2
v 2.38419e-07 0.9 -0.3
v 2.38419e-07 1 0.1
v 2.38419e-07 1 -0.2
v 1.1 0.7 0
v 1.1 0.7 -0.1
v 1.1 0.8 0.1
v 1.1 0.8 0
v 1.1 0.8 -0.1
v 1.1 0.8 -0.2
v 1.1 0.9 0.1
v 1.1 0.9 -0.2
v 1.5 0.2 0
v 1.5 0.2 -0.1
v 1.5 0.3 0.1
v 1.5 0.3 0
v 1.5 0.3 -0.1
v 1.5 0.3 -0.2
v 1.5 0.4 0.2
v 1.5 0.4 0.1
v 1.5 0.4 0
v 1.5 0.4 -0.1
v 1.5 0.4 -0.2
v 1.5 0.4 -0.3
v 1.5 0.5 0.1
v 1.5 0.5 0
v 1.5 0.5 -0.1
v 1.5 0.5 -0.2
v 1.5 0.6 0.2
v 1.5 0.6 0.1
v 1.5 0.6 0
v 1.5 0.6 -0.1
v 1.5 0.6 -0.2
v 1.5 0.6 -0.3
v 1.5 0.7 0.1
v 1.5 0.7 0
v 1.5 0.7 -0.1
v 1.5 0.7 -0.2
v 1.5 0.8 0.1
v 1.5 0.8 0
v 1.5 0.8 -0.1
v 1.5 0.8 -0.2
v 1.7 0.3 0
v 1.7 0.3 -0.1
v 1.7 0.4 0.1
v 1.7 0.4 0
v 1.7 0.4 -0.1
v 1.7 0.4 -0.2
v 1.7 0.5 0.1
v 1.7 0.5 0
v 1.7 0.5 -0.1
v 1.7 0.5 -0.2
v 1.7 0.6 0
v 1.7 0.6 -0.1
v 2 0.6 0.1
v 2 0.6 -0.2
v 2 0.7 0.2
v 2 0.7 0.1
v 2 0.7 -0.2
v 2 0.7 -0.3
v 2 0.9 0.2
v 2 0.9 0.1
v 2 0.9 -0.2
v 2 0.9 -0.3
v 2 1 0.1
v 2 1 -0.2
v -2 0.2 0.2
v -2 0.8 0.2
v -1.9 0.2 0.2
v -1.9 0.3 0.2
v -1.9 0.6 0.2
v -1.9 0.7 0.2
v -1.9 0.8 0.2
v -1.6 0.3 0.2
v -1.6 0.4 0.2
v -1.5 0.4 0.2
v -1.5 0.5 0.2
v -1.4 0.2 0.2
v -1.4 0.3 0.2
v -1.4 0.5 0.2
v -1.4 0.6 0.2
v -1.4 0.7 0.2
v -1.4 0.8 0.2
v -1.2 0.3 0.2
v -1.2 0.5 0.2
v -1.2 0.6 0.2
v -1.2 0.7 0.2
v -1.1 0.5 0.2
v -1.1 0.6 0.2
v -1 0.7 0.2
v -1 0.8 0.2
v -0.9 0.5 0.2
v -0.9 0.7 0.2
v -0.8 0.5 0.2
v -0.8 0.6 0.2
v -0.8 0.8 0.2
v -0.8 0.9 0.2
v -0.5 0.6 0.2
v -0.5 0.7 0.2
v -0.5 0.8 0.2
v -0.5 0.9 0.2
v -0.4 0.5 0.2
v -0.4 0.7 0.2
v -0.3 0.4 0.2
v -0.3 0.5 0.2
v -0.2 0.4 0.2
v -0.2 0.6 0.2
v -0.0999999 0.8 0.2
v -0.0999999 0.9 0.2
v 2.38419e-07 0.6 0.2
v 2.38419e-07 0.9 0.2
v 0.1 0.8 0.2
v 0.1 0.9 0.2
v 0.2 0.7 0.2
v 0.2 0.8 0.2
v 0.4 0.4 0.2
v 0.4 0.6 0.2
v 0.5 0.4 0.2
v 0.5 0.6 0.2
v 0.6 0.4 0.2
v 0.6 0.6 0.2
v 0.7 0.4 0.2
v 0.7 0.6 0.2
v 0.8 0.4 0.2
v 0.8 0.6 0.2
v 0.9 0.4 0.2
v 0.9 0.6 0.2
v 1 0.4 0.2
v 1 0.6 0.2
v 1.1 0.4 0.2
v 1.1 0.6 0.2
v 1.2 0.4 0.2
v 1.2 0.6 0.2
v 1.3 0.4 0.2
v 1.3 0.6 0.2
v 1.4 0.4 0.2
v 1.4 0.6 0.2
v 1.5 0.4 0.2
v 1.5 0.6 0.2
v 2 0.7 0.2
v 2 0.9 0.2
v -2 0.1 0.1
v -2 0.2 0.1
v -2 0.8 0.1
v -2 0.9 0.1
v -1.9 0.1 0.1
v -1.9 0.2 0.1
v -1.9 0.8 0.1
v -1.9 0.9 0.1
v -1.4 0.2 0.1
v -1.4 0.3 0.1
v -1.4 0.7 0.1
v -1.4 0.8 0.1
v -1.4 0.9 0.1
v -1.3 0.1 0.1
v -1.3 0.2 0.1
v -1.3 0.7 0.1
v -1.3 0.8 0.1
v -1.2 0.3 0.1
v -1.2 0.5 0.1
v -1.2 0.6 0.1
v -1.2 0.7 0.1
v -1.1 0.5 0.1
v -1.1 0.6 0.1
v -1 0.2 0.1
v -1 0.3 0.1
v -1 0.4 0.1
v -1 0.6 0.1
v -1 0.7 0.1
v -0.9 0.4 0.1
v -0.9 0.5 0.1
v -0.9 0.7 0.1
v -0.8 0.3 0.1
v -0.8 0.4 0.1
v -0.8 0.5 0.1
v -0.8 0.6 0.1
v -0.7 0.9 0.1
v -0.7 1 0.1
v -0.5 0.3 0.1
v -0.5 0.4 0.1
v -0.5 0.5 0.1
v -0.5 0.6 0.1
v -0.5 0.7 0.1
v -0.5 0.9 0.1
v -0.4 0.5 0.1
v -0.4 0.7 0.1
v -0.3 0.4 0.1
v -0.3 0.5 0.1
v -0.2 0.4 0.1
v -0.2 0.6 0.1
v -0.0999999 0.9 0.1
v 2.38419e-07 0.6 0.1
v 2.38419e-07 0.9 0.1
v 2.38419e-07 1 0.1
v 0.1 0.8 0.1
v 0.1 0.9 0.1
v 0.1 1 0.1
v 0.2 0.7 0.1
v 0.2 0.8 0.1
v 0.4 0.3 0.1
v 0.4 0.4 0.1
v 0.4 0.6 0.1
v 0.4 0.7 0.1
v 0.5 0.3 0.1
v 0.5 0.4 0.1
v 0.5 0.6 0.1
v 0.5 0.7 0.1
v 0.6 0.3 0.1
v 0.6 0.4 0.1
v 0.6 0.6 0.1
v 0.6 0.7 0.1
v 0.7 0.3 0.1
v 0.7 0.4 0.1
v 0.7 0.6 0.1
v 0.7 0.7 0.1
v 0.8 0.3 0.1
v 0.8 0.4 0.1
v 0.8 0.6 0.1
v 0.8 0.7 0.1
v 0.9 0.3 0.1
v 0.9 0.4 0.1
v 0.9 0.6 0.1
v 0.9 0.7 0.1
v 1 0.3 0.1
v 1 0.4 0.1
v 1 0.6 0.1
v 1 0.7 0.1
v 1.1 0.3 0.1
v 1.1 0.4 0.1
v 1.1 0.6 0.1
v 1.1 0.7 0.1
v 1.2 0.3 0.1
v 1.2 0.4 0.1
v 1.2 0.6 0.1
v 1.2 0.7 0.1
v 1.3 0.3 0.1
v 1.3 0.4 0.1
v 1.3 0.6 0.1
v 1.3 0.7 0.1
v 1.4 0.3 0.1
v 1.4 0.4 0.1
v 1.4 0.6 0.1
v 1.4 0.7 0.1
v 1.5 0.3 0.1
v 1.5 0.4 0.1
v 1.5 0.5 0.1
v 1.5 0.6 0.1
v 1.5 0.7 0.1
v 1.7 0.4 0.1
v 1.7 0.5 0.1
v 2 0.6 0.1
v 2 0.7 0.1
v 2 0.9 0.1
v 2 1 0.1
v -0.3 0.3 0
v -0.3 0.4 0
v -0.2 0.3 0
v -0.2 0.4 0
v 0.4 0.2 0
v 0.4 0.3 0
v 0.5 0.2 0
v 0.5 0.3 0
v 0.6 0.2 0
v 0.6 0.3 0
v 0.7 0.2 0
v 0.7 0.3 0
v 0.8 0.2 0
v 0.8 0.3 0
v 0.9 0.2 0
v 0.9 0.3 0
v 1 0.2 0
v 1 0.3 0
v 1.1 0.2 0
v 1.1 0.3 0
v 1.2 0.2 0
v 1.2 0.3 0
v 1.3 0.2 0
v 1.3 0.3 0
v 1.4 0.2 0
v 1.4 0.3 0
v 1.5 0.2 0
v 1.5 0.3 0
v 1.5 0.4 0
v 1.5 0.5 0
v 1.5 0.6 0
v 1.7 0.3 0
v 1.7 0.4 0
v 1.7 0.5 0
v 1.7 0.6 0
v 1.1 0.7 -0.1
v 1.1 0.8 -0.1
v 1.5 0.7 -0.1
v 1.5 0.8 -0.1
v 1.1 0.8 -0.2
v 1.1 0.9 -0.2
v 1.5 0.7 -0.2
v 1.5 0.8 -0.2
v 2 0.7 -0.2
v 2 0.9 -0.2
v 1.1 0.8 0.1
v 1.1 0.9 0.1
v 1.5 0.7 0.1
v 1.5 0.8 0.1
v 2 0.7 0.1
v 2 0.9 0.1
v 1.1 0.7 0
v 1.1 0.8 0
v 1.5 0.7 0
v 1.5 0.8 0
v -0.3 0.3 -0.1
v -0.3 0.4 -0.1
v -0.2 0.3 -0.1
v -0.2 0.4 -0.1
v 0.4 0.2 -0.1
v 0.4 0.3 -0.1
v 0.5 0.2 -0.1
v 0.5 0.3 -0.1
v 0.6 0.2 -0.1
v 0.6 0.3 -0.1
v 0.7 0.2 -0.1
v 0.7 0.3 -0.1
v 0.8 0.2 -0.1
v 0.8 0.3 -0.1
v 0.9 0.2 -0.1
v 0.9 0.3 -0.1
v 1 0.2 -0.1
v 1 0.3 -0.1
v 1.1 0.2 -0.1
v 1.1 0.3 -0.1
v 1.2 0.2 -0.1
v 1.2 0.3 -0.1
v 1.3 0.2 -0.1
v 1.3 0.3 -0.1
v 1.4 0.2 -0.1
v 1.4 0.3 -0.1
v 1.5 0.2 -0.1
v 1.5 0.3 -0.1
v 1.5 0.4 -0.1
v 1.5 0.5 -0.1
v 1.5 0.6 -0.1
v 1.7 0.3 -0.1
v 1.7 0.4 -0.1
v 1.7 0.5 -0.1
v 1.7 0.6 -0.1
v -2 0.1 -0.2
v -2 0.2 -0.2
v -2 0.8 -0.2
v -2 0.9 -0.2
v -1.9 0.1 -0.2
v -1.9 0.2 -0.2
v -1.9 0.8 -0.2
v -1.9 0.9 -0.2
v -1.4 0.2 -0.2
v -1.4 0.3 -0.2
v -1.4 0.7 -0.2
v -1.4 0.8 -0.2
v -1.4 0.9 -0.2
v -1.3 0.1 -0.2
v -1.3 0.2 -0.2
v -1.3 0.7 -0.2
v -1.3 0.8 -0.2
v -1.2 0.3 -0.2
v -1.2 0.5 -0.2
v -1.2 0.6 -0.2
v -1.2 0.7 -0.2
v -1.1 0.5 -0.2
v -1.1 0.6 -0.2
v -1 0.2 -0.2
v -1 0.3 -0.2
v -1 0.4 -0.2
v -1 0.6 -0.2
v -1 0.7 -0.2
v -0.9 0.4 -0.2
v -0.9 0.5 -0.2
v -0.9 0.6 -0.2
v -0.9 0.7 -0.2
v -0.8 0.3 -0.2
v -0.8 0.4 -0.2
v -0.8 0.5 -0.2
v -0.8 0.6 -0.2
v -0.7 0.9 -0.2
v -0.7 1 -0.2
v -0.5 0.3 -0.2
v -0.5 0.4 -0.2
v -0.5 0.5 -0.2
v -0.5 0.6 -0.2
v -0.5 0.7 -0.2
v -0.5 0.9 -0.2
v -0.4 0.5 -0.2
v -0.4 0.7 -0.2
v -0.3 0.4 -0.2
v -0.3 0.5 -0.2
v -0.2 0.4 -0.2
v -0.2 0.6 -0.2
v -0.0999999 0.9 -0.2
v 2.38419e-07 0.6 -0.2
v 2.38419e-07 0.9 -0.2
v 2.38419e-07 1 -0.2
v 0.1 0.8 -0.2
v 0.1 0.9 -0.2
v 0.1 1 -0.2
v 0.2 0.7 -0.2
v 0.2 0.8 -0.2
v 0.4 0.3 -0.2
v 0.4 0.4 -0.2
v 0.4 0.6 -0.2
v 0.4 0.7 -0.2
v 0.5 0.3 -0.2
v 0.5 0.4 -0.2
v 0.5 0.6 -0.2
v 0.5 0.7 -0.2
v 0.6 0.3 -0.2
v 0.6 0.4 -0.2
v 0.6 0.6 -0.2
v 0.6 0.7 -0.2
v 0.7 0.3 -0.2
v 0.7 0.4 -0.2
v 0.7 0.6 -0.2
v 0.7 0.7 -0.2
v 0.8 0.3 -0.2
v 0.8 0.4 -0.2
v 0.8 0.6 -0.2
v 0.8 0.7 -0.2
v 0.9 0.3 -0.2
v 0.9 0.4 -0.2
v 0.9 0.6 -0.2
v 0.9 0.7 -0.2
v 1 0.3 -0.2
v 1 0.4 -0.2
v 1 0.6 -0.2
v 1 0.7 -0.2
v 1.1 0.3 -0.2
v 1.1 0.4 -0.2
v 1.1 0.6 -0.2
v 1.1 0.7 -0.2
v 1.2 0.3 -0.2
v 1.2 0.4 -0.2
v 1.2 0.6 -0.2
v 1.2 0.7 -0.2
v 1.3 0.3 -0.2
v 1.3 0.4 -0.2
v 1.3 0.6 -0.2
v 1.3 0.7 -0.2
v 1.4 0.3 -0.2
v 1.4 0.4 -0.2
v 1.4 0.6 -0.2
v 1.4 0.7 -0.2
v 1.5 0.3 -0.2
v 1.5 0.4 -0.2
v 1.5 0.5 -0.2
v 1.5 0.6 -0.2
v 1.5 0.7 -0.2
v 1.7 0.4 -0.2
v 1.7 0.5 -0.2
v 2 0.6 -0.2
v 2 0.7 -0.2
v 2 0.9 -0.2
v 2 1 -0.2
v -2 0.2 -0.3
v -2 0.8 -0.3
v -1.9 0.2 -0.3
v -1.9 0.3 -0.3
v -1.9 0.6 -0.3
v -1.9 0.7 -0.3
v -1.9 0.8 -0.3
v -1.6 0.3 -0.3
v -1.6 0.4 -0.3
v -1.5 0.4 -0.3
v -1.5 0.5 -0.3
v -1.4 0.2 -0.3
v -1.4 0.3 -0.3
v -1.4 0.5 -0.3
v -1.4 0.6 -0.3
v -1.4 0.7 -0.3
v -1.4 0.8 -0.3
v -1.2 0.3 -0.3
v -1.2 0.5 -0.3
v -1.2 0.6 -0.3
v -1.2 0.7 -0.3
v -1.1 0.5 -0.3
v -1.1 0.6 -0.3
v -1 0.7 -0.3
v -1 0.8 -0.3
v -0.9 0.5 -0.3
v -0.9 0.7 -0.3
v -0.8 0.5 -0.3
v -0.8 0.6 -0.3
v -0.8 0.8 -0.3
v -0.8 0.9 -0.3
v -0.5 0.6 -0.3
v -0.5 0.7 -0.3
v -0.5 0.8 -0.3
v -0.5 0.9 -0.3
v -0.4 0.5 -0.3
v -0.4 0.7 -0.3
v -0.3 0.4 -0.3
v -0.3 0.5 -0.3
v -0.2 0.4 -0.3
v -0.2 0.6 -0.3
v -0.0999999 0.8 -0.3
v -0.0999999 0.9 -0.3
v 2.38419e-07 0.6 -0.3
v 2.38419e-07 0.9 -0.3
v 0.1 0.8 -0.3
v 0.1 0.9 -0.3
v 0.2 0.7 -0.3
v 0.2 0.8 -0.3
v 0.4 0.4 -0.3
v 0.4 0.6 -0.3
v 0.5 0.4 -0.3
v 0.5 0.6 -0.3
v 0.6 0.4 -0.3
v 0.6 0.6 -0.3
v 0.7 0.4 -0.3
v 0.7 0.6 -0.3
v 0.8 0.4 -0.3
v 0.8 0.6 -0.3
v 0.9 0.4 -0.3
v 0.9 0.6 -0.3
v 1 0.4 -0.3
v 1 0.6 -0.3
v 1.1 0.4 -0.3
v 1.1 0.6 -0.3
v 1.2 0.4 -0.3
v 1.2 0.6 -0.3
v 1.3 0.4 -0.3
v 1.3 0.6 -0.3
v 1.4 0.4 -0.3
v 1.4 0.6 -0.3
v 1.5 0.4 -0.3
v 1.5 0.6 -0.3
v 2 0.7 -0.3
v 2 0.9 -0.3
v -2 0.1 0.1
v -1.9 0.1 0.1
v -1.3 0.1 0.1
v -2 0.1 -0.2
v -1.9 0.1 -0.2
v -1.3 0.1 -0.2
v -2 0.2 0.2
v -1.9 0.2 0.2
v -1.4 0.2 0.2
v -2 0.2 0.1
v -1.9 0.2 0.1
v -1.4 0.2 0.1
v -1.3 0.2 0.1
v -1 0.2 0.1
v 0.4 0.2 0
v 0.5 0.2 0
v 0.6 0.2 0
v 0.7 0.2 0
v 0.8 0.2 0
v 0.9 0.2 0
v 1 0.2 0
v 1.1 0.2 0
v 1.2 0.2 0
v 1.3 0.2 0
v 1.4 0.2 0
v 1.5 0.2 0
v 0.4 0.2 -0.1
v 0.5 0.2 -0.1
v 0.6 0.2 -0.1
v 0.7 0.2 -0.1
v 0.8 0.2 -0.1
v 0.9 0.2 -0.1
v 1 0.2 -0.1
v 1.1 0.2 -0.1
v 1.2 0.2 -0.1
v 1.3 0.2 -0.1
v 1.4 0.2 -0.1
v 1.5 0.2 -0.1
v -2 0.2 -0.2
v -1.9 0.2 -0.2
v -1.4 0.2 -0.2
v -1.3 0.2 -0.2
v -1 0.2 -0.2
v -2 0.2 -0.3
v -1.9 0.2 -0.3
v -1.4 0.2 -0.3
v -1.4 0.3 0.2
v -1.2 0.3 0.2
v -1.4 0.3 0.1
v -1.2 0.3 0.1
v -1 0.3 0.1
v -0.8 0.3 0.1
v -0.5 0.3 0.1
v 0.4 0.3 0.1
v 0.5 0.3 0.1
v 0.6 0.3 0.1
v 0.7 0.3 0.1
v 0.8 0.3 0.1
v 0.9 0.3 0.1
v 1 0.3 0.1
v 1.1 0.3 0.1
v 1.2 0.3 0.1
v 1.3 0.3 0.1
v 1.4 0.3 0.1
v 1.5 0.3 0.1
v -0.3 0.3 0
v -0.2 0.3 0
v 0.4 0.3 0
v 0.5 0.3 0
v 0.6 0.3 0
v 0.7 0.3 0
v 0.8 0.3 0
v 0.9 0.3 0
v 1 0.3 0
v 1.1 0.3 0
v 1.2 0.3 0
v 1.3 0.3 0
v 1.4 0.3 0
v 1.5 0.3 0
v 1.7 0.3 0
v -0.3 0.3 -0.1
v -0.2 0.3 -0.1
v 0.4 0.3 -0.1
v 0.5 0.3 -0.1
v 0.6 0.3 -0.1
v 0.7 0.3 -0.1
v 0.8 0.3 -0.1
v 0.9 0.3 -0.1
v 1 0.3 -0.1
v 1.1 0.3 -0.1
v 1.2 0.3 -0.1
v 1.3 0.3 -0.1
v 1.4 0.3 -0.1
v 1.5 0.3 -0.1
v 1.7 0.3 -0.1
v -1.4 0.3 -0.2
v -1.2 0.3 -0.2
v -1 0.3 -0.2
v -0.8 0.3 -0.2
v -0.5 0.3 -0.2
v 0.4 0.3 -0.2
v 0.5 0.3 -0.2
v 0.6 0.3 -0.2
v 0.7 0.3 -0.2
v 0.8 0.3 -0.2
v 0.9 0.3 -0.2
v 1 0.3 -0.2
v 1.1 0.3 -0.2
v 1.2 0.3 -0.2
v 1.3 0.3 -0.2
v 1.4 0.3 -0.2
v 1.5 0.3 -0.2
v -1.4 0.3 -0.3
v -1.2 0.3 -0.3
v -0.3 0.4 0.2
v -0.2 0.4 0.2
v 0.4 0.4 0.2
v 0.5 0.4 0.2
v 0.6 0.4 0.2
v 0.7 0.4 0.2
v 0.8 0.4 0.2
v 0.9 0.4 0.2
v 1 0.4 0.2
v 1.1 0.4 0.2
v 1.2 0.4 0.2
v 1.3 0.4 0.2
v 1.4 0.4 0.2
v 1.5 0.4 0.2
v -0.5 0.4 0.1
v -0.3 0.4 0.1
v -0.2 0.4 0.1
v 0.4 0.4 0.1
v 0.5 0.4 0.1
v 0.6 0.4 0.1
v 0.7 0.4 0.1
v 0.8 0.4 0.1
v 0.9 0.4 0.1
v 1 0.4 0.1
v 1.1 0.4 0.1
v 1.2 0.4 0.1
v 1.3 0.4 0.1
v 1.4 0.4 0.1
v 1.5 0.4 0.1
v 1.7 0.4 0.1
v -0.3 0.4 0
v -0.2 0.4 0
v 1.5 0.4 0
v 1.7 0.4 0
v -0.3 0.4 -0.1
v -0.2 0.4 -0.1
v 1.5 0.4 -0.1
v 1.7 0.4 -0.1
v -0.5 0.4 -0.2
v -0.3 0.4 -0.2
v -0.2 0.4 -0.2
v 0.4 0.4 -0.2
v 0.5 0.4 -0.2
v 0.6 0.4 -0.2
v 0.7 0.4 -0.2
v 0.8 0.4 -0.2
v 0.9 0.4 -0.2
v 1 0.4 -0.2
v 1.1 0.4 -0.2
v 1.2 0.4 -0.2
v 1.3 0.4 -0.2
v 1.4 0.4 -0.2
v 1.5 0.4 -0.2
v 1.7 0.4 -0.2
v -0.3 0.4 -0.3
v -0.2 0.4 -0.3
v 0.4 0.4 -0.3
v 0.5 0.4 -0.3
v 0.6 0.4 -0.3
v 0.7 0.4 -0.3
v 0.8 0.4 -0.3
v 0.9 0.4 -0.3
v 1 0.4 -0.3
v 1.1 0.4 -0.3
v 1.2 0.4 -0.3
v 1.3 0.4 -0.3
v 1.4 0.4 -0.3
v 1.5 0.4 -0.3
v -1.2 0.5 0.2
v -1.1 0.5 0.2
v -0.9 0.5 0.2
v -0.8 0.5 0.2
v -0.4 0.5 0.2
v -0.3 0.5 0.2
v -1.2 0.5 0.1
v -1.1 0.5 0.1
v -0.9 0.5 0.1
v -0.8 0.5 0.1
v -0.5 0.5 0.1
v -0.4 0.5 0.1
v -0.3 0.5 0.1
v -1.2 0.5 -0.2
v -1.1 0.5 -0.2
v -0.9 0.5 -0.2
v -0.8 0.5 -0.2
v -0.5 0.5 -0.2
v -0.4 0.5 -0.2
v -0.3 0.5 -0.2
v -1.2 0.5 -0.3
v -1.1 0.5 -0.3
v -0.9 0.5 -0.3
v -0.8 0.5 -0.3
v -0.4 0.5 -0.3
v -0.3 0.5 -0.3
v -0.8 0.6 0.2
v -0.5 0.6 0.2
v -0.2 0.6 0.2
v 2.38419e-07 0.6 0.2
v -0.8 0.6 0.1
v -0.5 0.6 0.1
v -0.2 0.6 0.1
v 2.38419e-07 0.6 0.1
v 1.5 0.6 0.1
v 2 0.6 0.1
v 1.5 0.6 0
v 1.7 0.6 0
v 1.5 0.6 -0.1
v 1.7 0.6 -0.1
v -0.8 0.6 -0.2
v -0.5 0.6 -0.2
v -0.2 0.6 -0.2
v 2.38419e-07 0.6 -0.2
v 1.5 0.6 -0.2
v 2 0.6 -0.2
v -0.8 0.6 -0.3
v -0.5 0.6 -0.3
v -0.2 0.6 -0.3
v 2.38419e-07 0.6 -0.3
v -1 0.7 0.2
v -0.9 0.7 0.2
v -0.5 0.7 0.2
v -0.4 0.7 0.2
v 0.2 0.7 0.2
v 2 0.7 0.2
v -1 0.7 0.1
v -0.9 0.7 0.1
v -0.5 0.7 0.1
v -0.4 0.7 0.1
v 0.2 0.7 0.1
v 0.4 0.7 0.1
v 0.5 0.7 0.1
v 0.6 0.7 0.1
v 0.7 0.7 0.1
v 0.8 0.7 0.1
v 0.9 0.7 0.1
v 1 0.7 0.1
v 1.1 0.7 0.1
v 1.2 0.7 0.1
v 1.3 0.7 0.1
v 1.4 0.7 0.1
v 1.5 0.7 0.1
v 2 0.7 0.1
v -1 0.7 -0.2
v -0.9 0.7 -0.2
v -0.5 0.7 -0.2
v -0.4 0.7 -0.2
v 0.2 0.7 -0.2
v 0.4 0.7 -0.2
v 0.5 0.7 -0.2
v 0.6 0.7 -0.2
v 0.7 0.7 -0.2
v 0.8 0.7 -0.2
v 0.9 0.7 -0.2
v 1 0.7 -0.2
v 1.1 0.7 -0.2
v 1.2 0.7 -0.2
v 1.3 0.7 -0.2
v 1.4 0.7 -0.2
v 1.5 0.7 -0.2
v 2 0.7 -0.2
v -1 0.7 -0.3
v -0.9 0.7 -0.3
v -0.5 0.7 -0.3
v -0.4 0.7 -0.3
v 0.2 0.7 -0.3
v 2 0.7 -0.3
v 0.1 0.8 0.2
v 0.2 0.8 0.2
v 0.1 0.8 0.1
v 0.2 0.8 0.1
v 0.1 0.8 -0.2
v 0.2 0.8 -0.2
v 0.1 0.8 -0.3
v 0.2 0.8 -0.3
v 1.1 0.9 0.1
v 2 0.9 0.1
v 1.1 0.9 -0.2
v 2 0.9 -0.2
v -0.8 0.4 0.1
v -0.5 0.4 0.1
v -0.8 0.4 -0.2
v -0.5 0.4 -0.2
v 1.5 0.5 0.1
v 1.7 0.5 0.1
v 1.5 0.5 0
v 1.7 0.5 0
v 1.5 0.5 -0.1
v 1.7 0.5 -0.1
v 1.5 0.5 -0.2
v 1.7 0.5 -0.2
v -1.2 0.6 0.2
v -1.1 0.6 0.2
v 0.4 0.6 0.2
v 0.5 0.6 0.2
v 0.6 0.6 0.2
v 0.7 0.6 0.2
v 0.8 0.6 0.2
v 0.9 0.6 0.2
v 1 0.6 0.2
v 1.1 0.6 0.2
v 1.2 0.6 0.2
v 1.3 0.6 0.2
v 1.4 0.6 0.2
v 1.5 0.6 0.2
v -1.2 0.6 0.1
v -1.1 0.6 0.1
v 0.4 0.6 0.1
v 0.5 0.6 0.1
v 0.6 0.6 0.1
v 0.7 0.6 0.1
v 0.8 0.6 0.1
v 0.9 0.6 0.1
v 1 0.6 0.1
v 1.1 0.6 0.1
v 1.2 0.6 0.1
v 1.3 0.6 0.1
v 1.4 0.6 0.1
v 1.5 0.6 0.1
v -1.2 0.6 -0.2
v -1.1 0.6 -0.2
v 0.4 0.6 -0.2
v 0.5 0.6 -0.2
v 0.6 0.6 -0.2
v 0.7 0.6 -0.2
v 0.8 0.6 -0.2
v 0.9 0.6 -0.2
v 1 0.6 -0.2
v 1.1 0.6 -0.2
v 1.2 0.6 -0.2
v 1.3 0.6 -0.2
v 1.4 0.6 -0.2
v 1.5 0.6 -0.2
v -1.2 0.6 -0.3
v -1.1 0.6 -0.3
v 0.4 0.6 -0.3
v 0.5 0.6 -0.3
v 0.6 0.6 -0.3
v 0.7 0.6 -0.3
v 0.8 0.6 -0.3
v 0.9 0.6 -0.3
v 1 0.6 -0.3
v 1.1 0.6 -0.3
v 1.2 0.6 -0.3
v 1.3 0.6 -0.3
v 1.4 0.6 -0.3
v 1.5 0.6 -0.3
v -1.4 0.7 0.2
v -1.2 0.7 0.2
v -1.4 0.7 0.1
v -1.3 0.7 0.1
v -1.2 0.7 0.1
v -1 0.7 0.1
v 1.5 0.7 0.1
v 2 0.7 0.1
v 1.1 0.7 0
v 1.5 0.7 0
v 1.1 0.7 -0.1
v 1.5 0.7 -0.1
v -1.4 0.7 -0.2
v -1.3 0.7 -0.2
v -1.2 0.7 -0.2
v -1 0.7 -0.2
v 1.5 0.7 -0.2
v 2 0.7 -0.2
v -1.4 0.7 -0.3
v -1.2 0.7 -0.3
v -2 0.8 0.2
v -1.9 0.8 0.2
v -1.4 0.8 0.2
v -1 0.8 0.2
v -0.8 0.8 0.2
v -2 0.8 0.1
v -1.9 0.8 0.1
v -1.4 0.8 0.1
v -1.3 0.8 0.1
v 1.1 0.8 0.1
v 1.5 0.8 0.1
v 1.1 0.8 0
v 1.5 0.8 0
v 1.1 0.8 -0.1
v 1.5 0.8 -0.1
v -2 0.8 -0.2
v -1.9 0.8 -0.2
v -1.4 0.8 -0.2
v -1.3 0.8 -0.2
v 1.1 0.8 -0.2
v 1.5 0.8 -0.2
v -2 0.8 -0.3
v -1.9 0.8 -0.3
v -1.4 0.8 -0.3
v -1 0.8 -0.3
v -0.8 0.8 -0.3
v -0.8 0.9 0.2
v -0.5 0.9 0.2
v -0.0999999 0.9 0.2
v 2.38419e-07 0.9 0.2
v 0.1 0.9 0.2
v 2 0.9 0.2
v -2 0.9 0.1
v -1.9 0.9 0.1
v -1.4 0.9 0.1
v -0.7 0.9 0.1
v -0.5 0.9 0.1
v -0.0999999 0.9 0.1
v 2.38419e-07 0.9 0.1
v 0.1 0.9 0.1
v 2 0.9 0.1
v -2 0.9 -0.2
v -1.9 0.9 -0.2
v -1.4 0.9 -0.2
v -0.7 0.9 -0.2
v -0.5 0.9 -0.2
v -0.0999999 0.9 -0.2
v 2.38419e-07 0.9 -0.2
v 0.1 0.9 -0.2
v 2 0.9 -0.2
v -0.8 0.9 -0.3
v -0.5 0.9 -0.3
v -0.0999999 0.9 -0.3
v 2.38419e-07 0.9 -0.3
v 0.1 0.9 -0.3
v 2 0.9 -0.3
v -0.7 1 0.1
v 2.38419e-07 1 0.1
v 0.1 1 0.1
v 2 1 0.1
v -0.7 1 -0.2
v 2.38419e-07 1 -0.2
v 0.1 1 -0.2
v 2 1 -0.2

# faces
f 4/8/1 2/8/1 1/8/1
f 5/8/1 2/8/1 4/8/1
f 7/8/1 4/8/1 3/8/1
f 7/8/1 6/8/1 5/8/1
f 7/8/1 5/8/1 4/8/1
f 8/8/1 6/8/1 7/8/1
f 9/8/1 6/8/1 8/8/1
f 10/8/1 6/8/1 9/8/1
f 11/8/1 9/8/1 8/8/1
f 12/8/1 9/8/1 11/8/1
f 17/8/1 14/8/1 13/8/1
f 17/8/1 16/8/1 15/8/1
f 17/8/1 15/8/1 14/8/1
f 18/8/1 16/8/1 17/8/1
f 23/8/1 22/8/1 21/8/1
f 24/8/1 20/8/1 19/8/1
f 25/8/1 20/8/1 24/8/1
f 26/8/1 22/8/1 23/8/1
f 27/8/1 22/8/1 26/8/1
f 30/8/1 29/8/1 28/8/1
f 31/8/1 29/8/1 30/8/1
f 34/8/1 33/8/1 32/8/1
f 35/8/1 33/8/1 34/8/1
f 38/8/1 37/8/1 36/8/1
f 39/8/1 37/8/1 38/8/1
f 44/8/1 41/8/1 40/8/1
f 45/8/1 41/8/1 44/8/1
f 46/8/1 43/8/1 42/8/1
f 47/8/1 43/8/1 46/8/1
f 52/8/1 49/8/1 48/8/1
f 53/8/1 49/8/1 52/8/1
f 56/8/1 51/8/1 50/8/1
f 57/8/1 51/8/1 56/8/1
f 58/8/1 55/8/1 54/8/1
f 59/8/1 55/8/1 58/8/1
f 64/8/1 61/8/1 60/8/1
f 65/8/1 61/8/1 64/8/1
f 66/8/1 63/8/1 62/8/1
f 67/8/1 63/8/1 66/8/1
f 68/8/1 66/8/1 65/8/1
f 69/8/1 66/8/1 68/8/1
f 74/8/1 71/8/1 70/8/1
f 75/8/1 71/8/1 74/8/1
f 76/8/1 73/8/1 72/8/1
f 77/8/1 73/8/1 76/8/1
f 81/3/1 79/3/1 78/3/1
f 82/3/1 79/3/1 81/3/1
f 85/3/1 81/3/1 80/3/1
f 85/3/1 83/3/1 82/3/1
f 85/3/1 82/3/1 81/3/1
f 86/3/1 83/3/1 85/3/1
f 88/3/1 85/3/1 84/3/1
f 89/3/1 85/3/1 88/3/1
f 90/3/1 87/3/1 86/3/1
f 91/3/1 87/3/1 90/3/1
f 92/2/2 93/2/2 96/2/2
f 96/2/2 93/2/2 97/2/2
f 94/2/2 95/2/2 98/2/2
f 98/2/2 95/2/2 99/2/2
f 100/3/2 101/3/2 104/3/2
f 104/3/2 101/3/2 105/3/2
f 102/3/2 103/3/2 106/3/2
f 106/3/2 103/3/2 107/3/2
f 105/6/2 106/6/2 108/6/2
f 108/6/2 106/6/2 109/6/2
f 110/2/2 111/2/2 112/2/2
f 112/2/2 111/2/2 113/2/2
f 114/6/2 115/6/2 116/6/2
f 116/6/2 115/6/2 117/6/2
f 118/2/2 119/2/2 122/2/2
f 122/2/2 119/2/2 123/2/2
f 120/2/2 121/2/2 124/2/2
f 124/2/2 121/2/2 125/2/2
f 126/6/2 127/6/2 130/6/2
f 130/6/2 127/6/2 131/6/2
f 128/6/2 129/6/2 132/6/2
f 132/6/2 129/6/2 133/6/2
f 134/2/2 135/2/2 138/2/2
f 138/2/2 135/2/2 139/2/2
f 136/2/2 137/2/2 140/2/2
f 140/2/2 137/2/2 141/2/2
f 142/2/2 143/2/2 144/2/2
f 144/2/2 143/2/2 145/2/2
f 146/8/2 147/8/2 149/8/2
f 149/8/2 147/8/2 150/8/2
f 148/8/2 149/8/2 152/8/2
f 152/8/2 149/8/2 153/8/2
f 150/8/2 151/8/2 154/8/2
f 154/8/2 151/8/2 155/8/2
f 156/8/2 157/8/2 158/8/2
f 158/8/2 157/8/2 159/8/2
f 160/8/2 161/8/2 164/8/2
f 164/8/2 161/8/2 165/8/2
f 162/8/2 163/8/2 166/8/2
f 166/8/2 163/8/2 167/8/2
f 168/8/2 169/8/2 172/8/2
f 172/8/2 169/8/2 173/8/2
f 170/8/2 171/8/2 176/8/2
f 176/8/2 171/8/2 177/8/2
f 174/8/2 175/8/2 178/8/2
f 178/8/2 175/8/2 179/8/2
f 180/8/2 181/8/2 184/8/2
f 184/8/2 181/8/2 185/8/2
f 182/8/2 183/8/2 186/8/2
f 186/8/2 183/8/2 187/8/2
f 185/8/2 186/8/2 188/8/2
f 188/8/2 186/8/2 189/8/2
f 190/8/2 191/8/2 193/8/2
f 193/8/2 191/8/2 194/8/2
f 192/8/2 193/8/2 196/8/2
f 194/8/2 195/8/2 196/8/2
f 193/8/2 194/8/2 196/8/2
f 196/8/2 195/8/2 197/8/2
f 198/3/2 199/3/2 201/3/2
f 201/3/2 199/3/2 202/3/2
f 200/3/2 201/3/2 205/3/2
f 205/3/2 201/3/2 206/3/2
f 202/3/2 203/3/2 207/3/2
f 207/3/2 203/3/2 208/3/2
f 204/3/2 205/3/2 210/3/2
f 208/3/2 209/3/2 213/3/2
f 204/3/2 210/3/2 214/3/2
f 210/8/2 211/8/2 215/8/2
f 214/3/2 210/3/2 215/3/2
f 215/8/2 211/8/2 216/8/2
f 212/8/2 213/8/2 217/8/2
f 213/3/2 209/3/2 218/3/2
f 217/8/2 213/8/2 218/8/2
f 218/3/2 209/3/2 219/3/2
f 220/8/2 221/8/2 224/8/2
f 224/8/2 221/8/2 225/8/2
f 222/8/2 223/8/2 226/8/2
f 226/8/2 223/8/2 227/8/2
f 228/8/2 229/8/2 231/8/2
f 231/8/2 229/8/2 232/8/2
f 230/8/2 231/8/2 234/8/2
f 232/8/2 233/8/2 234/8/2
f 231/8/2 232/8/2 234/8/2
f 234/8/2 233/8/2 235/8/2
f 235/8/2 233/8/2 236/8/2
f 236/8/2 233/8/2 237/8/2
f 235/8/2 236/8/2 238/8/2
f 238/8/2 236/8/2 239/8/2
f 240/8/2 241/8/2 243/8/2
f 243/8/2 241/8/2 244/8/2
f 242/8/2 243/8/2 246/8/2
f 246/8/2 243/8/2 247/8/2
f 244/8/2 245/8/2 248/8/2
f 248/8/2 245/8/2 249/8/2
f 247/8/2 248/8/2 250/8/2
f 250/8/2 248/8/2 251/8/2
f 254/8/3 253/8/3 252/8/3
f 255/8/3 253/8/3 254/8/3
f 256/8/3 253/8/3 255/8/3
f 257/8/3 253/8/3 256/8/3
f 258/8/3 253/8/3 257/8/3
f 259/2/3 255/2/3 254/2/3
f 259/3/3 256/3/3 255/3/3
f 260/3/3 256/3/3 259/3/3
f 261/2/3 260/2/3 259/2/3
f 261/3/3 256/3/3 260/3/3
f 262/3/3 256/3/3 261/3/3
f 263/2/3 259/2/3 254/2/3
f 263/2/3 261/2/3 259/2/3
f 263/2/3 262/2/3 261/2/3
f 264/2/3 262/2/3 263/2/3
f 265/3/3 256/3/3 262/3/3
f 265/2/3 262/2/3 264/2/3
f 266/6/3 257/6/3 256/6/3
f 266/3/3 256/3/3 265/3/3
f 267/3/3 258/3/3 257/3/3
f 267/6/3 257/6/3 266/6/3
f 268/3/3 258/3/3 267/3/3
f 269/2/3 266/2/3 265/2/3
f 269/2/3 265/2/3 264/2/3
f 270/2/3 266/2/3 269/2/3
f 271/6/3 267/6/3 266/6/3
f 271/2/3 266/2/3 270/2/3
f 272/6/3 267/6/3 271/6/3
f 273/2/3 271/2/3 270/2/3
f 274/2/3 271/2/3 273/2/3
f 278/8/3 276/8/3 275/8/3
f 279/8/3 278/8/3 277/8/3
f 280/8/3 278/8/3 279/8/3
f 281/8/3 276/8/3 278/8/3
f 281/8/3 278/8/3 280/8/3
f 283/8/3 281/8/3 280/8/3
f 283/8/3 282/8/3 281/8/3
f 284/8/3 282/8/3 283/8/3
f 285/8/3 282/8/3 284/8/3
f 286/8/3 282/8/3 285/8/3
f 288/8/3 285/8/3 284/8/3
f 290/8/3 288/8/3 287/8/3
f 291/8/3 290/8/3 289/8/3
f 292/8/3 288/8/3 290/8/3
f 292/8/3 290/8/3 291/8/3
f 293/7/3 286/7/3 285/7/3
f 293/8/3 288/8/3 292/8/3
f 293/8/3 285/8/3 288/8/3
f 294/7/3 286/7/3 293/7/3
f 295/8/3 293/8/3 292/8/3
f 295/8/3 294/8/3 293/8/3
f 296/8/3 294/8/3 295/8/3
f 300/8/3 298/8/3 297/8/3
f 303/3/3 302/3/3 301/3/3
f 304/3/3 302/3/3 303/3/3
f 305/4/3 304/4/3 303/4/3
f 306/4/3 304/4/3 305/4/3
f 307/3/3 306/3/3 305/3/3
f 308/3/3 306/3/3 307/3/3
f 309/4/3 308/4/3 307/4/3
f 310/4/3 308/4/3 309/4/3
f 311/3/3 310/3/3 309/3/3
f 312/3/3 310/3/3 311/3/3
f 313/4/3 312/4/3 311/4/3
f 314/4/3 312/4/3 313/4/3
f 315/3/3 314/3/3 313/3/3
f 316/3/3 314/3/3 315/3/3
f 317/4/3 316/4/3 315/4/3
f 318/4/3 316/4/3 317/4/3
f 319/3/3 318/3/3 317/3/3
f 320/3/3 318/3/3 319/3/3
f 321/4/3 320/4/3 319/4/3
f 322/4/3 320/4/3 321/4/3
f 323/3/3 322/3/3 321/3/3
f 324/3/3 322/3/3 323/3/3
f 325/8/3 300/8/3 299/8/3
f 326/8/3 298/8/3 300/8/3
f 326/8/3 300/8/3 325/8/3
f 331/8/3 328/8/3 327/8/3
f 332/8/3 328/8/3 331/8/3
f 333/8/3 330/8/3 329/8/3
f 334/8/3 330/8/3 333/8/3
f 335/2/3 332/2/3 331/2/3
f 338/6/3 334/6/3 333/6/3
f 339/6/3 334/6/3 338/6/3
f 340/2/3 336/2/3 335/2/3
f 340/2/3 335/2/3 331/2/3
f 341/2/3 336/2/3 340/2/3
f 342/6/3 338/6/3 337/6/3
f 343/6/3 338/6/3 342/6/3
f 344/2/3 336/2/3 341/2/3
f 348/3/3 345/3/3 344/3/3
f 349/6/3 347/6/3 346/6/3
f 350/2/3 344/2/3 341/2/3
f 351/3/3 349/3/3 348/3/3
f 351/2/3 344/2/3 350/2/3
f 351/3/3 348/3/3 344/3/3
f 352/3/3 349/3/3 351/3/3
f 353/6/3 347/6/3 349/6/3
f 353/3/3 349/3/3 352/3/3
f 354/6/3 347/6/3 353/6/3
f 355/2/3 352/2/3 351/2/3
f 355/3/3 354/3/3 353/3/3
f 355/3/3 353/3/3 352/3/3
f 356/3/3 354/3/3 355/3/3
f 357/3/3 354/3/3 356/3/3
f 358/2/3 355/2/3 351/2/3
f 359/8/3 356/8/3 355/8/3
f 359/2/3 355/2/3 358/2/3
f 360/8/3 356/8/3 359/8/3
f 364/8/3 359/8/3 358/8/3
f 365/8/3 359/8/3 364/8/3
f 366/8/3 361/8/3 360/8/3
f 367/8/3 361/8/3 366/8/3
f 369/8/3 363/8/3 362/8/3
f 370/8/3 368/8/3 367/8/3
f 370/8/3 366/8/3 365/8/3
f 370/8/3 367/8/3 366/8/3
f 371/8/3 368/8/3 370/8/3
f 372/8/3 370/8/3 365/8/3
f 373/8/3 370/8/3 372/8/3
f 376/8/3 363/8/3 369/8/3
f 377/8/3 375/8/3 374/8/3
f 378/8/3 363/8/3 376/8/3
f 379/8/3 363/8/3 378/8/3
f 380/8/3 378/8/3 377/8/3
f 381/8/3 378/8/3 380/8/3
f 383/8/3 380/8/3 377/8/3
f 384/8/3 380/8/3 383/8/3
f 386/8/3 377/8/3 374/8/3
f 386/8/3 383/8/3 377/8/3
f 387/8/3 383/8/3 386/8/3
f 388/8/3 383/8/3 387/8/3
f 389/3/3 386/3/3 385/3/3
f 390/3/3 386/3/3 389/3/3
f 391/3/3 388/3/3 387/3/3
f 392/3/3 388/3/3 391/3/3
f 393/4/3 390/4/3 389/4/3
f 394/4/3 390/4/3 393/4/3
f 395/4/3 392/4/3 391/4/3
f 396/4/3 392/4/3 395/4/3
f 397/3/3 394/3/3 393/3/3
f 398/3/3 394/3/3 397/3/3
f 399/3/3 396/3/3 395/3/3
f 400/3/3 396/3/3 399/3/3
f 401/4/3 398/4/3 397/4/3
f 402/4/3 398/4/3 401/4/3
f 403/4/3 400/4/3 399/4/3
f 404/4/3 400/4/3 403/4/3
f 405/3/3 402/3/3 401/3/3
f 406/3/3 402/3/3 405/3/3
f 407/3/3 404/3/3 403/3/3
f 408/3/3 404/3/3 407/3/3
f 409/4/3 406/4/3 405/4/3
f 410/4/3 406/4/3 409/4/3
f 411/4/3 408/4/3 407/4/3
f 412/4/3 408/4/3 411/4/3
f 413/3/3 410/3/3 409/3/3
f 414/3/3 410/3/3 413/3/3
f 415/3/3 412/3/3 411/3/3
f 416/3/3 412/3/3 415/3/3
f 417/4/3 414/4/3 413/4/3
f 418/4/3 414/4/3 417/4/3
f 419/4/3 416/4/3 415/4/3
f 420/4/3 416/4/3 419/4/3
f 421/3/3 418/3/3 417/3/3
f 422/3/3 418/3/3 421/3/3
f 423/3/3 420/3/3 419/3/3
f 424/3/3 420/3/3 423/3/3
f 425/4/3 422/4/3 421/4/3
f 426/4/3 422/4/3 425/4/3
f 427/4/3 424/4/3 423/4/3
f 428/4/3 424/4/3 427/4/3
f 429/3/3 426/3/3 425/3/3
f 430/3/3 426/3/3 429/3/3
f 432/3/3 428/3/3 427/3/3
f 433/3/3 428/3/3 432/3/3
f 434/8/3 431/8/3 430/8/3
f 435/8/3 431/8/3 434/8/3
f 436/8/3 433/8/3 432/8/3
f 437/8/3 433/8/3 436/8/3
f 438/8/3 382/8/3 381/8/3
f 439/8/3 382/8/3 438/8/3
f 442/8/3 441/8/3 440/8/3
f 443/8/3 441/8/3 442/8/3
f 446/3/3 445/3/3 444/3/3
f 447/3/3 445/3/3 446/3/3
f 448/4/3 447/4/3 446/4/3
f 449/4/3 447/4/3 448/4/3
f 450/3/3 449/3/3 448/3/3
f 451/3/3 449/3/3 450/3/3
f 452/4/3 451/4/3 450/4/3
f 453/4/3 451/4/3 452/4/3
f 454/3/3 453/3/3 452/3/3
f 455/3/3 453/3/3 454/3/3
f 456/4/3 455/4/3 454/4/3
f 457/4/3 455/4/3 456/4/3
f 458/3/3 457/3/3 456/3/3
f 459/3/3 457/3/3 458/3/3
f 460/4/3 459/4/3 458/4/3
f 461/4/3 459/4/3 460/4/3
f 462/3/3 461/3/3 460/3/3
f 463/3/3 461/3/3 462/3/3
f 464/4/3 463/4/3 462/4/3
f 465/4/3 463/4/3 464/4/3
f 466/3/3 465/3/3 464/3/3
f 467/3/3 465/3/3 466/3/3
f 471/8/3 468/8/3 467/8/3
f 472/8/3 468/8/3 471/8/3
f 473/8/3 470/8/3 469/8/3
f 474/8/3 470/8/3 473/8/3
f 477/8/3 476/8/3 475/8/3
f 478/8/3 476/8/3 477/8/3
f 482/8/3 480/8/3 479/8/3
f 483/8/3 482/8/3 481/8/3
f 484/8/3 480/8/3 482/8/3
f 484/8/3 482/8/3 483/8/3
f 485/8/4 486/8/4 488/8/4
f 487/8/4 488/8/4 489/8/4
f 488/8/4 486/8/4 490/8/4
f 489/8/4 488/8/4 490/8/4
f 491/8/4 492/8/4 493/8/4
f 493/8/4 492/8/4 494/8/4
f 495/8/4 496/8/4 497/8/4
f 497/8/4 496/8/4 498/8/4
f 499/3/4 500/3/4 501/3/4
f 501/3/4 500/3/4 502/3/4
f 501/4/4 502/4/4 503/4/4
f 503/4/4 502/4/4 504/4/4
f 503/3/4 504/3/4 505/3/4
f 505/3/4 504/3/4 506/3/4
f 505/4/4 506/4/4 507/4/4
f 507/4/4 506/4/4 508/4/4
f 507/3/4 508/3/4 509/3/4
f 509/3/4 508/3/4 510/3/4
f 509/4/4 510/4/4 511/4/4
f 511/4/4 510/4/4 512/4/4
f 511/3/4 512/3/4 513/3/4
f 513/3/4 512/3/4 514/3/4
f 513/4/4 514/4/4 515/4/4
f 515/4/4 514/4/4 516/4/4
f 515/3/4 516/3/4 517/3/4
f 517/3/4 516/3/4 518/3/4
f 517/4/4 518/4/4 519/4/4
f 519/4/4 518/4/4 520/4/4
f 519/3/4 520/3/4 521/3/4
f 521/3/4 520/3/4 522/3/4
f 522/8/4 523/8/4 526/8/4
f 526/8/4 523/8/4 527/8/4
f 524/8/4 525/8/4 528/8/4
f 528/8/4 525/8/4 529/8/4
f 530/8/4 531/8/4 534/8/4
f 534/8/4 531/8/4 535/8/4
f 532/8/4 533/8/4 536/8/4
f 536/8/4 533/8/4 537/8/4
f 534/2/4 535/2/4 538/2/4
f 536/6/4 537/6/4 541/6/4
f 541/6/4 537/6/4 542/6/4
f 538/2/4 539/2/4 543/2/4
f 534/2/4 538/2/4 543/2/4
f 543/2/4 539/2/4 544/2/4
f 540/6/4 541/6/4 545/6/4
f 545/6/4 541/6/4 546/6/4
f 544/2/4 539/2/4 547/2/4
f 547/3/4 548/3/4 551/3/4
f 549/6/4 550/6/4 552/6/4
f 544/2/4 547/2/4 553/2/4
f 551/3/4 552/3/4 554/3/4
f 553/2/4 547/2/4 554/2/4
f 547/3/4 551/3/4 554/3/4
f 554/3/4 552/3/4 555/3/4
f 552/6/4 550/6/4 556/6/4
f 555/3/4 552/3/4 556/3/4
f 556/6/4 550/6/4 557/6/4
f 554/2/4 555/2/4 558/2/4
f 555/3/4 556/3/4 558/3/4
f 558/3/4 556/3/4 559/3/4
f 556/8/4 557/8/4 560/8/4
f 559/3/4 556/3/4 560/3/4
f 560/8/4 557/8/4 561/8/4
f 554/2/4 558/2/4 562/2/4
f 558/8/4 559/8/4 563/8/4
f 562/2/4 558/2/4 563/2/4
f 563/8/4 559/8/4 564/8/4
f 562/8/4 563/8/4 568/8/4
f 568/8/4 563/8/4 569/8/4
f 564/8/4 565/8/4 570/8/4
f 570/8/4 565/8/4 571/8/4
f 566/8/4 567/8/4 573/8/4
f 571/8/4 572/8/4 574/8/4
f 569/8/4 570/8/4 574/8/4
f 570/8/4 571/8/4 574/8/4
f 574/8/4 572/8/4 575/8/4
f 569/8/4 574/8/4 576/8/4
f 576/8/4 574/8/4 577/8/4
f 573/8/4 567/8/4 580/8/4
f 578/8/4 579/8/4 581/8/4
f 580/8/4 567/8/4 582/8/4
f 582/8/4 567/8/4 583/8/4
f 581/8/4 582/8/4 584/8/4
f 584/8/4 582/8/4 585/8/4
f 581/8/4 584/8/4 587/8/4
f 587/8/4 584/8/4 588/8/4
f 578/8/4 581/8/4 590/8/4
f 581/8/4 587/8/4 590/8/4
f 590/8/4 587/8/4 591/8/4
f 591/8/4 587/8/4 592/8/4
f 589/3/4 590/3/4 593/3/4
f 593/3/4 590/3/4 594/3/4
f 591/3/4 592/3/4 595/3/4
f 595/3/4 592/3/4 596/3/4
f 593/4/4 594/4/4 597/4/4
f 597/4/4 594/4/4 598/4/4
f 595/4/4 596/4/4 599/4/4
f 599/4/4 596/4/4 600/4/4
f 597/3/4 598/3/4 601/3/4
f 601/3/4 598/3/4 602/3/4
f 599/3/4 600/3/4 603/3/4
f 603/3/4 600/3/4 604/3/4
f 601/4/4 602/4/4 605/4/4
f 605/4/4 602/4/4 606/4/4
f 603/4/4 604/4/4 607/4/4
f 607/4/4 604/4/4 608/4/4
f 605/3/4 606/3/4 609/3/4
f 609/3/4 606/3/4 610/3/4
f 607/3/4 608/3/4 611/3/4
f 611/3/4 608/3/4 612/3/4
f 609/4/4 610/4/4 613/4/4
f 613/4/4 610/4/4 614/4/4
f 611/4/4 612/4/4 615/4/4
f 615/4/4 612/4/4 616/4/4
f 613/3/4 614/3/4 617/3/4
f 617/3/4 614/3/4 618/3/4
f 615/3/4 616/3/4 619/3/4
f 619/3/4 616/3/4 620/3/4
f 617/4/4 618/4/4 621/4/4
f 621/4/4 618/4/4 622/4/4
f 619/4/4 620/4/4 623/4/4
f 623/4/4 620/4/4 624/4/4
f 621/3/4 622/3/4 625/3/4
f 625/3/4 622/3/4 626/3/4
f 623/3/4 624/3/4 627/3/4
f 627/3/4 624/3/4 628/3/4
f 625/4/4 626/4/4 629/4/4
f 629/4/4 626/4/4 630/4/4
f 627/4/4 628/4/4 631/4/4
f 631/4/4 628/4/4 632/4/4
f 629/3/4 630/3/4 633/3/4
f 633/3/4 630/3/4 634/3/4
f 631/3/4 632/3/4 636/3/4
f 636/3/4 632/3/4 637/3/4
f 634/8/4 635/8/4 638/8/4
f 638/8/4 635/8/4 639/8/4
f 636/8/4 637/8/4 640/8/4
f 640/8/4 637/8/4 641/8/4
f 585/8/4 586/8/4 642/8/4
f 642/8/4 586/8/4 643/8/4
f 644/8/4 645/8/4 646/8/4
f 646/8/4 645/8/4 647/8/4
f 647/8/4 645/8/4 648/8/4
f 648/8/4 645/8/4 649/8/4
f 649/8/4 645/8/4 650/8/4
f 646/2/4 647/2/4 651/2/4
f 647/3/4 648/3/4 651/3/4
f 651/3/4 648/3/4 652/3/4
f 651/2/4 652/2/4 653/2/4
f 652/3/4 648/3/4 653/3/4
f 653/3/4 648/3/4 654/3/4
f 646/2/4 651/2/4 655/2/4
f 651/2/4 653/2/4 655/2/4
f 653/2/4 654/2/4 655/2/4
f 655/2/4 654/2/4 656/2/4
f 654/3/4 648/3/4 657/3/4
f 656/2/4 654/2/4 657/2/4
f 648/6/4 649/6/4 658/6/4
f 657/3/4 648/3/4 658/3/4
f 649/3/4 650/3/4 659/3/4
f 658/6/4 649/6/4 659/6/4
f 659/3/4 650/3/4 660/3/4
f 657/2/4 658/2/4 661/2/4
f 656/2/4 657/2/4 661/2/4
f 661/2/4 658/2/4 662/2/4
f 658/6/4 659/6/4 663/6/4
f 662/2/4 658/2/4 663/2/4
f 663/6/4 659/6/4 664/6/4
f 662/2/4 663/2/4 665/2/4
f 665/2/4 663/2/4 666/2/4
f 667/8/4 668/8/4 670/8/4
f 669/8/4 670/8/4 671/8/4
f 671/8/4 670/8/4 672/8/4
f 670/8/4 668/8/4 673/8/4
f 672/8/4 670/8/4 673/8/4
f 672/8/4 673/8/4 675/8/4
f 673/8/4 674/8/4 675/8/4
f 675/8/4 674/8/4 676/8/4
f 676/8/4 674/8/4 677/8/4
f 677/8/4 674/8/4 678/8/4
f 676/8/4 677/8/4 680/8/4
f 679/8/4 680/8/4 682/8/4
f 681/8/4 682/8/4 683/8/4
f 682/8/4 680/8/4 684/8/4
f 683/8/4 682/8/4 684/8/4
f 677/7/4 678/7/4 685/7/4
f 684/8/4 680/8/4 685/8/4
f 680/8/4 677/8/4 685/8/4
f 685/7/4 678/7/4 686/7/4
f 684/8/4 685/8/4 687/8/4
f 685/8/4 686/8/4 687/8/4
f 687/8/4 686/8/4 688/8/4
f 689/8/4 690/8/4 692/8/4
f 693/3/4 694/3/4 695/3/4
f 695/3/4 694/3/4 696/3/4
f 695/4/4 696/4/4 697/4/4
f 697/4/4 696/4/4 698/4/4
f 697/3/4 698/3/4 699/3/4
f 699/3/4 698/3/4 700/3/4
f 699/4/4 700/4/4 701/4/4
f 701/4/4 700/4/4 702/4/4
f 701/3/4 702/3/4 703/3/4
f 703/3/4 702/3/4 704/3/4
f 703/4/4 704/4/4 705/4/4
f 705/4/4 704/4/4 706/4/4
f 705/3/4 706/3/4 707/3/4
f 707/3/4 706/3/4 708/3/4
f 707/4/4 708/4/4 709/4/4
f 709/4/4 708/4/4 710/4/4
f 709/3/4 710/3/4 711/3/4
f 711/3/4 710/3/4 712/3/4
f 711/4/4 712/4/4 713/4/4
f 713/4/4 712/4/4 714/4/4
f 713/3/4 714/3/4 715/3/4
f 715/3/4 714/3/4 716/3/4
f 691/8/4 692/8/4 717/8/4
f 692/8/4 690/8/4 718/8/4
f 717/8/4 692/8/4 718/8/4
f 722/8/5 720/8/5 719/8/5
f 723/2/5 721/2/5 720/2/5
f 723/8/5 720/8/5 722/8/5
f 724/2/5 721/2/5 723/2/5
f 728/8/5 726/8/5 725/8/5
f 729/2/5 727/2/5 726/2/5
f 729/8/5 726/8/5 728/8/5
f 730/2/5 727/2/5 729/2/5
f 745/3/5 734/3/5 733/3/5
f 746/4/5 735/4/5 734/4/5
f 746/3/5 734/3/5 745/3/5
f 747/3/5 736/3/5 735/3/5
f 747/4/5 735/4/5 746/4/5
f 748/4/5 737/4/5 736/4/5
f 748/3/5 736/3/5 747/3/5
f 749/3/5 738/3/5 737/3/5
f 749/4/5 737/4/5 748/4/5
f 750/4/5 739/4/5 738/4/5
f 750/3/5 738/3/5 749/3/5
f 751/3/5 740/3/5 739/3/5
f 751/4/5 739/4/5 750/4/5
f 752/4/5 741/4/5 740/4/5
f 752/3/5 740/3/5 751/3/5
f 753/3/5 742/3/5 741/3/5
f 753/4/5 741/4/5 752/4/5
f 754/4/5 743/4/5 742/4/5
f 754/3/5 742/3/5 753/3/5
f 755/3/5 744/3/5 743/3/5
f 755/4/5 743/4/5 754/4/5
f 756/3/5 744/3/5 755/3/5
f 760/2/5 732/2/5 731/2/5
f 761/2/5 732/2/5 760/2/5
f 762/8/5 758/8/5 757/8/5
f 763/2/5 759/2/5 758/2/5
f 763/8/5 758/8/5 762/8/5
f 764/2/5 759/2/5 763/2/5
f 767/2/5 766/2/5 765/2/5
f 768/2/5 766/2/5 767/2/5
f 786/3/5 773/3/5 772/3/5
f 787/4/5 774/4/5 773/4/5
f 787/3/5 773/3/5 786/3/5
f 788/3/5 775/3/5 774/3/5
f 788/4/5 774/4/5 787/4/5
f 789/4/5 776/4/5 775/4/5
f 789/3/5 775/3/5 788/3/5
f 790/3/5 777/3/5 776/3/5
f 790/4/5 776/4/5 789/4/5
f 791/4/5 778/4/5 777/4/5
f 791/3/5 777/3/5 790/3/5
f 792/3/5 779/3/5 778/3/5
f 792/4/5 778/4/5 791/4/5
f 793/4/5 780/4/5 779/4/5
f 793/3/5 779/3/5 792/3/5
f 794/3/5 781/3/5 780/3/5
f 794/4/5 780/4/5 793/4/5
f 795/4/5 782/4/5 781/4/5
f 795/3/5 781/3/5 794/3/5
f 796/3/5 783/3/5 782/3/5
f 796/4/5 782/4/5 795/4/5
f 797/3/5 783/3/5 796/3/5
f 799/8/5 785/8/5 784/8/5
f 800/8/5 785/8/5 799/8/5
f 812/8/5 798/8/5 797/8/5
f 813/8/5 798/8/5 812/8/5
f 816/2/5 770/2/5 769/2/5
f 817/8/5 771/8/5 770/8/5
f 817/2/5 770/2/5 816/2/5
f 818/8/5 771/8/5 817/8/5
f 819/3/5 802/3/5 801/3/5
f 820/4/5 803/4/5 802/4/5
f 820/3/5 802/3/5 819/3/5
f 821/3/5 804/3/5 803/3/5
f 821/4/5 803/4/5 820/4/5
f 822/4/5 805/4/5 804/4/5
f 822/3/5 804/3/5 821/3/5
f 823/3/5 806/3/5 805/3/5
f 823/4/5 805/4/5 822/4/5
f 824/4/5 807/4/5 806/4/5
f 824/3/5 806/3/5 823/3/5
f 825/3/5 808/3/5 807/3/5
f 825/4/5 807/4/5 824/4/5
f 826/4/5 809/4/5 808/4/5
f 826/3/5 808/3/5 825/3/5
f 827/3/5 810/3/5 809/3/5
f 827/4/5 809/4/5 826/4/5
f 828/4/5 811/4/5 810/4/5
f 828/3/5 810/3/5 827/3/5
f 829/3/5 812/3/5 811/3/5
f 829/4/5 811/4/5 828/4/5
f 830/3/5 812/3/5 829/3/5
f 831/2/5 815/2/5 814/2/5
f 832/2/5 815/2/5 831/2/5
f 848/8/5 834/8/5 833/8/5
f 849/8/5 834/8/5 848/8/5
f 850/3/5 836/3/5 835/3/5
f 851/4/5 837/4/5 836/4/5
f 851/3/5 836/3/5 850/3/5
f 852/3/5 838/3/5 837/3/5
f 852/4/5 837/4/5 851/4/5
f 853/4/5 839/4/5 838/4/5
f 853/3/5 838/3/5 852/3/5
f 854/3/5 840/3/5 839/3/5
f 854/4/5 839/4/5 853/4/5
f 855/4/5 841/4/5 840/4/5
f 855/3/5 840/3/5 854/3/5
f 856/3/5 842/3/5 841/3/5
f 856/4/5 841/4/5 855/4/5
f 857/4/5 843/4/5 842/4/5
f 857/3/5 842/3/5 856/3/5
f 858/3/5 844/3/5 843/3/5
f 858/4/5 843/4/5 857/4/5
f 859/4/5 845/4/5 844/4/5
f 859/3/5 844/3/5 858/3/5
f 860/3/5 846/3/5 845/3/5
f 860/4/5 845/4/5 859/4/5
f 861/3/5 846/3/5 860/3/5
f 863/8/5 849/8/5 848/8/5
f 863/8/5 850/8/5 849/8/5
f 863/8/5 848/8/5 847/8/5
f 864/8/5 850/8/5 863/8/5
f 865/8/5 862/8/5 861/8/5
f 866/8/5 862/8/5 865/8/5
f 867/8/5 863/8/5 847/8/5
f 868/8/5 850/8/5 864/8/5
f 871/8/5 867/8/5 847/8/5
f 871/8/5 868/8/5 867/8/5
f 872/8/5 868/8/5 871/8/5
f 873/8/5 850/8/5 868/8/5
f 873/8/5 868/8/5 872/8/5
f 874/8/5 850/8/5 873/8/5
f 885/8/5 870/8/5 869/8/5
f 886/8/5 870/8/5 885/8/5
f 887/8/5 873/8/5 872/8/5
f 888/8/5 873/8/5 887/8/5
f 889/3/5 875/3/5 874/3/5
f 890/4/5 876/4/5 875/4/5
f 890/3/5 875/3/5 889/3/5
f 891/3/5 877/3/5 876/3/5
f 891/4/5 876/4/5 890/4/5
f 892/4/5 878/4/5 877/4/5
f 892/3/5 877/3/5 891/3/5
f 893/3/5 879/3/5 878/3/5
f 893/4/5 878/4/5 892/4/5
f 894/4/5 880/4/5 879/4/5
f 894/3/5 879/3/5 893/3/5
f 895/3/5 881/3/5 880/3/5
f 895/4/5 880/4/5 894/4/5
f 896/4/5 882/4/5 881/4/5
f 896/3/5 881/3/5 895/3/5
f 897/3/5 883/3/5 882/3/5
f 897/4/5 882/4/5 896/4/5
f 898/4/5 884/4/5 883/4/5
f 898/3/5 883/3/5 897/3/5
f 899/3/5 885/3/5 884/3/5
f 899/4/5 884/4/5 898/4/5
f 900/3/5 885/3/5 899/3/5
f 907/2/5 902/2/5 901/2/5
f 908/2/5 902/2/5 907/2/5
f 909/8/5 904/8/5 903/8/5
f 910/8/5 904/8/5 909/8/5
f 912/8/5 906/8/5 905/8/5
f 913/8/5 906/8/5 912/8/5
f 917/8/5 911/8/5 910/8/5
f 918/8/5 911/8/5 917/8/5
f 921/2/5 915/2/5 914/2/5
f 922/2/5 915/2/5 921/2/5
f 923/8/5 917/8/5 916/8/5
f 924/8/5 917/8/5 923/8/5
f 925/8/5 920/8/5 919/8/5
f 926/8/5 920/8/5 925/8/5
f 931/8/5 928/8/5 927/8/5
f 932/8/5 928/8/5 931/8/5
f 933/8/5 930/8/5 929/8/5
f 934/8/5 930/8/5 933/8/5
f 937/8/5 936/8/5 935/8/5
f 938/8/5 936/8/5 937/8/5
f 940/8/5 936/8/5 938/8/5
f 945/8/5 940/8/5 939/8/5
f 946/8/5 936/8/5 940/8/5
f 946/8/5 940/8/5 945/8/5
f 947/8/5 942/8/5 941/8/5
f 948/8/5 942/8/5 947/8/5
f 949/8/5 944/8/5 943/8/5
f 950/8/5 944/8/5 949/8/5
f 957/8/5 952/8/5 951/8/5
f 958/8/5 952/8/5 957/8/5
f 959/8/5 954/8/5 953/8/5
f 960/8/5 954/8/5 959/8/5
f 961/8/5 956/8/5 955/8/5
f 962/8/5 956/8/5 961/8/5
f 963/8/5 956/8/5 962/8/5
f 964/8/5 956/8/5 963/8/5
f 965/8/5 956/8/5 964/8/5
f 966/8/5 956/8/5 965/8/5
f 967/8/5 956/8/5 966/8/5
f 968/8/5 956/8/5 967/8/5
f 969/8/5 956/8/5 968/8/5
f 970/8/5 956/8/5 969/8/5
f 971/8/5 956/8/5 970/8/5
f 972/8/5 956/8/5 971/8/5
f 973/8/5 956/8/5 972/8/5
f 974/8/5 956/8/5 973/8/5
f 993/8/5 976/8/5 975/8/5
f 994/8/5 976/8/5 993/8/5
f 995/8/5 978/8/5 977/8/5
f 996/8/5 978/8/5 995/8/5
f 997/8/5 992/8/5 991/8/5
f 997/8/5 980/8/5 979/8/5
f 997/8/5 981/8/5 980/8/5
f 997/8/5 982/8/5 981/8/5
f 997/8/5 991/8/5 990/8/5
f 997/8/5 990/8/5 989/8/5
f 997/8/5 989/8/5 988/8/5
f 997/8/5 988/8/5 987/8/5
f 997/8/5 987/8/5 986/8/5
f 997/8/5 986/8/5 985/8/5
f 997/8/5 985/8/5 984/8/5
f 997/8/5 984/8/5 983/8/5
f 997/8/5 983/8/5 982/8/5
f 998/8/5 992/8/5 997/8/5
f 1001/8/5 1000/8/5 999/8/5
f 1002/8/5 1000/8/5 1001/8/5
f 1005/8/5 1004/8/5 1003/8/5
f 1006/8/5 1004/8/5 1005/8/5
f 1009/8/5 1008/8/5 1007/8/5
f 1010/8/5 1008/8/5 1009/8/5
f 1011/8/6 1012/8/6 1013/8/6
f 1013/8/6 1012/8/6 1014/8/6
f 1015/8/6 1016/8/6 1017/8/6
f 1017/8/6 1016/8/6 1018/8/6
f 1019/8/6 1020/8/6 1021/8/6
f 1021/8/6 1020/8/6 1022/8/6
f 1023/2/6 1024/2/6 1037/2/6
f 1037/2/6 1024/2/6 1038/2/6
f 1025/3/6 1026/3/6 1039/3/6
f 1026/4/6 1027/4/6 1040/4/6
f 1039/3/6 1026/3/6 1040/3/6
f 1027/3/6 1028/3/6 1041/3/6
f 1040/4/6 1027/4/6 1041/4/6
f 1028/4/6 1029/4/6 1042/4/6
f 1041/3/6 1028/3/6 1042/3/6
f 1029/3/6 1030/3/6 1043/3/6
f 1042/4/6 1029/4/6 1043/4/6
f 1030/4/6 1031/4/6 1044/4/6
f 1043/3/6 1030/3/6 1044/3/6
f 1031/3/6 1032/3/6 1045/3/6
f 1044/4/6 1031/4/6 1045/4/6
f 1032/4/6 1033/4/6 1046/4/6
f 1045/3/6 1032/3/6 1046/3/6
f 1033/3/6 1034/3/6 1047/3/6
f 1046/4/6 1033/4/6 1047/4/6
f 1034/4/6 1035/4/6 1048/4/6
f 1047/3/6 1034/3/6 1048/3/6
f 1035/3/6 1036/3/6 1049/3/6
f 1048/4/6 1035/4/6 1049/4/6
f 1049/3/6 1036/3/6 1050/3/6
f 1051/2/6 1052/2/6 1065/2/6
f 1065/2/6 1052/2/6 1066/2/6
f 1053/3/6 1054/3/6 1067/3/6
f 1054/4/6 1055/4/6 1068/4/6
f 1067/3/6 1054/3/6 1068/3/6
f 1055/3/6 1056/3/6 1069/3/6
f 1068/4/6 1055/4/6 1069/4/6
f 1056/4/6 1057/4/6 1070/4/6
f 1069/3/6 1056/3/6 1070/3/6
f 1057/3/6 1058/3/6 1071/3/6
f 1070/4/6 1057/4/6 1071/4/6
f 1058/4/6 1059/4/6 1072/4/6
f 1071/3/6 1058/3/6 1072/3/6
f 1059/3/6 1060/3/6 1073/3/6
f 1072/4/6 1059/4/6 1073/4/6
f 1060/4/6 1061/4/6 1074/4/6
f 1073/3/6 1060/3/6 1074/3/6
f 1061/3/6 1062/3/6 1075/3/6
f 1074/4/6 1061/4/6 1075/4/6
f 1062/4/6 1063/4/6 1076/4/6
f 1075/3/6 1062/3/6 1076/3/6
f 1063/3/6 1064/3/6 1077/3/6
f 1076/4/6 1063/4/6 1077/4/6
f 1077/3/6 1064/3/6 1078/3/6
f 1079/6/6 1080/6/6 1081/6/6
f 1081/6/6 1080/6/6 1082/6/6
f 1082/6/6 1080/6/6 1083/6/6
f 1085/8/6 1086/8/6 1088/8/6
f 1087/8/6 1088/8/6 1089/8/6
f 1088/8/6 1086/8/6 1090/8/6
f 1089/8/6 1088/8/6 1090/8/6
f 1083/6/6 1084/6/6 1092/6/6
f 1082/6/6 1083/6/6 1092/6/6
f 1092/6/6 1084/6/6 1093/6/6
f 1093/6/6 1084/6/6 1094/6/6
f 1090/8/6 1086/8/6 1095/8/6
f 1095/8/6 1086/8/6 1096/8/6
f 1091/6/6 1092/6/6 1097/6/6
f 1092/6/6 1093/6/6 1097/6/6
f 1097/6/6 1093/6/6 1098/6/6
f 1099/8/6 1100/8/6 1104/8/6
f 1100/3/6 1101/3/6 1105/3/6
f 1104/8/6 1100/8/6 1105/8/6
f 1105/3/6 1101/3/6 1106/3/6
f 1108/8/6 1109/8/6 1110/8/6
f 1110/8/6 1109/8/6 1111/8/6
f 1106/6/6 1107/6/6 1116/6/6
f 1116/6/6 1107/6/6 1117/6/6
f 1112/8/6 1113/8/6 1118/8/6
f 1118/8/6 1113/8/6 1119/8/6
f 1114/8/6 1115/8/6 1120/8/6
f 1115/3/6 1116/3/6 1121/3/6
f 1120/8/6 1115/8/6 1121/8/6
f 1121/3/6 1116/3/6 1122/3/6
f 1102/8/6 1103/8/6 1123/8/6
f 1123/8/6 1103/8/6 1124/8/6
f 1125/8/6 1126/8/6 1134/8/6
f 1126/7/6 1127/7/6 1135/7/6
f 1134/8/6 1126/8/6 1135/8/6
f 1127/8/6 1128/8/6 1136/8/6
f 1135/7/6 1127/7/6 1136/7/6
f 1136/8/6 1128/8/6 1137/8/6
f 1129/8/6 1130/8/6 1138/8/6
f 1138/8/6 1130/8/6 1139/8/6
f 1131/8/6 1132/8/6 1140/8/6
f 1132/6/6 1133/6/6 1141/6/6
f 1140/8/6 1132/8/6 1141/8/6
f 1141/6/6 1133/6/6 1142/6/6
f 1125/8/6 1134/8/6 1143/8/6
f 1137/8/6 1138/8/6 1146/8/6
f 1146/8/6 1138/8/6 1147/8/6
f 1125/8/6 1143/8/6 1149/8/6
f 1143/8/6 1144/8/6 1149/8/6
f 1144/7/6 1145/7/6 1150/7/6
f 1149/8/6 1144/8/6 1150/8/6
f 1145/8/6 1146/8/6 1151/8/6
f 1150/7/6 1145/7/6 1151/7/6
f 1151/8/6 1146/8/6 1152/8/6
f 1147/8/6 1148/8/6 1153/8/6
f 1153/8/6 1148/8/6 1154/8/6
f 1155/8/6 1156/8/6 1159/8/6
f 1159/8/6 1156/8/6 1160/8/6
f 1157/8/6 1158/8/6 1161/8/6
f 1161/8/6 1158/8/6 1162/8/6
